<svg width="65" height="58" viewBox="0 0 65 58" fill="none" xmlns="http://www.w3.org/2000/svg">
<path opacity="0.1" d="M21.5488 57.24C17.3354 57.24 13.6021 56.0933 10.3488 53.8C7.14875 51.4533 4.64208 48.1467 2.82875 43.88C1.06875 39.6133 0.18875 34.6533 0.18875 29C0.18875 23.3467 1.06875 18.3867 2.82875 14.12C4.64208 9.85333 7.14875 6.57333 10.3488 4.28C13.6021 1.93333 17.3354 0.759999 21.5488 0.759999C25.7621 0.759999 29.4688 1.93333 32.6688 4.28C35.9221 6.57333 38.4288 9.85333 40.1888 14.12C42.0021 18.3867 42.9088 23.3467 42.9088 29C42.9088 34.6533 42.0021 39.6133 40.1888 43.88C38.4288 48.1467 35.9221 51.4533 32.6688 53.8C29.4688 56.0933 25.7621 57.24 21.5488 57.24ZM21.5488 55.72C25.4421 55.72 28.8821 54.6267 31.8688 52.44C34.8554 50.2533 37.1754 47.16 38.8288 43.16C40.4821 39.1067 41.3088 34.3867 41.3088 29C41.3088 23.6133 40.4821 18.92 38.8288 14.92C37.1754 10.8667 34.8554 7.74666 31.8688 5.56C28.8821 3.37333 25.4421 2.28 21.5488 2.28C17.6554 2.28 14.2154 3.37333 11.2288 5.56C8.24208 7.74666 5.92208 10.8667 4.26875 14.92C2.61542 18.92 1.78875 23.6133 1.78875 29C1.78875 34.3867 2.61542 39.1067 4.26875 43.16C5.92208 47.16 8.24208 50.2533 11.2288 52.44C14.2154 54.6267 17.6554 55.72 21.5488 55.72ZM64.3763 0.999996V57H62.8563V2.52H48.4563V0.999996H64.3763Z" fill="#2B2B2B"/>
</svg>
