<svg width="89" height="58" viewBox="0 0 89 58" fill="none" xmlns="http://www.w3.org/2000/svg">
<path opacity="0.1" d="M21.5175 57.24C17.3042 57.24 13.5708 56.0933 10.3175 53.8C7.1175 51.4533 4.61083 48.1467 2.7975 43.88C1.0375 39.6133 0.1575 34.6533 0.1575 29C0.1575 23.3467 1.0375 18.3867 2.7975 14.12C4.61083 9.85333 7.1175 6.57333 10.3175 4.28C13.5708 1.93333 17.3042 0.759999 21.5175 0.759999C25.7308 0.759999 29.4375 1.93333 32.6375 4.28C35.8908 6.57333 38.3975 9.85333 40.1575 14.12C41.9708 18.3867 42.8775 23.3467 42.8775 29C42.8775 34.6533 41.9708 39.6133 40.1575 43.88C38.3975 48.1467 35.8908 51.4533 32.6375 53.8C29.4375 56.0933 25.7308 57.24 21.5175 57.24ZM21.5175 55.72C25.4108 55.72 28.8508 54.6267 31.8375 52.44C34.8242 50.2533 37.1442 47.16 38.7975 43.16C40.4508 39.1067 41.2775 34.3867 41.2775 29C41.2775 23.6133 40.4508 18.92 38.7975 14.92C37.1442 10.8667 34.8242 7.74666 31.8375 5.56C28.8508 3.37333 25.4108 2.28 21.5175 2.28C17.6242 2.28 14.1842 3.37333 11.1975 5.56C8.21083 7.74666 5.89083 10.8667 4.2375 14.92C2.58417 18.92 1.7575 23.6133 1.7575 29C1.7575 34.3867 2.58417 39.1067 4.2375 43.16C5.89083 47.16 8.21083 50.2533 11.1975 52.44C14.1842 54.6267 17.6242 55.72 21.5175 55.72ZM88.505 55.48V57H51.065V55.8L75.305 31.24C78.665 27.8267 80.9317 24.9467 82.105 22.6C83.2783 20.2 83.865 17.72 83.865 15.16C83.865 11.16 82.505 8.01333 79.785 5.72C77.1183 3.42666 73.2783 2.28 68.265 2.28C64.425 2.28 61.0917 2.84 58.265 3.96C55.4383 5.08 53.0117 6.78666 50.985 9.08L49.865 7.96C54.185 3.16 60.3183 0.759999 68.265 0.759999C73.545 0.759999 77.7317 2.04 80.825 4.6C83.9183 7.16 85.465 10.6533 85.465 15.08C85.465 17.9067 84.825 20.6 83.545 23.16C82.265 25.72 79.8917 28.76 76.425 32.28L53.545 55.48H88.505Z" fill="#2B2B2B"/>
</svg>
