<svg width="87" height="58" viewBox="0 0 87 58" fill="none" xmlns="http://www.w3.org/2000/svg">
<path opacity="0.1" d="M21.8456 57.24C17.6323 57.24 13.899 56.0933 10.6456 53.8C7.44563 51.4533 4.93896 48.1467 3.12563 43.88C1.36563 39.6133 0.485625 34.6533 0.485625 29C0.485625 23.3467 1.36563 18.3867 3.12563 14.12C4.93896 9.85333 7.44563 6.57333 10.6456 4.28C13.899 1.93333 17.6323 0.759999 21.8456 0.759999C26.059 0.759999 29.7656 1.93333 32.9656 4.28C36.219 6.57333 38.7256 9.85333 40.4856 14.12C42.299 18.3867 43.2056 23.3467 43.2056 29C43.2056 34.6533 42.299 39.6133 40.4856 43.88C38.7256 48.1467 36.219 51.4533 32.9656 53.8C29.7656 56.0933 26.059 57.24 21.8456 57.24ZM21.8456 55.72C25.739 55.72 29.179 54.6267 32.1656 52.44C35.1523 50.2533 37.4723 47.16 39.1256 43.16C40.779 39.1067 41.6056 34.3867 41.6056 29C41.6056 23.6133 40.779 18.92 39.1256 14.92C37.4723 10.8667 35.1523 7.74666 32.1656 5.56C29.179 3.37333 25.739 2.28 21.8456 2.28C17.9523 2.28 14.5123 3.37333 11.5256 5.56C8.53896 7.74666 6.21896 10.8667 4.56563 14.92C2.91229 18.92 2.08563 23.6133 2.08563 29C2.08563 34.3867 2.91229 39.1067 4.56563 43.16C6.21896 47.16 8.53896 50.2533 11.5256 52.44C14.5123 54.6267 17.9523 55.72 21.8456 55.72ZM66.7719 26.04C73.1719 26.04 78.0252 27.4533 81.3319 30.28C84.6919 33.0533 86.3719 36.84 86.3719 41.64C86.3719 46.3867 84.7452 50.1733 81.4919 53C78.2919 55.8267 73.7585 57.24 67.8919 57.24C63.7319 57.24 59.9185 56.52 56.4519 55.08C52.9852 53.5867 50.3985 51.6667 48.6919 49.32L49.7319 48.28C51.3319 50.4667 53.7585 52.2533 57.0119 53.64C60.2652 55.0267 63.8919 55.72 67.8919 55.72C73.3319 55.72 77.4919 54.4667 80.3719 51.96C83.3052 49.4533 84.7719 46.0133 84.7719 41.64C84.7719 37.2133 83.2785 33.7733 80.2919 31.32C77.3052 28.8133 72.8252 27.56 66.8519 27.56H63.9719V26.36L82.1319 2.52H50.4519V0.999996H84.2919V2.2L66.1319 26.04H66.7719Z" fill="#2B2B2B"/>
</svg>
