<svg width="98" height="58" viewBox="0 0 98 58" fill="none" xmlns="http://www.w3.org/2000/svg">
<path opacity="0.1" d="M21.4081 57.24C17.1948 57.24 13.4615 56.0933 10.2081 53.8C7.00813 51.4533 4.50146 48.1467 2.68813 43.88C0.928125 39.6133 0.0481253 34.6533 0.0481253 29C0.0481253 23.3467 0.928125 18.3867 2.68813 14.12C4.50146 9.85333 7.00813 6.57333 10.2081 4.28C13.4615 1.93333 17.1948 0.759999 21.4081 0.759999C25.6215 0.759999 29.3281 1.93333 32.5281 4.28C35.7815 6.57333 38.2881 9.85333 40.0481 14.12C41.8615 18.3867 42.7681 23.3467 42.7681 29C42.7681 34.6533 41.8615 39.6133 40.0481 43.88C38.2881 48.1467 35.7815 51.4533 32.5281 53.8C29.3281 56.0933 25.6215 57.24 21.4081 57.24ZM21.4081 55.72C25.3015 55.72 28.7415 54.6267 31.7281 52.44C34.7148 50.2533 37.0348 47.16 38.6881 43.16C40.3415 39.1067 41.1681 34.3867 41.1681 29C41.1681 23.6133 40.3415 18.92 38.6881 14.92C37.0348 10.8667 34.7148 7.74666 31.7281 5.56C28.7415 3.37333 25.3015 2.28 21.4081 2.28C17.5148 2.28 14.0748 3.37333 11.0881 5.56C8.10146 7.74666 5.78146 10.8667 4.12813 14.92C2.47479 18.92 1.64813 23.6133 1.64813 29C1.64813 34.3867 2.47479 39.1067 4.12813 43.16C5.78146 47.16 8.10146 50.2533 11.0881 52.44C14.0748 54.6267 17.5148 55.72 21.4081 55.72ZM97.6756 40.36H85.1956V57H83.5956V40.36H51.1956V39.16L82.7156 0.999996H84.6356L53.3556 38.84H83.5956V24.2H85.1956V38.84H97.6756V40.36Z" fill="#2B2B2B"/>
</svg>
