<svg width="40" height="40" viewBox="0 0 40 40" fill="none" xmlns="http://www.w3.org/2000/svg">
<g clip-path="url(#clip0_549_891)">
<path d="M13.125 18.75H5.625V28.75H13.125V18.75Z" fill="#5199FF"/>
<path d="M13.125 16.875H5.625V10.625H13.125V16.875Z" fill="#5199FF"/>
<path d="M14.375 3.125H9.375V4.375H14.375V3.125Z" fill="black"/>
<path d="M16.875 3.125H15.625V4.375H16.875V3.125Z" fill="black"/>
<path d="M8.125 3.125H6.875V4.375H8.125V3.125Z" fill="black"/>
<path d="M13.75 35.625H10V36.875H13.75V35.625Z" fill="black"/>
<path d="M31.5956 11.5625L34.7419 8.60125C35.3031 8.07312 35.625 7.32812 35.625 6.55688C35.625 5.00938 34.3656 3.75 32.7556 3.75C32.025 3.75 31.3331 4.02937 30.8069 4.53625L26.4375 8.75H23.4281C23.3263 8.75 23.2256 8.75813 23.125 8.765V3.75C23.125 2.02688 21.7231 0.625 20 0.625H3.75C2.02688 0.625 0.625 2.02688 0.625 3.75V36.25C0.625 37.9731 2.02688 39.375 3.75 39.375H20C21.7231 39.375 23.125 37.9731 23.125 36.25V20H17.8125C17.2956 20 16.875 19.5794 16.875 19.0625C16.875 18.5456 17.2956 18.125 17.8125 18.125H23.3838C24.1831 18.125 24.9438 17.8231 25.5256 17.2756L30.6844 12.42L38.125 19.6394V29.1162L30.2906 21.2819C29.4644 20.4556 28.3656 20 27.1969 20H24.375V21.25H27.1969C28.0319 21.25 28.8169 21.5756 29.4069 22.1656L39.375 32.1338V19.1106L31.5956 11.5625ZM31.675 5.43625C31.9662 5.155 32.3506 5 32.8181 5C33.6763 5 34.375 5.69875 34.375 6.55688C34.375 6.98438 34.1963 7.39813 33.885 7.69063L32.1156 9.35625L29.9038 7.14437L31.675 5.43625ZM3.75 1.875H20C21.0338 1.875 21.875 2.71625 21.875 3.75V5.625H1.875V3.75C1.875 2.71625 2.71625 1.875 3.75 1.875ZM20 38.125H3.75C2.71625 38.125 1.875 37.2837 1.875 36.25V34.375H21.875V36.25C21.875 37.2837 21.0338 38.125 20 38.125ZM21.875 33.125H1.875V6.875H21.875V9.0375C21.4237 9.20875 21.0012 9.45312 20.625 9.76812V8.125H3.125V31.875H20.625V22.23L21.6413 21.25H21.875V33.125ZM15.6263 19.0769C15.6263 19.1075 15.6338 19.1362 15.635 19.1663L13.82 20.9169L12.215 26.535L17.8219 24.9331L19.375 23.435V30.625H4.375V9.375H19.375V10.9913L15.0763 15.29C14.6237 15.7425 14.375 16.3431 14.375 16.9819C14.375 17.8687 14.8725 18.6644 15.6263 19.0769ZM14.6844 22.4431L16.3075 24.0662L14.0356 24.715L14.6844 22.4431ZM17.8125 21.25H19.8406L17.5081 23.4994L15.2669 21.2581L16.1219 20.4338C16.5238 20.9275 17.1281 21.25 17.8125 21.25ZM17.8125 16.875C17.0669 16.875 16.4094 17.2512 16.0144 17.8219C15.7787 17.61 15.625 17.3137 15.625 16.9819C15.625 16.6769 15.7437 16.39 15.96 16.1737L21.2188 10.915C21.8088 10.325 22.5938 10 23.4281 10H25.1413L18.0112 16.875H17.8125ZM24.6688 16.3656C24.3194 16.6938 23.8631 16.875 23.3838 16.875H19.8125L29.0037 8.0125L31.205 10.2137L24.6688 16.3656Z" fill="black"/>
<path d="M13.125 18.125H5.625V19.375H13.125V18.125Z" fill="black"/>
<path d="M11.875 20.625H5.625V21.875H11.875V20.625Z" fill="black"/>
<path d="M11.875 23.125H5.625V24.375H11.875V23.125Z" fill="black"/>
<path d="M10.625 25.625H5.625V26.875H10.625V25.625Z" fill="black"/>
<path d="M18.125 28.125H5.625V29.375H18.125V28.125Z" fill="black"/>
</g>
<defs>
<clipPath id="clip0_549_891">
<rect width="40" height="40" fill="white"/>
</clipPath>
</defs>
</svg>
