<svg width="20" height="20" viewBox="0 0 20 20" fill="none" xmlns="http://www.w3.org/2000/svg">
<path d="M13.5 14.1667H11.8333L10 11L8.16667 14.1667H6.5L9.16667 10L6.5 5.83333H8.16667L10 9L11.8333 5.83333H13.5L10.8333 10L13.5 14.1667ZM15.8333 2.5H4.16667C3.24167 2.5 2.5 3.24167 2.5 4.16667V15.8333C2.5 16.2754 2.67559 16.6993 2.98816 17.0118C3.30072 17.3244 3.72464 17.5 4.16667 17.5H15.8333C16.2754 17.5 16.6993 17.3244 17.0118 17.0118C17.3244 16.6993 17.5 16.2754 17.5 15.8333V4.16667C17.5 3.24167 16.75 2.5 15.8333 2.5Z" fill="#1F7244"/>
</svg>
