<svg width="20" height="20" viewBox="0 0 20 20" fill="none" xmlns="http://www.w3.org/2000/svg">
<path d="M15.8333 2.5H4.16667C3.24167 2.5 2.5 3.24167 2.5 4.16667V15.8333C2.5 16.75 3.25 17.5 4.16667 17.5H15.8333C16.75 17.5 17.5 16.75 17.5 15.8333V4.16667C17.5 3.24167 16.75 2.5 15.8333 2.5ZM7.5 15H5V13.3333H7.5V15ZM7.5 12.5H5V10.8333H7.5V12.5ZM7.5 10H5V8.33333H7.5V10ZM10.8333 15H8.33333V13.3333H10.8333V15ZM10.8333 12.5H8.33333V10.8333H10.8333V12.5ZM10.8333 10H8.33333V8.33333H10.8333V10Z" fill="#9B51E0"/>
</svg>
