<svg width="20" height="20" viewBox="0 0 20 20" fill="none" xmlns="http://www.w3.org/2000/svg">
<path d="M15.8333 2.5C16.2754 2.5 16.6993 2.67559 17.0118 2.98816C17.3244 3.30072 17.5 3.72464 17.5 4.16667V15.8333C17.5 16.2754 17.3244 16.6993 17.0118 17.0118C16.6993 17.3244 16.2754 17.5 15.8333 17.5H4.16667C3.24167 17.5 2.5 16.75 2.5 15.8333V4.16667C2.5 3.24167 3.24167 2.5 4.16667 2.5H15.8333ZM8.825 8.4C8.80833 8.44167 8.58333 9.86667 7.08333 12.3083C7.08333 12.3083 4.16667 13.8167 4.85833 14.95C5.41667 15.8333 6.79167 14.9167 7.96667 12.725C7.96667 12.725 9.48333 12.1917 11.4917 12.0417C11.4917 12.0417 14.7083 13.4917 15.1417 11.95C15.575 10.4167 12.6 10.75 12.0833 10.9083C12.0833 10.9083 10.3833 9.79167 10 8.24167C10 8.24167 10.9417 4.95833 9.48333 5C8.025 5.04167 8.575 7.6 8.825 8.4ZM9.5 9.275C9.525 9.275 9.89167 10.275 11.075 11.3167C11.075 11.3167 9.13333 11.7 8.25 12.0833C8.25 12.0833 9.08333 10.625 9.5 9.275ZM12.7667 11.5333C13.25 11.4083 14.7 11.6667 14.65 11.9333C14.5833 12.2083 12.7667 11.5333 12.7667 11.5333ZM6.88333 13.0833C6.44167 14.0917 5.69167 14.7333 5.5 14.725C5.30833 14.7167 6.08333 13.3917 6.88333 13.0833ZM9.5 7.3C9.49167 7.25833 9.19167 5.475 9.5 5.50833C9.95 5.55833 9.5 7.25833 9.5 7.3Z" fill="#B90605"/>
</svg>
