<svg width="20" height="20" viewBox="0 0 20 20" fill="none" xmlns="http://www.w3.org/2000/svg">
<path d="M12.9167 14.1667H11.6667L10 7.91667L8.33333 14.1667H7.08333L5.08333 5.83333H6.5L7.78333 12.0833L9.41667 5.83333H10.5833L12.225 12.0833L13.5 5.83333H14.9167L12.9167 14.1667ZM15.8333 2.5H4.16667C3.24167 2.5 2.5 3.24167 2.5 4.16667V15.8333C2.5 16.2754 2.67559 16.6993 2.98816 17.0118C3.30072 17.3244 3.72464 17.5 4.16667 17.5H15.8333C16.2754 17.5 16.6993 17.3244 17.0118 17.0118C17.3244 16.6993 17.5 16.2754 17.5 15.8333V4.16667C17.5 3.24167 16.75 2.5 15.8333 2.5Z" fill="#185ABC"/>
</svg>
