<svg width="66" height="54" viewBox="0 0 66 54" fill="none" xmlns="http://www.w3.org/2000/svg">
<g clip-path="url(#clip0_3814_21)">
<path d="M64.988 21.2502C64.3374 19.6492 63.0362 18.1209 61.4459 17.0292C56.8916 14.1182 50.0242 13.8998 45.3254 16.5198C42.7952 17.8298 41.1326 20.4497 40.5543 23.0697C39.6145 27.4362 39.8314 32.6761 43.229 35.9511C47.1326 39.3715 52.8434 40.1721 57.9037 38.7166C58.1205 38.6438 58.9157 38.4982 59.4218 38.2071L59.5663 38.1343C61.1567 37.4794 62.6025 36.3877 63.7591 34.9322C66.3615 31.2206 66.5061 25.544 64.988 21.2502ZM56.7471 31.075C56.6025 31.8756 56.0242 32.7489 55.1567 33.1128C53.7832 33.695 51.9037 33.5494 50.6025 32.8217C49.5181 32.0939 49.3736 30.7839 49.229 29.5467C49.1567 27.1451 48.9398 24.6707 49.5904 22.4874C50.0965 21.1047 51.5422 20.8136 52.8434 20.668C54.2169 20.668 55.5181 20.8864 56.3856 21.978C56.8916 22.7785 56.8916 23.7974 56.9639 24.7435C56.8916 26.7812 57.1085 29.1101 56.7471 31.075Z" fill="#2B55A2"/>
<path d="M15.3976 33.259C14.241 33.1863 12.9398 33.259 11.8554 33.1863V21.1054L11.9277 21.0326H15.3976C15.4699 19.0677 15.4699 16.9571 15.3253 15.1377L2.24096 14.9922L0.0722833 15.065C0.0722833 16.8844 0.0722833 18.9949 0.0722833 20.8871C1.22891 20.9598 2.38554 20.8871 3.54216 20.9598V32.6768V33.1863L0.0722833 33.259C-5.88037e-06 35.1512 -5.88037e-06 37.0434 0.0722833 38.9356H15.4699V33.259H15.3976Z" fill="#2B55A2"/>
<path d="M54.1446 41.4823C52.6988 43.5928 50.8193 45.6306 48.7952 47.2316C48.7229 47.3044 48.506 47.3044 48.4337 47.2316C47.5663 46.6494 46.6265 46.2128 45.759 45.7033C46.8434 44.3934 47.9277 43.0106 48.7952 41.5551H47.7108C46.8434 42.8651 45.9036 44.175 44.8193 45.3395C43.3012 44.6845 41.8554 44.175 40.3373 43.7384L40.1928 43.5928C40.4096 42.8651 40.9157 42.2101 41.0602 41.5551H40.1205L39.1807 43.4473C37.1566 43.0106 34.8434 42.7923 32.747 42.6467C32.6747 42.3556 32.747 41.919 32.6747 41.6279H31.7349C31.6626 42.0645 31.8072 42.3556 31.6626 42.7195C29.494 42.7923 27.3976 43.0834 25.3735 43.4473L24.3614 41.4823C24 41.4823 23.6385 41.4095 23.4217 41.5551L24.2891 43.5928L24.1446 43.6656C22.5542 44.1023 21.0361 44.6845 19.5181 45.2667L19.3735 45.1939C18.3614 44.1023 17.4217 42.9378 16.6988 41.7734C16.5542 41.1912 15.8313 41.5551 15.4699 41.4823C16.3373 43.0106 17.4217 44.3206 18.506 45.7033C17.5663 46.2856 16.6265 46.8678 15.6144 47.3044C13.5181 45.7033 11.5663 43.6656 10.1205 41.4823C9.68674 41.4095 9.39758 41.4095 9.03613 41.4823C11.5663 45.4122 15.4699 48.9055 19.5181 50.9432C19.5181 50.9432 19.5181 50.9432 19.5904 50.9432C19.5904 50.9432 19.6626 51.016 19.5904 51.016C22.3373 52.326 25.3012 53.3449 28.4096 53.7087C39.1084 55.0915 49.3012 50.5066 55.2289 41.4823C54.9397 41.4823 54.4337 41.4823 54.1446 41.4823ZM39.6144 44.6117L39.6867 44.5389C41.2048 44.9028 42.6506 45.3395 43.9518 45.9944C42.8675 47.3044 41.4217 48.3961 40.0482 49.2694C39.253 49.7788 38.4578 50.2882 37.5903 50.6521L36.1446 50.0699L36.2169 49.8516C37.5181 48.1777 38.6024 46.4311 39.6144 44.6117ZM32.747 43.5928C34.7711 43.6656 36.7229 43.8112 38.6024 44.2478V44.3206C37.6626 46.2128 36.4337 47.9594 35.0602 49.6333C34.4819 49.706 33.9036 49.4877 33.3253 49.4149L32.747 49.3422C32.6747 47.3772 32.6024 45.6306 32.747 43.5928ZM26.0241 44.175C27.8313 43.8112 29.7108 43.5201 31.6626 43.5201L31.7349 49.3422C31.012 49.4877 30.2169 49.4877 29.494 49.706C28.0482 48.0322 26.8916 46.2128 25.8795 44.3206L26.0241 44.175ZM20.3855 46.0672C21.759 45.4122 23.2048 44.9028 24.6506 44.5389H24.7952C25.8072 46.4311 27.0361 48.2505 28.3373 49.9971C27.8313 50.2882 27.253 50.4338 26.747 50.7249C24.4337 49.5605 22.265 48.0322 20.3855 46.0672ZM24.8675 51.9621C21.9036 51.2343 19.2289 49.9244 16.6988 48.105V48.0322C17.5663 47.5228 18.3614 46.9405 19.3012 46.5767C21.3253 48.5416 23.3494 49.9971 25.5904 51.4527C25.3735 51.5982 25.0843 51.8166 24.8675 51.9621ZM37.8072 52.3988C34.1205 53.1993 30 53.1993 26.3132 52.326C26.241 52.1804 26.4578 52.1077 26.6024 52.0349C29.8554 49.9244 34.9157 49.9244 38.0964 52.1804C38.1687 52.3988 37.8795 52.326 37.8072 52.3988ZM41.1325 51.4527L39.4699 51.9621C39.1807 51.8166 38.9638 51.5982 38.6747 51.3799L38.747 51.3071C40.9879 49.9971 43.012 48.3961 44.8916 46.5039C45.8313 46.8678 46.7711 47.3772 47.5663 47.9594C45.6867 49.5605 43.4458 50.5794 41.1325 51.4527Z" fill="#2B55A2"/>
<path d="M10.1205 12.3718C10.988 11.2074 11.9277 10.043 12.9398 8.95135C13.8795 8.07804 14.6747 7.2775 15.6868 6.62251C16.6265 7.20472 17.6386 7.71416 18.506 8.22359C17.4217 9.53356 16.3374 10.9163 15.5422 12.3718C15.759 12.4446 16.2651 12.4446 16.5542 12.3718C17.4217 11.0619 18.3615 9.82467 19.5181 8.66025C21.0362 9.24246 22.4819 9.82467 24 10.1886L24.1446 10.3341L23.1325 12.3718C23.494 12.4446 23.7831 12.4446 24.1446 12.3718C24.4337 11.7896 24.7229 11.1346 25.0843 10.5524C27.1084 10.9891 29.2048 11.2074 31.3735 11.2802C31.6627 11.4985 31.4458 12.008 31.5181 12.3718H32.5301C32.6024 12.008 32.5301 11.6441 32.6024 11.353C34.6265 11.2802 36.7229 11.0619 38.6747 10.5524L38.8193 10.6252L39.759 12.4446C40.0482 12.4446 40.4819 12.5174 40.7711 12.3718L39.9036 10.4069L39.9759 10.3341C41.5663 9.89745 43.0844 9.31524 44.6024 8.66025C45.6868 9.82467 46.6988 11.1346 47.6386 12.4446C48 12.4446 48.4337 12.5174 48.6506 12.3718C48.2169 11.6441 47.7108 10.8435 47.1325 10.1886C46.6988 9.53356 46.1928 8.95135 45.6145 8.29637V8.15082L48.0723 6.76807L48.4337 6.54974C50.5301 8.15082 52.4096 10.1158 53.9277 12.2991C54.3615 12.2991 54.7229 12.4446 55.0121 12.2991C50.3855 5.23976 42.6506 0.727634 34.3374 0.0726478L34.2651 0.145424L34.1928 0.0726478C33.253 -0.000128511 32.0964 -0.0729048 31.0843 -0.000128513C30.7229 -0.000128513 30.2169 -0.000128511 29.7831 0.0726478C21.4699 0.727634 13.8072 5.09421 8.96387 12.3718C9.32531 12.3718 9.75905 12.5174 10.1205 12.3718ZM24.5783 9.31524H24.4337C22.988 8.95135 21.6145 8.5147 20.3133 7.93249L20.3856 7.71416C22.3374 5.89475 24.2892 4.36645 26.5301 3.20203C27.0362 3.42036 27.5422 3.56591 28.1205 3.85701L28.0482 4.14812C26.6747 5.82197 25.5904 7.5686 24.5783 9.31524ZM31.5181 10.2613C30.5783 10.4069 29.6386 10.2613 28.6988 10.1886C27.759 10.043 26.6024 9.97022 25.6627 9.60634C26.6747 7.71416 27.8313 5.89475 29.2771 4.2209L31.5181 4.512C31.5904 6.33141 31.5181 8.36914 31.5181 10.2613ZM32.6024 10.3341C32.5301 8.5147 32.6024 6.47696 32.6024 4.58478C33.3253 4.512 34.0482 4.36645 34.7711 4.29367C36.1446 6.0403 37.4458 7.78693 38.3855 9.67912C36.4337 10.043 34.5542 10.3341 32.6024 10.3341ZM43.7349 7.85971C42.3615 8.44192 40.988 9.02413 39.4699 9.31524C38.3855 7.49583 37.2289 5.67642 35.8554 3.92979C36.3615 3.63869 36.9398 3.42036 37.4458 3.20203C39.6868 4.36645 41.9277 5.96753 43.7349 7.78693V7.85971ZM39.253 1.96483C42.2169 2.69259 44.9639 4.00257 47.4217 5.82197L47.3494 5.96753L44.9639 7.2775H44.8193C42.9398 5.38532 40.8434 3.78424 38.6024 2.54704C38.6747 2.32871 38.9639 2.18316 39.253 1.96483ZM37.8072 1.67373C34.7711 3.92979 29.8554 4.14812 26.6747 2.11038C26.5301 1.96483 26.1687 1.89205 26.0964 1.67373C29.8554 0.800411 34.1928 0.727634 37.8072 1.67373ZM16.5542 5.89475C18.7229 4.29367 21.1807 3.05648 23.7831 2.25594C23.8554 2.18316 23.9277 2.03761 24.0723 2.03761V2.11038C24.3615 2.18316 24.5783 1.89205 24.7952 2.03761C25.0121 2.18316 25.2289 2.32871 25.4458 2.54704C23.2771 3.85701 21.1807 5.45809 19.2289 7.42305C18.2892 7.13195 17.4217 6.54974 16.5542 5.89475Z" fill="#2B55A2"/>
<path d="M31.518 33.4769C28.265 34.3503 24.6505 33.6953 22.3373 31.2209C22.0481 30.857 21.9035 30.4931 21.6144 30.1292H16.9156C16.8433 32.8947 16.8433 36.0969 16.9156 38.8624H22.1204L22.1927 37.1885C22.771 37.4796 23.3493 37.8435 23.9999 38.1346C27.6144 39.6629 32.3132 40.0268 35.8553 38.1346C38.4577 36.6791 39.8312 33.9136 39.4698 30.857C39.1083 27.9459 36.2891 25.2532 33.4698 24.5255L25.012 22.0511L24.4336 21.8327C24.1445 21.6144 23.9999 21.2505 24.0722 20.8866C24.7228 19.7222 26.2409 20.0861 27.3975 20.1589C29.8553 20.5228 32.3132 21.3233 33.759 23.5794C35.277 23.5794 37.0843 23.5794 38.7469 23.5066C38.8192 20.6683 38.7469 18.1939 38.6746 15.3556C37.0843 15.2829 35.2047 15.2829 33.6144 15.4284C33.5421 15.8651 33.6867 16.4473 33.5421 16.8112L31.9517 15.9379C28.1204 14.3368 22.771 14.1184 19.2288 16.6656C16.9879 18.3395 16.265 21.3233 16.8433 23.8705C17.277 26.3449 19.6626 28.1643 21.9035 29.0376C25.012 30.1292 28.265 30.9298 31.3734 32.0214C31.6626 32.167 32.0963 32.4581 32.024 32.8219C32.0963 33.1858 31.8071 33.4042 31.518 33.4769Z" fill="#2B55A2"/>
</g>
<defs>
<clipPath id="clip0_3814_21">
<rect width="66" height="54" fill="white"/>
</clipPath>
</defs>
</svg>
