<svg width="40" height="40" viewBox="0 0 40 40" fill="none" xmlns="http://www.w3.org/2000/svg">
<g clip-path="url(#clip0_549_880)">
<path d="M21.3018 4.79613C22.063 4.34648 22.5805 3.52646 22.5805 2.58064C22.5805 1.15736 21.4232 0 19.9999 0C18.5766 0 17.4193 1.15736 17.4193 2.58064C17.4193 3.52646 17.9366 4.34648 18.698 4.79613C17.5671 5.29808 16.7742 6.42709 16.7742 7.74191V8.38714C16.7742 8.74333 17.0625 9.03236 17.4194 9.03236H19.3549V13.5485H20.645V9.03223H22.5805C22.9373 9.03223 23.2257 8.7432 23.2257 8.387V7.74191C23.2256 6.42709 22.4327 5.29808 21.3018 4.79613ZM19.9999 1.29032C20.7115 1.29032 21.2902 1.86907 21.2902 2.58064C21.2902 3.2922 20.7115 3.87095 19.9999 3.87095C19.2883 3.87095 18.7096 3.2922 18.7096 2.58064C18.7096 1.86907 19.2882 1.29032 19.9999 1.29032ZM18.0643 7.74191C18.0643 6.67483 18.9327 5.80636 19.9999 5.80636C21.0671 5.80636 21.9354 6.6747 21.9354 7.74191H18.0643Z" fill="#333333"/>
<path d="M1.28987 13.549H6.45114C6.80789 13.549 7.09637 13.2599 7.09637 12.9037V12.8185L13.8351 17.3115L14.5505 16.2379L6.8789 11.1237C6.57308 10.3159 5.95758 9.66177 5.17183 9.31273C5.93377 8.86308 6.45114 8.04306 6.45114 7.09724C6.45114 5.67397 5.29377 4.5166 3.8705 4.5166C2.44723 4.5166 1.28987 5.67397 1.28987 7.09724C1.28987 8.04306 1.80723 8.86308 2.56862 9.31273C1.43768 9.81468 0.644775 10.9437 0.644775 12.2585V12.9037C0.644638 13.2599 0.933119 13.549 1.28987 13.549ZM3.8705 5.80706C4.58207 5.80706 5.16082 6.38581 5.16082 7.09738C5.16082 7.80894 4.58207 8.38769 3.8705 8.38769C3.15893 8.38769 2.58018 7.80894 2.58018 7.09738C2.58018 6.38581 3.1588 5.80706 3.8705 5.80706ZM3.8705 10.3231C4.93758 10.3231 5.80605 11.1914 5.80605 12.2586H1.93496C1.93496 11.1914 2.80343 10.3231 3.8705 10.3231Z" fill="#333333"/>
<path d="M37.4297 9.31273C38.1909 8.86308 38.7084 8.04306 38.7084 7.09724C38.7084 5.67397 37.5511 4.5166 36.1278 4.5166C34.7045 4.5166 33.5472 5.67397 33.5472 7.09724C33.5472 8.04306 34.0645 8.86308 34.8259 9.31273C34.0402 9.66177 33.4247 10.3159 33.1189 11.1237L25.4473 16.2379L26.1627 17.3115L32.9021 12.8185V12.9037C32.9021 13.2599 33.1904 13.549 33.5473 13.549H38.7086C39.0653 13.549 39.3538 13.2599 39.3538 12.9037V12.2585C39.3535 10.9437 38.5606 9.81468 37.4297 9.31273ZM36.1277 5.80706C36.8392 5.80706 37.418 6.38581 37.418 7.09738C37.418 7.80894 36.8392 8.38769 36.1277 8.38769C35.4161 8.38769 34.8373 7.80894 34.8373 7.09738C34.8373 6.38581 35.4161 5.80706 36.1277 5.80706ZM34.1923 12.2586C34.1923 11.1916 35.0606 10.3231 36.1278 10.3231C37.1949 10.3231 38.0634 11.1914 38.0634 12.2586H34.1923Z" fill="#333333"/>
<path d="M37.43 27.3772C38.1912 26.9282 38.7087 26.1082 38.7087 25.1617C38.7087 23.7384 37.5514 22.5811 36.1281 22.5811C34.7048 22.5811 33.5475 23.7384 33.5475 25.1617C33.5475 26.1082 34.0648 26.9281 34.8262 27.3772C34.4695 27.5359 34.1456 27.7546 33.8708 28.0249L26.1733 22.6958L25.4385 23.7571L33.1482 29.0946C32.9914 29.4734 32.9024 29.8875 32.9024 30.323V30.9682C32.9024 31.325 33.1907 31.6134 33.5476 31.6134H38.7089C39.0656 31.6134 39.3541 31.3251 39.3541 30.9682V30.323C39.3538 29.0082 38.5609 27.8791 37.43 27.3772ZM36.128 23.8715C36.8395 23.8715 37.4183 24.4503 37.4183 25.1618C37.4183 25.8734 36.8395 26.4522 36.128 26.4522C35.4164 26.4522 34.8376 25.8734 34.8376 25.1618C34.8376 24.4503 35.4164 23.8715 36.128 23.8715ZM34.1925 30.3231C34.1925 29.256 35.0609 28.3876 36.1281 28.3876C37.1952 28.3876 38.0636 29.2559 38.0636 30.3231H34.1925Z" fill="#333333"/>
<path d="M21.3009 35.7633C22.0622 35.3144 22.5797 34.4944 22.5797 33.5479C22.5797 32.3485 21.7546 31.3472 20.6441 31.0589V26.4512H19.3538V31.0589C18.2435 31.3472 17.4183 32.3485 17.4183 33.5479C17.4183 34.4944 17.9357 35.3142 18.697 35.7633C17.5661 36.2653 16.7732 37.3943 16.7732 38.7091V39.3544C16.7732 39.7111 17.0615 39.9996 17.4184 39.9996H22.5797C22.9364 39.9996 23.2249 39.7112 23.2249 39.3544V38.7091C23.2248 37.3943 22.4319 36.2653 21.3009 35.7633ZM19.9991 32.2575C20.7106 32.2575 21.2894 32.8363 21.2894 33.5479C21.2894 34.2594 20.7106 34.8382 19.9991 34.8382C19.2875 34.8382 18.7087 34.2594 18.7087 33.5479C18.7087 32.8363 19.2874 32.2575 19.9991 32.2575ZM18.0635 38.7091C18.0635 37.6421 18.9318 36.7736 19.9991 36.7736C21.0663 36.7736 21.9346 37.6419 21.9346 38.7091H18.0635Z" fill="#333333"/>
<path d="M13.826 22.6949L6.12852 28.0239C5.85367 27.7536 5.52982 27.5349 5.17307 27.3762C5.93377 26.9271 6.45114 26.1072 6.45114 25.1607C6.45114 23.7374 5.29377 22.5801 3.8705 22.5801C2.44723 22.5801 1.28987 23.7374 1.28987 25.1607C1.28987 26.1072 1.80723 26.9271 2.56862 27.3762C1.43768 27.8782 0.644775 29.0072 0.644775 30.322V30.9671C0.644775 31.3238 0.933119 31.6123 1.29 31.6123H6.45128C6.80802 31.6123 7.0965 31.324 7.0965 30.9671V30.3218C7.0965 29.8864 7.00745 29.4722 6.85069 29.0935L14.5604 23.756L13.826 22.6949ZM3.8705 23.8704C4.58207 23.8704 5.16082 24.4491 5.16082 25.1607C5.16082 25.8723 4.58207 26.451 3.8705 26.451C3.15893 26.451 2.58018 25.8723 2.58018 25.1607C2.58018 24.4491 3.1588 23.8704 3.8705 23.8704ZM1.93496 30.322C1.93496 29.2549 2.80329 28.3864 3.8705 28.3864C4.93772 28.3864 5.80605 29.2548 5.80605 30.322H1.93496Z" fill="#333333"/>
<path d="M19.9992 27.0969C16.0862 27.0969 12.9023 23.9131 12.9023 20.0001C12.9023 16.0872 16.0862 12.9033 19.9992 12.9033C23.9121 12.9033 27.096 16.0872 27.096 20.0001C27.096 23.9131 23.912 27.0969 19.9992 27.0969Z" fill="#5199FF"/>
<path d="M21.3018 19.635C22.063 19.1853 22.5805 18.3653 22.5805 17.4195C22.5805 15.9962 21.4232 14.8389 19.9999 14.8389C18.5766 14.8389 17.4193 15.9962 17.4193 17.4195C17.4193 18.3653 17.9366 19.1853 18.698 19.635C17.5671 20.1369 16.7742 21.266 16.7742 22.5808V23.226C16.7742 23.5828 17.0625 23.8712 17.4194 23.8712H22.5807C22.9374 23.8712 23.2259 23.5829 23.2259 23.226V22.5808C23.2256 21.266 22.4327 20.1369 21.3018 19.635ZM19.9999 16.1293C20.7115 16.1293 21.2902 16.7081 21.2902 17.4196C21.2902 18.1312 20.7115 18.71 19.9999 18.71C19.2883 18.71 18.7096 18.1312 18.7096 17.4196C18.7096 16.7081 19.2882 16.1293 19.9999 16.1293ZM18.0643 22.5809C18.0643 21.5138 18.9327 20.6454 19.9999 20.6454C21.0671 20.6454 21.9354 21.5137 21.9354 22.5809H18.0643Z" fill="#333333"/>
</g>
<defs>
<clipPath id="clip0_549_880">
<rect width="40" height="40" fill="white"/>
</clipPath>
</defs>
</svg>
