<svg width="168" height="72" viewBox="0 0 168 72" fill="none" xmlns="http://www.w3.org/2000/svg">
<g clip-path="url(#clip0_560_144)">
<g clip-path="url(#clip1_560_144)">
<path fill-rule="evenodd" clip-rule="evenodd" d="M45.5806 39.9984C47.0432 42.3874 49.7248 43.9964 52.6988 43.9964C57.0868 43.9964 59.5246 40.1934 59.5246 40.1934L59.8171 41.2173C57.7694 43.8501 54.1127 45.459 50.0661 45.459C45.3856 45.459 41.3389 43.2163 39.4862 39.9984C38.8036 38.7795 38.4136 37.4144 38.4136 36.0005C38.4136 30.7837 43.6304 26.542 50.1148 26.542C54.6978 26.542 58.3544 28.4922 60.3047 31.32L52.6013 35.903L56.9893 29.1748C55.7217 28.3947 54.2103 27.6634 52.6013 27.6634C48.1159 27.6634 44.4105 31.4175 44.4105 35.903C44.4105 37.3656 44.8493 38.7795 45.5806 39.9984Z" fill="#D24A43"/>
<path fill-rule="evenodd" clip-rule="evenodd" d="M66.0578 39.9989C66.0578 40.1451 66.0091 40.2914 66.0091 40.4377C66.0091 42.1441 67.3742 43.5092 69.0807 43.5092C70.7871 43.5092 72.1522 42.1441 72.1522 40.4377C72.1522 40.2914 72.1522 40.1451 72.1035 39.9501C71.8597 38.4875 70.5921 37.3173 69.0807 37.3173C67.5693 37.3661 66.3016 38.5362 66.0578 39.9989ZM77.5153 39.9989L79.0267 45.1669H73.6637L72.591 41.6565C71.8597 43.7043 69.5195 45.1669 66.6429 45.1669C63.23 45.1669 60.4998 43.0217 60.4998 40.3889C60.4998 40.2426 60.4998 40.1451 60.4998 39.9989C60.7435 37.5124 63.3763 35.5621 66.6429 35.5621C68.4956 35.5621 70.1045 36.196 71.2747 37.1711L69.812 32.2955H63.6688C63.6688 32.2955 64.6927 31.6617 69.2269 30.004C73.7612 28.3464 75.2238 32.2955 75.2238 32.2955L77.5153 39.9989Z" fill="#D24A43"/>
<path fill-rule="evenodd" clip-rule="evenodd" d="M94.6769 39.9981V45.1662H89.1676V39.9981V33.8062C89.1676 32.9774 88.485 32.2948 87.6562 32.2948C87.0224 32.2948 86.4861 32.6849 86.2423 33.2699V39.9981V45.1662H80.8305V39.9981V32.2948H77.6614C77.6614 32.2948 82.0493 29.6133 83.6095 29.6133C85.0722 29.6133 86.1448 30.7346 86.2423 32.1486C88.3875 30.9784 90.484 29.6133 91.9467 29.6133C93.4581 29.6133 94.6769 30.8322 94.7257 32.2948V39.9981H94.6769Z" fill="#D24A43"/>
<path fill-rule="evenodd" clip-rule="evenodd" d="M103.209 39.9981L103.989 42.5333C103.989 43.6059 104.916 44.4835 105.988 44.4835C107.11 44.4835 108.036 43.5572 108.036 42.4358C108.036 42.3383 108.036 42.2896 108.036 42.192L107.402 39.9493L105.111 32.0997C105.013 31.0759 104.136 30.2958 103.112 30.2958C102.088 30.2958 101.064 31.2709 100.967 32.246L103.209 39.9981ZM111.985 39.9981C110.961 43.1671 107.939 45.4586 104.428 45.4586C100.918 45.4586 97.8951 43.1671 96.8712 39.9981C96.6275 39.218 96.4812 38.3891 96.4812 37.5115C96.4812 33.1236 100.04 29.5645 104.428 29.5645C108.816 29.5645 112.375 33.1236 112.375 37.5115C112.375 38.3891 112.278 39.218 111.985 39.9981Z" fill="#D24A43"/>
<path fill-rule="evenodd" clip-rule="evenodd" d="M121.151 39.9981V45.1662H115.739V39.9981V32.2948H112.716C112.716 32.2948 117.007 29.6133 118.518 29.6133C119.981 29.6133 121.053 30.7346 121.151 32.1486C123.296 30.9784 125.393 29.6133 126.855 29.6133C128.367 29.6133 129.586 30.8322 129.634 32.2948V39.9494V45.1174H124.125V39.9494V33.8062C124.125 32.9774 123.442 32.2948 122.614 32.2948C121.98 32.2948 121.443 32.6849 121.2 33.2699V39.9981H121.151Z" fill="#D24A43"/>
</g>
</g>
<defs>
<clipPath id="clip0_560_144">
<rect width="168" height="72" fill="white"/>
</clipPath>
<clipPath id="clip1_560_144">
<rect width="92" height="20" fill="white" transform="translate(38 26)"/>
</clipPath>
</defs>
</svg>
