<svg width="168" height="72" viewBox="0 0 168 72" fill="none" xmlns="http://www.w3.org/2000/svg">
<g clip-path="url(#clip0_560_130)">
<g clip-path="url(#clip1_560_130)">
<path d="M101.722 20.2738V21.6176H113.291C114.058 21.6176 115.216 21.6176 115.986 22.3957C116.756 23.1739 116.756 24.3198 116.756 25.0943V36.6556C116.756 37.4227 116.756 38.5853 115.986 39.3524C115.216 40.1194 114.058 40.125 113.291 40.125H107.695C106.733 40.125 105.479 40.125 104.997 39.0622C104.515 37.9994 105.181 37.0401 105.769 36.2693L113.282 26.255H101.722L97.1047 32.4211C96.3364 33.4543 95.6641 34.3452 95.6641 35.5004C95.6641 36.6556 96.2809 37.4929 97.1047 38.5871L98.2664 40.1268C99.4134 41.6665 100.573 43.2117 102.112 43.9843C103.65 44.7569 105.484 44.7513 107.991 44.7513H112.999C115.884 44.7513 120.225 44.7513 123.11 41.8642C125.995 38.9771 125.998 34.7315 125.998 33.1863V28.5655C125.998 27.0239 125.998 22.7839 123.11 19.8968C120.221 17.0097 115.886 17.0078 112.999 17.0078H105.002C104.236 17.0078 103.268 17.0078 102.501 17.7749C101.735 18.5419 101.72 19.5049 101.72 20.2794" fill="#D35243"/>
<path d="M86.8818 26.2529H98.4363L84.5695 44.7529H73.0168L86.8818 26.2529Z" fill="#D35243"/>
<path d="M41 29.5209C41 28.7538 41 27.789 41.7683 27.0164C42.5367 26.2438 43.5008 26.2549 44.2746 26.2549H63.6287C66.1332 26.2549 67.9672 26.2549 69.502 27.0164C71.0368 27.7779 72.2022 29.3342 73.364 30.8739L74.5128 32.4209C75.331 33.5115 75.9589 34.3451 75.9589 35.5003C75.9589 36.6555 75.2885 37.5519 74.5128 38.587L69.8954 44.7549H58.3299L65.8432 34.7295C66.4232 33.9625 67.0955 32.9995 66.6171 31.933C66.1387 30.8665 64.8791 30.872 63.9132 30.872H54.8724V54.0003H45.6377V30.872H41.0203V29.5209" fill="#D35243"/>
</g>
</g>
<defs>
<clipPath id="clip0_560_130">
<rect width="168" height="72" fill="white"/>
</clipPath>
<clipPath id="clip1_560_130">
<rect width="85" height="37" fill="white" transform="translate(41 17)"/>
</clipPath>
</defs>
</svg>
