<svg width="302" height="96" viewBox="0 0 302 96" fill="none" xmlns="http://www.w3.org/2000/svg">
<path d="M48.0201 95.9996C74.5408 95.9996 96.0401 94.8861 96.0401 93.5125C96.0401 92.1389 74.5408 91.0254 48.0201 91.0254C21.4993 91.0254 0 92.1389 0 93.5125C0 94.8861 21.4993 95.9996 48.0201 95.9996Z" fill="#E6E6E6"/>
<path d="M70.3536 42.4542L67.5928 41.0719L69.8935 34.8519L70.4998 31.715C70.5786 31.3075 70.7628 30.9278 71.034 30.6139C71.3052 30.3 71.654 30.0628 72.0454 29.9262C72.4369 29.7895 72.8573 29.7581 73.2646 29.8351C73.672 29.9121 74.052 30.0948 74.3668 30.3649C74.8332 30.7653 75.1261 31.3314 75.1835 31.9438C75.241 32.5562 75.0587 33.1671 74.6749 33.6474L72.4242 36.4645L70.3536 42.4542Z" fill="#FFB9B9"/>
<path d="M71.2744 41.762L70.7652 43.3579L68.4801 50.5269C68.2564 51.2298 67.835 51.8531 67.2663 52.322C66.6976 52.791 66.0059 53.0857 65.2741 53.1708C64.5424 53.2559 63.8016 53.1278 63.1407 52.8019C62.4798 52.4759 61.9269 51.9659 61.5483 51.3332L54.1404 38.62C54.0219 38.4219 53.9208 38.2138 53.8382 37.9982C53.4802 37.0574 53.498 36.0147 53.888 35.0867C54.2779 34.1587 55.0099 33.4169 55.9319 33.0153C56.8539 32.6137 57.8949 32.5833 58.8388 32.9304C59.7826 33.2775 60.5565 33.9754 60.9998 34.879L65.5223 44.5268L67.5922 39.9195L71.2744 41.762Z" fill="#E6E6E6"/>
<path d="M70.208 88.0708L65.1465 88.5315L62.3857 68.4891C53.2852 70.0222 44.6996 70.5133 37.2735 68.6588C36.646 68.5042 36.0572 68.2214 35.544 67.8282C35.0308 67.4349 34.6044 66.9396 34.2914 66.3735C33.9785 65.8073 33.7858 65.1825 33.7255 64.5382C33.6652 63.894 33.7386 63.2442 33.941 62.6297C34.8298 59.9736 36.3956 57.1274 38.2286 54.2061L50.4222 58.5831L50.8823 60.4261L63.8883 58.7776C64.5451 58.6943 65.212 58.7488 65.8467 58.9375C66.4813 59.1262 67.0698 59.4451 67.5748 59.8737C68.0798 60.3024 68.4902 60.8316 68.7799 61.4277C69.0697 62.0237 69.2325 62.6736 69.2579 63.336L70.208 88.0708Z" fill="#2F2E41"/>
<path d="M75.7202 91.9549C75.7688 91.612 75.7184 91.2624 75.5748 90.9474C75.4313 90.6323 75.2006 90.365 74.9101 90.1772L69.7145 87.624L65.7972 88.1192L64.8721 91.4401C64.833 91.6767 64.8424 91.9189 64.8997 92.1517C64.957 92.3846 65.061 92.6034 65.2055 92.7947C65.3499 92.986 65.5318 93.1459 65.7399 93.2646C65.948 93.3832 66.1781 93.4583 66.4161 93.4851L73.7256 93.5011C74.1936 93.5538 74.6637 93.4218 75.0361 93.1331C75.4085 92.8444 75.6539 92.4218 75.7202 91.9549Z" fill="#2F2E41"/>
<path d="M71.4873 85.5093L66.4258 85.97L63.6649 65.9276C54.5644 67.4607 45.9789 67.9518 38.5528 66.0973C37.9253 65.9427 37.3365 65.6599 36.8233 65.2666C36.3101 64.8734 35.8837 64.3781 35.5707 63.812C35.2578 63.2458 35.0651 62.621 35.0048 61.9767C34.9445 61.3325 35.0179 60.6827 35.2203 60.0682C36.1091 57.4121 37.6749 54.5658 39.5079 51.6445L51.7015 56.0216L52.1616 57.8646L65.1676 56.2161C65.8244 56.1328 66.4913 56.1873 67.1259 56.376C67.7606 56.5647 68.3491 56.8835 68.8541 57.3122C69.359 57.7409 69.7694 58.2701 70.0592 58.8661C70.349 59.4622 70.5117 60.1121 70.5372 60.7745L71.4873 85.5093Z" fill="#2F2E41"/>
<path d="M76.9992 89.3924C77.0479 89.0495 76.9974 88.6999 76.8539 88.3849C76.7103 88.0698 76.4797 87.8025 76.1892 87.6147L70.9935 85.0615L67.0763 85.5567L66.1511 88.8776C66.112 89.1142 66.1214 89.3564 66.1787 89.5892C66.236 89.8221 66.3401 90.0409 66.4845 90.2322C66.629 90.4235 66.8108 90.5833 67.0189 90.702C67.2271 90.8207 67.4571 90.8958 67.6952 90.9226L75.0047 90.9386C75.4727 90.9913 75.9428 90.8593 76.3152 90.5706C76.6876 90.2819 76.9329 89.8593 76.9992 89.3924Z" fill="#2F2E41"/>
<path d="M62.0541 37.1299L54.9219 36.2084L57.6826 27.6846H64.5847L62.0541 37.1299Z" fill="#E6A7A7"/>
<path d="M62.2843 30.6803C65.715 30.6803 68.4962 27.8955 68.4962 24.4603C68.4962 21.025 65.715 18.2402 62.2843 18.2402C58.8536 18.2402 56.0725 21.025 56.0725 24.4603C56.0725 27.8955 58.8536 30.6803 62.2843 30.6803Z" fill="#FFB9B9"/>
<path d="M63.9948 45.7249C63.6331 46.731 63.1086 47.6706 62.4424 48.5063C61.4929 49.6732 60.3521 50.6699 59.0686 51.4535C58.8451 51.5986 58.6133 51.7374 58.3732 51.8742L57.0029 53.0432L52.1616 57.1717L38.8174 52.1043C41.7607 45.5549 45.4326 40.3777 49.6405 36.2076C50.5148 34.9237 51.7611 33.9389 53.2114 33.386C54.6618 32.8331 56.2466 32.7387 57.7522 33.1154L62.7446 34.3651C64.5205 38.5621 65.1808 42.4212 63.9948 45.7249Z" fill="#E6E6E6"/>
<path d="M66.1856 36.29C66.095 36.379 66.0432 36.5002 66.0413 36.6273C66.0395 36.7543 66.0878 36.877 66.1757 36.9686C66.3293 37.0351 69.3735 40.5087 69.5603 40.2696C69.624 40.2703 69.6872 40.2583 69.7462 40.2342C69.8052 40.2101 69.8588 40.1745 69.9039 40.1295L79.1917 30.8697C79.2426 30.8192 79.2815 30.7579 79.3055 30.6903C79.3296 30.6227 79.3382 30.5506 79.3307 30.4793C79.5813 30.244 75.5849 27.8728 75.4628 27.7438C75.3715 27.6836 75.2623 27.6566 75.1534 27.6673C75.0446 27.6781 74.9428 27.7258 74.8649 27.8027L66.1856 36.29Z" fill="#3F3D56"/>
<path d="M78.3956 30.3803L78.0177 30.139C78.0554 30.2101 78.0685 30.2917 78.0548 30.371C78.0411 30.4504 78.0014 30.5229 77.942 30.5771C77.8826 30.6314 77.8069 30.6643 77.7267 30.6707C77.6466 30.6771 77.5666 30.6566 77.4994 30.6124L75.0536 28.9287C74.9988 28.89 74.9559 28.8368 74.9295 28.775C74.9032 28.7133 74.8944 28.6455 74.9043 28.5791C74.9142 28.5126 74.9422 28.4503 74.9854 28.3989C75.0285 28.3475 75.0851 28.3091 75.1487 28.288C75.0519 28.2551 74.8954 28.0582 74.7903 28.1821L66.5625 36.2786C66.2693 36.4215 69.5521 39.2699 69.5538 39.3818C69.7988 39.6553 78.2386 30.5901 78.418 30.5838C78.4319 30.5699 78.4424 30.5531 78.4489 30.5345C78.4554 30.516 78.4576 30.4962 78.4555 30.4767C78.4533 30.4572 78.4468 30.4384 78.4365 30.4217C78.4261 30.405 78.4122 30.3909 78.3956 30.3803Z" fill="white"/>
<path d="M68.8997 34.4905L71.4236 36.8733L77.4273 30.934L74.3803 28.9482L68.8997 34.4905Z" fill="#5199FF"/>
<path d="M77.1933 32.3998C77.2099 32.4157 77.2321 32.4245 77.2551 32.4245C77.2781 32.4245 77.3002 32.4157 77.3169 32.3998C77.3445 32.3229 77.9853 31.8555 77.8418 31.7504C77.8252 31.7345 77.8031 31.7256 77.7801 31.7256C77.757 31.7256 77.7349 31.7344 77.7183 31.7503C77.6906 31.8273 77.0498 32.2946 77.1933 32.3998Z" fill="#E6E6E6"/>
<path d="M76.4329 33.2864C76.4605 33.2094 77.1014 32.7421 76.9578 32.6369C76.8509 32.4945 76.3883 33.1334 76.3093 33.1626C76.2279 33.2418 76.354 33.3675 76.4329 33.2864Z" fill="#E6E6E6"/>
<path d="M69.5475 36.5364C69.5586 37.3024 68.357 37.3025 68.3682 36.5364C68.3571 35.7704 69.5587 35.7704 69.5475 36.5364Z" fill="#5199FF"/>
<path opacity="0.2" d="M62.4422 48.5071C61.4927 49.674 60.3519 50.6707 59.0684 51.4543C58.8449 51.5994 58.6131 51.7383 58.373 51.875L57.0027 53.044C54.283 49.4646 54.4361 38.5898 54.4361 38.5898L58.5758 39.0044L62.4422 48.5071Z" fill="black"/>
<path d="M70.5665 45.6544L67.8057 44.2721L70.1063 38.0521L70.7127 34.9152C70.7914 34.5077 70.9756 34.128 71.2469 33.8141C71.5181 33.5002 71.8669 33.263 72.2583 33.1264C72.6497 32.9897 73.0701 32.9583 73.4775 33.0353C73.8849 33.1123 74.2649 33.295 74.5796 33.5651C75.0461 33.9654 75.3389 34.5316 75.3964 35.144C75.4539 35.7564 75.2715 36.3672 74.8877 36.8476L72.637 39.6647L70.5665 45.6544Z" fill="#FFB9B9"/>
<path d="M67.8056 43.1205L71.4867 44.9635L68.6932 53.7283C68.4925 54.3577 68.1329 54.9245 67.6492 55.3738C67.1654 55.823 66.574 56.1395 65.9321 56.2926C65.1407 56.4812 64.3098 56.4126 63.5599 56.0967C62.8101 55.7807 62.1802 55.2338 61.7616 54.5352L54.3539 41.8213C53.829 40.9452 53.6669 39.8983 53.9024 38.9042C54.1379 37.9101 54.7523 37.0476 55.6143 36.5009C56.0779 36.2069 56.5981 36.014 57.1411 35.9346C57.6841 35.8552 58.2377 35.8912 58.7659 36.0403C59.2941 36.1893 59.7851 36.4481 60.2068 36.7997C60.6285 37.1513 60.9716 37.5879 61.2136 38.081L65.735 47.728L67.8056 43.1205Z" fill="#E6E6E6"/>
<path d="M64.6227 22.0373C65.1289 22.46 65.7002 22.7977 66.3145 23.037C66.9381 23.2467 67.6621 23.2511 68.2188 22.9002C68.8752 22.4863 69.1748 21.6456 69.1076 20.8718C69.0403 20.0979 68.6611 19.3839 68.2083 18.7532C67.3744 17.592 66.2781 16.6447 65.0088 15.9886C63.7396 15.3326 62.3333 14.9866 60.905 14.9787C59.4766 14.9707 58.0666 15.3012 56.7902 15.9432C55.5137 16.5851 54.407 17.5202 53.5604 18.6722C52.9793 19.4629 52.5187 20.3811 52.4683 21.3616C52.3795 23.0896 53.5603 24.7027 53.4341 26.4284C53.3273 27.8879 52.2811 29.1382 51.042 29.9143C49.8028 30.6903 48.3709 31.0838 46.9854 31.5498C45.6 32.0159 44.1989 32.591 43.1735 33.6338C42.1481 34.6766 41.5825 36.2948 42.1454 37.6454C42.6079 38.7552 43.7069 39.461 44.8089 39.939C47.764 41.206 51.0832 41.3307 54.1248 40.2891C55.2462 39.8999 56.4707 39.121 56.4877 37.9328C56.4951 37.417 56.2633 36.9328 56.1241 36.4362C55.9849 35.9396 55.9589 35.3473 56.308 34.9681C56.7409 34.4977 57.5411 34.606 58.0585 34.9812C58.576 35.3563 58.9124 35.9253 59.3394 36.4011C60.15 37.3047 61.3789 37.8819 62.5799 37.7117C63.7809 37.5415 64.8665 36.517 64.9161 35.3035C65.0015 33.2187 62.3931 31.9135 62.1095 29.8464C61.9201 28.4659 62.8177 27.2029 63.5955 26.0473C64.3733 24.8918 65.0968 23.444 64.5523 22.1615" fill="#2F2E41"/>
<path d="M31.1511 70.8176C30.2972 70.8172 29.4566 70.6053 28.7042 70.2007C27.9519 69.7961 27.3112 69.2114 26.8392 68.4988C26.3672 67.7862 26.0786 66.9677 25.9991 66.1163C25.9195 65.2649 26.0516 64.407 26.3835 63.6191L27.1459 63.9422C26.8129 64.7334 26.7209 65.6055 26.8815 66.4489C27.042 67.2923 27.448 68.0693 28.0482 68.6824C28.6485 69.2955 29.4164 69.7172 30.2553 69.8946C31.0943 70.072 31.9669 69.9971 32.7634 69.6794L33.0707 70.4493C32.4602 70.6937 31.8086 70.8187 31.1511 70.8176Z" fill="#3F3D56"/>
<path d="M25.7687 65.3955C25.1862 65.3767 24.6338 65.1317 24.2283 64.7124C23.8229 64.2932 23.5962 63.7324 23.5962 63.1488V25.9464C23.7913 25.7507 24.0262 25.5995 24.285 25.5029C24.5437 25.4064 24.8202 25.3668 25.0956 25.3869C25.371 25.407 25.6389 25.4863 25.8809 25.6194C26.123 25.7525 26.3335 25.9362 26.4983 26.1581C37.0789 40.4842 37.5449 53.3309 27.52 64.6431C27.3011 64.8895 27.0307 65.0845 26.728 65.2146C26.4254 65.3446 26.0979 65.4064 25.7687 65.3955Z" fill="#5199FF"/>
<path d="M23.2856 63.1499V26.0508C23.4741 26.051 23.6591 26.1016 23.8216 26.1972C23.984 26.2929 24.118 26.4303 24.2098 26.5951C29.0249 35.2494 32.597 42.1066 32.4994 48.3211C32.4123 53.8708 28.5187 56.4331 25.1223 62.1117C24.9317 62.4288 24.6624 62.6911 24.3405 62.873C24.0187 63.055 23.6552 63.1503 23.2856 63.1499Z" fill="#3F3D56"/>
<path d="M39.1196 70.7143H32.7031V69.0563L37.8777 67.6055L39.1196 70.7143Z" fill="#3F3D56"/>
<path d="M36.8425 69.0557H53.8152C53.8152 69.9901 53.4444 70.8863 52.7845 71.5471C52.1247 72.2078 51.2297 72.5791 50.2964 72.5791H40.3612C39.428 72.5791 38.533 72.2078 37.8731 71.5471C37.2133 70.8863 36.8425 69.9901 36.8425 69.0557Z" fill="#3F3D56"/>
<path d="M47.1919 72.165H44.915V74.0303H47.1919V72.165Z" fill="#3F3D56"/>
<path d="M48.2268 73.6162H44.0872V79.2122H48.2268V73.6162Z" fill="#3F3D56"/>
<path d="M47.9169 82.2168H44.3982V89.6781H47.9169V82.2168Z" fill="#3F3D56"/>
<path d="M49.7793 83.046H42.5349L43.5698 78.4863H49.7793V83.046Z" fill="#3F3D56"/>
<path d="M43.363 82.6315L28.6672 89.471L28.4602 90.5073H26.3904L26.4893 88.9218C26.5222 88.3949 26.6921 87.8858 26.9821 87.4449C27.272 87.004 27.6721 86.6466 28.1425 86.4082L43.777 78.4863L43.363 82.6315Z" fill="#3F3D56"/>
<path d="M48.9512 82.6315L64.4749 89.471L64.6819 90.5073H66.7517L66.6528 88.9218C66.6199 88.3949 66.45 87.8858 66.1601 87.4449C65.8701 87.004 65.47 86.6466 64.9996 86.4082L49.7791 78.4863L48.9512 82.6315Z" fill="#3F3D56"/>
<path d="M27.2182 94.8595C28.4757 94.8595 29.495 93.8388 29.495 92.5796C29.495 91.3205 28.4757 90.2998 27.2182 90.2998C25.9608 90.2998 24.9414 91.3205 24.9414 92.5796C24.9414 93.8388 25.9608 94.8595 27.2182 94.8595Z" fill="#3F3D56"/>
<path d="M53.5051 94.8595C54.7625 94.8595 55.7819 93.8388 55.7819 92.5796C55.7819 91.3205 54.7625 90.2998 53.5051 90.2998C52.2476 90.2998 51.2283 91.3205 51.2283 92.5796C51.2283 93.8388 52.2476 94.8595 53.5051 94.8595Z" fill="#3F3D56"/>
<path d="M65.717 94.8595C66.9744 94.8595 67.9938 93.8388 67.9938 92.5796C67.9938 91.3205 66.9744 90.2998 65.717 90.2998C64.4595 90.2998 63.4402 91.3205 63.4402 92.5796C63.4402 93.8388 64.4595 94.8595 65.717 94.8595Z" fill="#3F3D56"/>
<path d="M54.3334 91.1294L52.6776 90.9222L52.2636 89.2642L46.675 82.4246L49.1588 79.9375L53.5795 86.6659C54.0713 87.4144 54.3334 88.2908 54.3334 89.1868V91.1294Z" fill="#3F3D56"/>
<path d="M61.1308 69.5745H33.6672C33.3096 69.5745 32.9555 69.5039 32.625 69.3669C32.2946 69.2298 31.9944 69.029 31.7415 68.7757C31.4886 68.5225 31.288 68.2219 31.1512 67.8911C31.0143 67.5602 30.9438 67.2056 30.9438 66.8475V65.3693C30.9441 64.7429 31.0826 64.1243 31.3493 63.5578C31.616 62.9912 32.0044 62.4906 32.4867 62.0917C37.1228 58.2551 40.8753 54.9928 46.0536 55.2528C50.5276 55.4774 56.1832 61.1152 61.0601 62.8545C61.8802 63.1504 62.5888 63.6928 63.089 64.4077C63.5892 65.1225 63.8565 65.9747 63.8542 66.8475C63.8542 67.2056 63.7837 67.5602 63.6469 67.8911C63.51 68.2219 63.3094 68.5225 63.0565 68.7758C62.8036 69.029 62.5034 69.2299 62.173 69.3669C61.8426 69.5039 61.4884 69.5745 61.1308 69.5745Z" fill="#2871D8"/>
<path d="M195.771 64.7054H123.341C122.986 64.7049 122.645 64.5633 122.393 64.3115C122.142 64.0597 122 63.7183 122 63.3623V1.34307C122 0.986994 122.142 0.645623 122.393 0.393839C122.645 0.142055 122.986 0.000418359 123.341 0H195.771C196.127 0.00041836 196.468 0.142055 196.719 0.393839C196.971 0.645623 197.112 0.986994 197.113 1.34307V63.3623C197.112 63.7184 196.971 64.0597 196.719 64.3115C196.468 64.5633 196.127 64.7049 195.771 64.7054ZM123.341 0.53723C123.128 0.537463 122.923 0.622436 122.772 0.77351C122.622 0.924585 122.537 1.12942 122.537 1.34307V63.3623C122.537 63.5759 122.622 63.7808 122.772 63.9318C122.923 64.0829 123.128 64.1679 123.341 64.1681H195.771C195.985 64.1679 196.189 64.0829 196.34 63.9318C196.491 63.7808 196.576 63.5759 196.576 63.3623V1.34307C196.576 1.12942 196.491 0.924587 196.34 0.773513C196.189 0.62244 195.985 0.537464 195.771 0.53723H123.341Z" fill="#E6E6E6"/>
<path d="M134.595 59.148C137.613 59.148 140.059 56.6985 140.059 53.677C140.059 50.6555 137.613 48.2061 134.595 48.2061C131.578 48.2061 129.132 50.6555 129.132 53.677C129.132 56.6985 131.578 59.148 134.595 59.148Z" fill="#E6E6E6"/>
<path d="M147.214 50.0293C146.973 50.0293 146.741 50.1254 146.57 50.2964C146.399 50.4674 146.303 50.6993 146.303 50.9411C146.303 51.183 146.399 51.4149 146.57 51.5859C146.741 51.7569 146.973 51.8529 147.214 51.8529H190.143C190.385 51.8529 190.616 51.7569 190.787 51.5859C190.958 51.4149 191.054 51.183 191.054 50.9411C191.054 50.6993 190.958 50.4674 190.787 50.2964C190.616 50.1254 190.385 50.0293 190.143 50.0293H147.214Z" fill="#E6E6E6"/>
<path d="M147.214 55.5C147.094 55.4998 146.975 55.5233 146.865 55.569C146.754 55.6148 146.654 55.6819 146.569 55.7666C146.484 55.8513 146.417 55.9519 146.371 56.0626C146.325 56.1733 146.302 56.292 146.302 56.4118C146.302 56.5317 146.325 56.6504 146.371 56.7611C146.417 56.8718 146.484 56.9724 146.569 57.0571C146.654 57.1417 146.754 57.2089 146.865 57.2546C146.975 57.3004 147.094 57.3238 147.214 57.3236H165.686C165.928 57.3233 166.159 57.2271 166.329 57.0561C166.5 56.8851 166.596 56.6534 166.596 56.4118C166.596 56.1702 166.5 55.9385 166.329 55.7675C166.159 55.5966 165.928 55.5004 165.686 55.5H147.214Z" fill="#E6E6E6"/>
<path d="M212.98 43.0739H140.55C140.194 43.0735 139.853 42.9318 139.602 42.68C139.35 42.4283 139.209 42.0869 139.208 41.7308V9.90265C139.209 9.54657 139.35 9.2052 139.602 8.95342C139.853 8.70163 140.194 8.55999 140.55 8.55957H212.98C213.335 8.55999 213.676 8.70163 213.928 8.95341C214.179 9.2052 214.321 9.54657 214.321 9.90265V41.7308C214.321 42.0869 214.179 42.4283 213.928 42.68C213.676 42.9318 213.335 43.0735 212.98 43.0739Z" fill="#F2F2F2"/>
<path d="M155.3 19.6533C155.059 19.6533 154.827 19.7494 154.656 19.9204C154.486 20.0914 154.39 20.3233 154.39 20.5651C154.39 20.807 154.486 21.0389 154.656 21.2099C154.827 21.3809 155.059 21.477 155.3 21.477H198.23C198.471 21.477 198.703 21.3809 198.873 21.2099C199.044 21.0389 199.14 20.807 199.14 20.5651C199.14 20.3233 199.044 20.0914 198.873 19.9204C198.703 19.7494 198.471 19.6533 198.23 19.6533H155.3Z" fill="#5199FF"/>
<path d="M155.3 24.9375C155.059 24.9375 154.827 25.0336 154.656 25.2046C154.486 25.3756 154.39 25.6075 154.39 25.8493C154.39 26.0912 154.486 26.3231 154.656 26.4941C154.827 26.6651 155.059 26.7612 155.3 26.7612H198.23C198.471 26.7612 198.703 26.6651 198.873 26.4941C199.044 26.3231 199.14 26.0912 199.14 25.8493C199.14 25.6075 199.044 25.3756 198.873 25.2046C198.703 25.0336 198.471 24.9375 198.23 24.9375H155.3Z" fill="#5199FF"/>
<path d="M155.3 30.1562C155.059 30.1562 154.827 30.2523 154.656 30.4233C154.486 30.5943 154.39 30.8262 154.39 31.0681C154.39 31.3099 154.486 31.5418 154.656 31.7128C154.827 31.8838 155.059 31.9799 155.3 31.9799H173.773C174.014 31.9799 174.246 31.8838 174.417 31.7128C174.588 31.5418 174.683 31.3099 174.683 31.0681C174.683 30.8262 174.588 30.5943 174.417 30.4233C174.246 30.2523 174.014 30.1562 173.773 30.1562H155.3Z" fill="#5199FF"/>
<path d="M213.113 46.5034C216.13 46.5034 218.577 44.054 218.577 41.0325C218.577 38.011 216.13 35.5615 213.113 35.5615C210.095 35.5615 207.649 38.011 207.649 41.0325C207.649 44.054 210.095 46.5034 213.113 46.5034Z" fill="#3F3D56"/>
<path d="M212.657 43.4514L210.923 41.2187L211.932 40.4334L212.753 41.4904L215.527 38.5586L216.454 39.4385L212.657 43.4514Z" fill="white"/>
</svg>
