<svg width="24" height="24" viewBox="0 0 24 24" fill="none" xmlns="http://www.w3.org/2000/svg">
<g clip-path="url(#clip0_560_167)">
<path d="M0.0380154 12.1854C-0.0392818 11.9984 0.00374985 11.7832 0.146999 11.6404L9.147 2.64036C9.34561 2.4485 9.66216 2.45403 9.85402 2.65264C10.0411 2.84642 10.0411 3.1536 9.85402 3.34733L1.707 11.4943H23.5C23.7761 11.4944 24 11.7183 24 11.9944C24 12.2705 23.7761 12.4944 23.5 12.4944H1.707L9.85298 20.6404C10.0516 20.8323 10.0571 21.1488 9.86527 21.3474C9.67341 21.546 9.35691 21.5515 9.15825 21.3597C9.15408 21.3557 9.15 21.3516 9.14597 21.3474L0.145969 12.3474C0.0997505 12.301 0.0630474 12.2459 0.0380154 12.1854Z" fill="#2196F3"/>
<path d="M9.50007 21.4943C9.77621 21.4948 10.0005 21.2713 10.001 20.9952C10.0012 20.8621 9.94834 20.7343 9.85407 20.6403L1.20704 11.9943L9.85407 3.34834C10.0459 3.14973 10.0404 2.83318 9.84179 2.64132C9.64801 2.4542 9.34083 2.4542 9.1471 2.64132L0.147099 11.6413C-0.0480881 11.8366 -0.0480881 12.1531 0.147099 12.3483L9.1471 21.3483C9.24076 21.4418 9.36769 21.4943 9.50007 21.4943Z" fill="#BDBDBD"/>
<path d="M0.500015 12.4941H23.5C23.7761 12.4941 24 12.2703 24 11.9942C24 11.718 23.7761 11.4941 23.5 11.4941H0.499968C0.223827 11.4941 -4.57764e-05 11.718 -4.57764e-05 11.9942C1.90735e-06 12.2703 0.223875 12.4941 0.500015 12.4941Z" fill="#BDBDBD"/>
<circle cx="21" cy="12" r="3" fill="#EB5757"/>
</g>
<defs>
<clipPath id="clip0_560_167">
<rect width="24" height="24" fill="white" transform="matrix(-1 0 0 1 24 0)"/>
</clipPath>
</defs>
</svg>
