<svg width="40" height="40" viewBox="0 0 40 40" fill="none" xmlns="http://www.w3.org/2000/svg">
<g clip-path="url(#clip0_549_663)">
<path d="M3.125 7.5V11.875H16.875L20 8.75H21.875V3.125H7.5V7.5H3.125Z" fill="#5199FF"/>
<path d="M19.375 18.125C17.3344 18.125 15.4619 18.8294 13.9731 20L19.375 26.875L24.7769 20C23.2881 18.8294 21.4156 18.125 19.375 18.125Z" fill="#5199FF"/>
<path d="M24.3708 16.252L28.1202 12.5026L34.994 19.3764L31.2447 23.1258L24.3708 16.252Z" fill="#5199FF"/>
<path d="M10 16.875H7.5V18.75H3.125V13.125H10V16.875Z" fill="#5199FF"/>
<path d="M12.51 21.0639L11.6087 20.1982L7.625 24.3482L9.98437 26.7076L10.8681 25.8239L9.375 24.3301L12.51 21.0639Z" fill="#333333"/>
<path d="M39.6269 18.7431L29.0088 8.125H24.375V0.625H7.24125L0.625 7.24125V30.625H10.3663L19.3819 39.6406L39.6269 18.7431ZM27.2413 9.375L24.375 12.2413L21.5088 9.375H27.2413ZM6.875 2.75875V6.875H2.75875L6.875 2.75875ZM1.875 29.375V8.125H8.125V1.875H23.125V8.125H19.7338L14.9338 13.125H5.625V14.375H13.7338L4.125 24.3838L9.11625 29.375H1.875ZM5.875 24.3662L20.0094 9.64312L24.375 14.0087L28.75 9.63375L37.8731 18.7569L19.3681 37.8594L5.875 24.3662Z" fill="#333333"/>
<path d="M24.0894 21.8869L25.6544 19.895L25.1631 19.5088C23.4925 18.195 21.4913 17.5 19.375 17.5C17.2587 17.5 15.2575 18.195 13.5869 19.5088L13.0956 19.895L14.6606 21.8869C13.2838 23.1844 12.5 24.9669 12.5 26.875C12.5 30.6656 15.5844 33.75 19.375 33.75C23.1656 33.75 26.25 30.6656 26.25 26.875C26.25 24.9669 25.4662 23.1844 24.0894 21.8869ZM24.9644 26.25H20.6606L23.3162 22.87C24.2437 23.7787 24.8225 24.965 24.9644 26.25ZM19.375 18.75C20.9994 18.75 22.5462 19.2231 23.885 20.1238L19.375 25.8631L14.865 20.1231C16.2038 19.2231 17.7506 18.75 19.375 18.75ZM15.4331 22.87L18.5406 26.825L14.9844 30.3813C14.2138 29.4194 13.75 28.2013 13.75 26.875C13.75 25.3525 14.3575 23.9244 15.4331 22.87ZM19.375 32.5C18.0487 32.5 16.8306 32.0363 15.8681 31.2656L19.6337 27.5H24.9631C24.6506 30.3081 22.265 32.5 19.375 32.5Z" fill="#333333"/>
<path d="M27.6787 12.9443L28.5625 12.0606L35.4363 18.9344L34.5525 19.8181L27.6787 12.9443Z" fill="#333333"/>
<path d="M25.8037 14.8184L26.6875 13.9346L33.5613 20.8084L32.6775 21.6922L25.8037 14.8184Z" fill="#333333"/>
<path d="M19.5544 12.3184L20.4382 11.4346L31.6866 22.683L30.8028 23.5667L19.5544 12.3184Z" fill="#333333"/>
<path d="M3.125 13.125H4.375V14.375H3.125V13.125Z" fill="#333333"/>
<path d="M3.125 15.625H10V16.875H3.125V15.625Z" fill="#333333"/>
<path d="M3.125 18.125H7.5V19.375H3.125V18.125Z" fill="#333333"/>
</g>
<defs>
<clipPath id="clip0_549_663">
<rect width="40" height="40" fill="white"/>
</clipPath>
</defs>
</svg>
