<svg width="40" height="40" viewBox="0 0 40 40" fill="none" xmlns="http://www.w3.org/2000/svg">
<g clip-path="url(#clip0_549_691)">
<path d="M11.875 13.125H3.125V5.625H11.875V13.125Z" fill="#5199FF"/>
<path d="M11.875 21.875H3.125V14.375H11.875V21.875Z" fill="#5199FF"/>
<path d="M13.125 6.25H19.375V11.25H13.125V6.25Z" fill="#5199FF"/>
<path d="M13.125 15H19.375V20H13.125V15Z" fill="#5199FF"/>
<path d="M37.5 16.875H26.875C26.5306 16.875 26.25 16.5944 26.25 16.25C26.25 15.9056 26.5306 15.625 26.875 15.625H30.625C31.6588 15.625 32.5 14.7837 32.5 13.75C32.5 12.885 31.8631 11.875 30.0675 11.875H24.5037C23.1569 11.875 22.0069 10.8856 21.8863 9.6225C21.8181 8.90625 22.0444 8.22063 22.5244 7.69375C22.99 7.18188 23.65 6.885 24.34 6.875L25.1062 6.8775L25.0144 6.07875C25.0081 6.0325 25 5.98625 25 5.9375C25 4.4825 26.4094 3.3225 27.9494 3.89562L28.4269 4.07375L28.6975 3.64188C29.3894 2.53563 30.5775 1.875 31.875 1.875C33.9431 1.875 35.625 3.55687 35.625 5.625C35.625 5.8025 35.6087 5.98875 35.5744 6.21063L35.4806 6.81188L36.0794 6.92188C37.3088 7.1475 38.1875 8.26062 38.1225 9.51C38.0537 10.8137 36.8725 11.875 35.4881 11.875H33.75V13.125H35.4881C37.5606 13.125 39.2656 11.5656 39.3694 9.57438C39.4569 7.8975 38.4113 6.385 36.8688 5.8425C36.8731 5.76812 36.875 5.69625 36.875 5.625C36.875 2.86813 34.6319 0.625 31.875 0.625C30.305 0.625 28.8556 1.34875 27.9119 2.5825C27.6694 2.5275 27.4269 2.5 27.1875 2.5C26.4581 2.5 25.7875 2.73625 25.23 3.125H3.75C2.02688 3.125 0.625 4.52688 0.625 6.25V26.25C0.625 27.9731 2.02688 29.375 3.75 29.375H13.7262C13.6213 30.3719 13.1031 31.2756 12.2913 31.875H10.625C8.90187 31.875 7.5 33.2769 7.5 35C7.5 36.0337 8.34125 36.875 9.375 36.875H28.125C29.1588 36.875 30 36.0337 30 35C30 33.2769 28.5981 31.875 26.875 31.875H25.2087C24.3969 31.2756 23.8787 30.3719 23.7737 29.375H30.625V33.9294L33.5138 38.5513C33.8363 39.0669 34.3913 39.375 35 39.375C35.6087 39.375 36.1637 39.0669 36.4862 38.5513L39.375 33.9294V18.75C39.375 17.7162 38.5337 16.875 37.5 16.875ZM36.875 32.1138V20.625H37.5C37.7194 20.625 37.9294 20.5869 38.125 20.5181V32.7388L36.875 32.1138ZM33.125 32.1138L31.875 32.7388V21.25C31.875 20.9056 32.1556 20.625 32.5 20.625H33.125V32.1138ZM34.375 20.625H35.625V32.2412L35 32.8662L34.375 32.2412V20.625ZM3.75 4.375H24.1319C23.9281 4.77125 23.795 5.20938 23.76 5.67563C22.935 5.81375 22.17 6.22563 21.6 6.8525C20.8913 7.6325 20.5425 8.685 20.6425 9.74125C20.8231 11.6388 22.52 13.125 24.5044 13.125H30.0681C30.4231 13.125 31.25 13.1862 31.25 13.75C31.25 14.0944 30.9694 14.375 30.625 14.375H26.875C25.8412 14.375 25 15.2163 25 16.25C25 17.2838 25.8412 18.125 26.875 18.125H37.5C37.8444 18.125 38.125 18.4056 38.125 18.75C38.125 19.0944 37.8444 19.375 37.5 19.375H32.5C31.4662 19.375 30.625 20.2162 30.625 21.25V23.125H1.875V6.25C1.875 5.21625 2.71625 4.375 3.75 4.375ZM28.75 35C28.75 35.3444 28.4694 35.625 28.125 35.625H9.375C9.03063 35.625 8.75 35.3444 8.75 35C8.75 33.9663 9.59125 33.125 10.625 33.125H26.875C27.9088 33.125 28.75 33.9663 28.75 35ZM23.4562 31.875H14.0437C14.58 31.1531 14.905 30.29 14.9762 29.375H22.5231C22.595 30.29 22.92 31.1531 23.4562 31.875ZM3.75 28.125C2.71625 28.125 1.875 27.2838 1.875 26.25V24.375H30.625V28.125H3.75ZM35.4263 37.8888C35.2412 38.185 34.7594 38.185 34.5744 37.8888L32.145 34.0019L33.6275 33.2606L35 34.6338L36.3731 33.2606L37.8556 34.0019L35.4263 37.8888Z" fill="#333333"/>
<path d="M6.875 25.625H8.125V26.875H6.875V25.625Z" fill="#333333"/>
<path d="M9.375 25.625H10.625V26.875H9.375V25.625Z" fill="#333333"/>
<path d="M4.375 25.625H5.625V26.875H4.375V25.625Z" fill="#333333"/>
<path d="M9.81686 8.56735L8.93311 7.68359L6.87498 9.74172L6.06686 8.9336L5.18311 9.81735L6.87498 11.5092L9.81686 8.56735Z" fill="#333333"/>
<path d="M9.81686 17.3173L8.93311 16.4336L6.87498 18.4917L6.06686 17.6836L5.18311 18.5673L6.87498 20.2592L9.81686 17.3173Z" fill="#333333"/>
<path d="M13.125 5.625H19.375V6.875H13.125V5.625Z" fill="#333333"/>
<path d="M13.125 8.125H19.375V9.375H13.125V8.125Z" fill="#333333"/>
<path d="M13.125 10.625H19.375V11.875H13.125V10.625Z" fill="#333333"/>
<path d="M13.125 14.375H19.375V15.625H13.125V14.375Z" fill="#333333"/>
<path d="M13.125 16.875H19.375V18.125H13.125V16.875Z" fill="#333333"/>
<path d="M13.125 19.375H19.375V20.625H13.125V19.375Z" fill="#333333"/>
<path d="M28.125 20.625H29.375V21.875H28.125V20.625Z" fill="#333333"/>
<path d="M25.625 20.625H26.875V21.875H25.625V20.625Z" fill="#333333"/>
<path d="M23.125 20.625H24.375V21.875H23.125V20.625Z" fill="#333333"/>
</g>
<defs>
<clipPath id="clip0_549_691">
<rect width="40" height="40" fill="white"/>
</clipPath>
</defs>
</svg>
