<svg width="168" height="72" viewBox="0 0 168 72" fill="none" xmlns="http://www.w3.org/2000/svg">
<g clip-path="url(#clip0_560_89)">
<path d="M82.806 38.79H76.6066C75.9178 38.79 75.5242 39.2788 75.5242 39.8654V46.904C75.5242 47.5884 76.0162 47.9794 76.6558 47.9794C77.2462 47.9794 77.7382 47.5884 77.7382 46.904V40.9407H81.6743V46.904C81.6743 47.5884 82.1664 47.9794 82.806 47.9794C83.3964 47.9794 83.9376 47.5884 83.9376 46.8552V39.8654C83.9376 39.2788 83.544 38.79 82.806 38.79Z" fill="#FF6900"/>
<path d="M93.5816 38.79H93.4832C92.8436 38.79 92.4008 39.1322 91.958 39.7676L88.3663 44.8511V39.9143C88.3663 39.23 87.9235 38.8389 87.333 38.8389C86.6934 38.8389 86.2506 39.23 86.2506 39.9143V46.7085C86.2506 47.4417 86.7426 47.9305 87.4806 47.9305H87.5791C88.2679 47.9305 88.7107 47.5884 89.1535 46.9529L92.7452 41.8695V46.8552C92.7452 47.5395 93.188 47.9305 93.8276 47.9305C94.418 47.9305 94.9101 47.5395 94.9101 46.8552V40.0609C94.8609 39.2788 94.418 38.79 93.5816 38.79Z" fill="#FF6900"/>
<path d="M105.931 45.7799H105.389V39.8166C105.389 39.1322 104.897 38.7412 104.258 38.7412C103.667 38.7412 103.175 39.1322 103.175 39.8166V45.7799H99.3376V39.8166C99.3376 39.1322 98.8456 38.7412 98.206 38.7412C97.5663 38.7412 97.0743 39.1322 97.0743 39.8166V46.8552C97.0743 47.4418 97.4679 47.9306 98.1568 47.9306H104.799V48.9082C104.799 49.5925 105.291 49.9835 105.881 49.9835C106.521 49.9835 106.964 49.5925 106.964 48.9082V46.9041C107.013 46.1709 106.619 45.7799 105.931 45.7799Z" fill="#FF6900"/>
<path d="M117.05 45.7799H116.508V39.8166C116.508 39.1322 116.016 38.7412 115.377 38.7412C114.786 38.7412 114.294 39.1322 114.294 39.8166V45.7799H110.457V39.8166C110.457 39.1322 109.965 38.7412 109.325 38.7412C108.685 38.7412 108.193 39.1322 108.193 39.8166V46.8552C108.193 47.4418 108.587 47.9306 109.276 47.9306H115.918V48.9082C115.918 49.5925 116.41 49.9835 117 49.9835C117.64 49.9835 118.083 49.5925 118.083 48.9082V46.9041C118.132 46.1709 117.738 45.7799 117.05 45.7799Z" fill="#FF6900"/>
<path d="M127.874 46.3664L124.873 39.8165C124.528 39.0833 124.036 38.79 123.397 38.79H123.298C122.609 38.79 122.117 39.0833 121.773 39.8165L118.772 46.3664C118.477 47.0018 118.673 47.5884 119.264 47.7839C119.805 47.9794 120.346 47.8816 120.641 47.2462L121.33 45.8287C121.921 46.0242 122.708 46.122 123.397 46.122C124.135 46.122 124.824 46.0242 125.365 45.8287L126.004 47.2462C126.3 47.8816 126.841 47.9794 127.382 47.7839C127.923 47.5884 128.169 47.0018 127.874 46.3664ZM123.347 44.2157C122.905 44.2157 122.413 44.1668 122.019 44.069L123.298 41.234L124.578 44.069C124.233 44.1668 123.79 44.2157 123.347 44.2157Z" fill="#FF6900"/>
<path d="M85.4626 31.1645H84.9214V25.299C84.9214 24.7124 84.5278 24.2236 83.839 24.2236H78.722C78.1316 24.2236 77.738 24.6147 77.738 25.299V26.7165C77.738 27.743 77.738 28.525 77.5412 29.4049C77.3444 30.2358 77.1476 30.7735 76.8032 31.1645H76.5572C75.8683 31.1645 75.5239 31.6044 75.5239 32.2399V34.2928C75.5239 34.9771 76.0159 35.3682 76.6064 35.3682C77.246 35.3682 77.6888 34.9771 77.6888 34.2928V33.3152H84.3802V34.2928C84.3802 34.9771 84.8722 35.3682 85.4626 35.3682C86.1022 35.3682 86.545 34.9771 86.545 34.2928V32.2399C86.545 31.6533 86.2006 31.1645 85.4626 31.1645ZM82.7073 31.1645H79.1156C79.3616 30.6757 79.5092 30.2847 79.6568 29.6004C79.8044 28.9161 79.8536 28.2318 79.9029 27.3519V26.2766H82.7073V31.1645Z" fill="#FF6900"/>
<path d="M91.7609 24.126C89.104 24.126 87.0868 26.13 87.0868 28.7695C87.0868 31.4579 89.1533 33.4131 91.7609 33.4131C94.4178 33.4131 96.4351 31.3601 96.4351 28.7695C96.4843 26.0812 94.4178 24.126 91.7609 24.126ZM91.7609 31.3113C90.3341 31.3113 89.2517 30.2359 89.2517 28.7207C89.2517 27.2543 90.2849 26.1789 91.7609 26.1789C93.237 26.1789 94.2702 27.2543 94.2702 28.7207C94.2702 30.2359 93.2862 31.3113 91.7609 31.3113Z" fill="#FF6900"/>
<path d="M112.867 24.126C110.21 24.126 108.193 26.13 108.193 28.7695C108.193 31.4579 110.26 33.4131 112.867 33.4131C115.524 33.4131 117.541 31.3601 117.541 28.7695C117.591 26.0812 115.524 24.126 112.867 24.126ZM112.867 31.3113C111.44 31.3113 110.358 30.2359 110.358 28.7207C110.358 27.2543 111.391 26.1789 112.867 26.1789C114.343 26.1789 115.377 27.2543 115.377 28.7207C115.377 30.2359 114.392 31.3113 112.867 31.3113Z" fill="#FF6900"/>
<path d="M106.669 31.1645H106.127V25.299C106.127 24.7124 105.734 24.2236 105.045 24.2236H99.9773C99.3869 24.2236 98.9932 24.6147 98.9932 25.299V26.7165C98.9932 27.743 98.9932 28.525 98.7964 29.4049C98.5996 30.2358 98.4028 30.7735 98.0584 31.1645H97.8124C97.1236 31.1645 96.7792 31.6044 96.7792 32.2399V34.2928C96.7792 34.9771 97.2712 35.3682 97.8616 35.3682C98.5012 35.3682 98.944 34.9771 98.944 34.2928V33.3152H105.635V34.2928C105.635 34.9771 106.127 35.3682 106.718 35.3682C107.357 35.3682 107.8 34.9771 107.8 34.2928V32.2399C107.751 31.6533 107.407 31.1645 106.669 31.1645ZM103.864 31.1645H100.272C100.518 30.6757 100.666 30.2847 100.814 29.6004C100.961 28.9161 101.01 28.2318 101.06 27.3519V26.2766H103.864V31.1645Z" fill="#FF6900"/>
<path d="M53.2844 21.3398C61.8946 21.3398 68.5368 27.2054 68.5368 36.0037C68.5368 44.802 61.8946 50.8142 53.2352 50.8142H43.5917C41.6236 50.8142 40 49.5433 40 47.2949V25.0058C40 22.7574 41.6236 21.3398 43.5917 21.3398H53.2844Z" fill="#FF6900"/>
<path d="M46.7401 36.7855C46.7401 34.0483 45.8545 31.6043 46.1497 30.0402L46.1005 29.9424C45.1165 30.9689 44.4768 30.7245 44.3784 30.3823C44.2308 29.698 45.4117 28.9159 46.0513 28.6226C46.0513 28.5738 46.1005 28.5249 46.1005 28.476C45.4609 28.5738 44.7228 28.476 44.7228 28.0361C44.6736 27.4984 45.7561 27.0585 47.1337 27.1563C47.1829 27.1563 47.1829 27.1074 47.2321 27.1074C47.1337 27.0585 47.0353 27.0096 46.9369 26.9607C46.5925 26.7652 46.4941 26.4719 46.5925 26.2275C46.7401 25.9831 47.1337 25.8854 47.4289 25.8854C47.9209 25.8854 48.3637 26.032 48.659 26.1298C48.7082 26.1298 48.7082 26.0809 48.7574 26.0809C48.659 25.9831 48.5606 25.8854 48.4621 25.7876C48.3637 25.641 48.3637 25.4455 48.5113 25.2988C48.7082 25.1522 49.2002 25.1033 49.643 25.4944C49.7414 25.5921 49.7906 25.641 49.889 25.7388C49.9382 25.7388 49.9874 25.7388 50.0366 25.6899C49.9874 25.5921 49.889 25.4455 49.889 25.3477C49.8398 25.2011 49.889 25.0544 50.0858 25.0056C50.2826 24.9567 50.5286 25.0544 50.627 25.25C50.7746 25.4455 50.8238 25.6899 50.873 25.8854C49.889 25.9831 47.2813 26.5697 47.2813 29.698C47.2813 32.7285 49.8398 35.9546 49.8398 40.647C49.8398 42.3578 49.4462 44.0686 47.8717 46.0726C46.6417 47.6368 44.7228 49.1032 41.7708 50.3252C42.2628 50.5696 42.8532 50.7162 43.4928 50.7162H44.5752C47.0353 49.3476 48.2653 48.1256 49.151 46.9525C50.8238 47.6857 52.3983 47.9789 53.8251 47.9789C56.5312 47.9789 58.8436 46.757 60.0245 44.5574C61.2545 43.8242 62.0909 42.3089 62.1401 41.2336C62.9274 40.256 63.075 39.0829 62.829 38.2519C62.7798 38.0564 62.6322 38.0564 62.3369 38.203C59.9261 39.6694 57.5644 40.3537 55.3011 40.3537C53.9235 40.3537 52.5459 40.1582 51.0698 39.7183C50.9714 38.1542 50.627 36.7855 50.5286 36.0035C50.3318 34.9281 50.5778 34.146 51.7586 34.146C52.6443 34.146 54.2187 34.3415 55.4979 34.9281C56.7772 35.5147 57.5152 36.6389 58.0564 36.6389C58.2532 36.6389 58.4992 36.4922 58.4992 36.0523C58.4992 35.1236 58.1548 33.7061 57.7612 33.1684C58.9421 33.1196 59.8769 33.1196 60.4181 33.1684C61.5005 33.364 61.5497 33.9016 61.7957 34.2438C61.9925 34.5859 62.3861 34.7326 62.829 34.7326C63.6654 34.7326 64.1574 34.2927 64.1574 32.7774C64.1574 29.4536 62.0417 27.8406 59.8277 27.8406C58.0072 27.8406 57.3184 28.2316 55.5964 28.2316C54.3663 28.2316 53.3823 25.7388 51.9554 25.4455C51.365 24.0768 49.9874 23.9302 49.1018 24.6145C48.3145 24.1257 47.1337 24.419 47.0845 25.25C46.1989 24.9567 45.0673 25.4455 45.5593 26.6186C43.3944 26.6675 43.0008 28.5738 44.4768 28.8182C42.6072 29.8935 43.4436 31.7021 45.018 31.311C45.1165 32.6308 45.6577 34.7326 45.6577 36.199C45.6577 38.203 44.7228 38.6918 43.4928 38.6918C42.5088 38.6918 41.0327 38.3497 40.0487 38.0564V39.4739C41.0327 39.7183 42.558 40.0605 43.6896 40.0605C45.6085 40.1582 46.7401 38.9851 46.7401 36.7855ZM51.119 41.3802C52.4967 41.7712 54.3663 41.9668 55.9408 41.869C58.696 41.6735 60.7625 40.647 61.8941 39.9138C61.2053 41.6735 58.5976 42.7488 56.0392 43.0421C56.0392 43.1887 55.99 43.2865 55.99 43.4331C57.9088 43.3354 59.6801 42.6999 60.5165 42.1623C60.0245 43.8731 57.712 44.5574 55.5964 44.6551C55.5472 44.8018 55.498 44.8995 55.3995 45.0462C56.6296 45.0462 57.8104 44.8506 58.4992 44.6063C57.9088 45.7794 55.744 46.757 53.5299 46.757C52.4475 46.757 51.0698 46.5614 49.889 45.9749C50.7254 44.4107 51.0698 42.8466 51.119 41.3802ZM56.6296 31.6532C56.9248 30.7733 57.1708 30.089 57.6628 29.6002C58.1548 29.0626 58.7452 28.9159 59.9753 28.9159C61.6973 28.9159 63.1242 30.6267 63.1242 33.0707C63.1242 33.4128 62.6322 33.4128 62.4846 33.1196C61.8941 32.0931 61.1069 31.9465 59.8277 31.8487C58.8928 31.7998 57.8104 31.8487 56.7772 31.8976C56.6296 31.8487 56.5804 31.7509 56.6296 31.6532Z" fill="black"/>
<path d="M40 43.873C41.0332 43.6775 42.0665 43.482 42.0665 43.482L42.2141 42.9443C41.722 42.9443 40.7872 42.9443 40 42.9443V43.873Z" fill="black"/>
<path d="M51.2175 27.2051C51.5619 27.1073 52.1031 27.4495 52.3984 27.9872C52.6936 28.5249 52.5952 29.1114 52.2508 29.2092C51.9063 29.3558 51.3651 28.9648 51.0699 28.4271C51.0207 28.3293 51.0207 28.2805 50.9715 28.1827H51.0207C51.1191 28.2805 51.2667 28.3293 51.3651 28.2805C51.5127 28.1827 51.4635 27.9872 51.3651 27.7917C51.2667 27.645 51.1191 27.4495 50.9715 27.4984L50.9223 27.4495C51.0207 27.3517 51.1191 27.254 51.2175 27.2051ZM53.776 32.8263C52.1523 32.4841 50.3811 31.9953 49.3971 30.6267C49.3971 30.5778 49.3479 30.5778 49.2987 30.5778C49.2987 30.6267 49.2987 30.6267 49.2987 30.6756C49.2987 30.7733 49.2987 30.8222 49.2987 30.92L49.1511 30.9688C48.9051 30.6267 48.8559 30.1868 49.1019 29.8935C49.4463 29.4536 50.1843 29.5024 50.6271 29.7468L50.5779 29.8446C50.3319 29.7957 50.1351 29.7957 49.9383 29.8935C49.7907 30.0401 49.7907 30.1379 49.8891 30.3334C50.6763 31.7998 52.9888 32.0931 55.6948 31.8975C55.9901 31.8975 56.0393 31.7509 56.0885 31.6043C56.3345 30.6756 56.7773 29.8446 57.4169 29.2092C56.9249 29.258 56.4329 29.3069 56.0393 29.3069C54.6124 29.4047 53.8252 29.2092 53.5792 29.0136L53.6284 28.9159C53.776 28.9648 53.9236 28.9648 53.9728 28.9159C54.022 28.867 53.9728 28.8181 53.9236 28.7693C53.6776 28.5249 52.4476 27.3029 52.4476 27.3029C52.3 26.2275 50.7747 26.1786 50.1351 27.2051L49.9383 27.1562C49.9875 26.9118 50.0859 26.7652 50.1843 26.6186C48.9051 26.9118 48.2162 28.0361 48.0686 29.1114C47.5274 33.8038 54.6616 32.7285 56.7281 34.5859C56.7773 34.6348 56.8757 34.7326 56.9249 34.6837C57.0233 34.4393 56.0885 33.3639 53.776 32.8263Z" fill="white"/>
<path d="M61.894 39.8652C60.7132 40.5984 58.6467 41.6249 55.9407 41.8204C54.3662 41.9182 52.4966 41.7227 51.1189 41.3316C51.1189 41.7715 51.0697 42.2603 50.9713 42.7002C51.7585 42.8958 53.087 43.1402 55.1042 43.189C55.0058 43.7267 54.4646 45.4864 53.087 46.6595C55.5962 46.7573 57.8595 45.7797 58.5483 44.5088C57.8595 44.7532 56.6787 44.9487 55.4486 44.9487C55.4978 44.8509 55.5962 44.7043 55.6454 44.5577C57.7611 44.4599 60.0736 43.7756 60.5656 42.0648C59.7292 42.6025 57.9579 43.2379 56.0391 43.3357C56.0391 43.2379 56.0883 43.0913 56.0883 42.9446C58.5975 42.7002 61.2052 41.6249 61.894 39.8652Z" fill="white"/>
</g>
<defs>
<clipPath id="clip0_560_89">
<rect width="168" height="72" fill="white"/>
</clipPath>
</defs>
</svg>
