<svg width="302" height="96" viewBox="0 0 302 96" fill="none" xmlns="http://www.w3.org/2000/svg">
<path d="M37.6304 33.0723L38.8381 35.8707L46.2454 45.6252C46.2454 45.6252 51.3177 51.0622 48.4997 51.382C45.6818 51.7018 43.83 46.3448 43.83 46.3448L35.1345 37.7896L34.1684 33.8718L37.6304 33.0723Z" fill="#FFB9B9"/>
<path d="M33.9268 21.7178L35.0939 22.0422C35.0939 22.0422 40.3344 35.8672 39.8514 37.5462C39.3683 39.2253 37.1944 41.3041 36.2283 41.1442C35.2621 40.9843 33.9268 21.7178 33.9268 21.7178Z" fill="#5199FF"/>
<path d="M17.6193 92.7648C17.6193 92.7648 18.1319 95.3152 16.5915 94.2945C15.0511 93.2738 14.248 91.2998 14.248 91.2998L17.6193 92.7648Z" fill="#2F2E41"/>
<path d="M35.8591 35.2305C35.8591 35.2305 52.2033 92.4783 46.4064 94.1574C40.6094 95.8364 32.075 93.9975 32.1555 92.8781C32.236 91.7587 33.6853 69.6112 33.6853 69.6112C33.6853 69.6112 25.2314 99.0346 14.7646 92.1585C4.29789 85.2823 6.63277 84.0031 7.59894 83.5233C8.56511 83.0436 23.138 60.2564 23.0575 56.0188C22.977 51.7812 23.2185 38.5086 24.9898 36.5097L35.8591 35.2305Z" fill="#2F2E41"/>
<path d="M0.0838928 96H122V95H0L0.0838928 96Z" fill="#3F3D56"/>
<path d="M25.4777 14.8767C26.1066 14.3119 26.4988 13.533 26.5766 12.6945C26.6544 11.856 26.4121 11.0191 25.8977 10.3496C25.9658 10.413 26.0323 10.4788 26.0961 10.5488C26.6968 11.2095 27.0088 12.0801 26.9634 12.9692C26.9181 13.8583 26.519 14.6931 25.8541 15.2902C25.1891 15.8872 24.3127 16.1976 23.4173 16.1532C22.522 16.1088 21.6811 15.7131 21.0794 15.0531C21.0157 14.9832 20.9564 14.9108 20.8998 14.8372C21.5188 15.4126 22.333 15.7361 23.181 15.7434C24.0289 15.7507 24.8486 15.4414 25.4777 14.8767Z" fill="#2F2E41"/>
<path d="M25.7949 15.6809C21.9485 15.6809 18.8304 12.5844 18.8304 8.76475C18.8304 4.94508 21.9485 1.84863 25.7949 1.84863C29.6412 1.84863 32.7593 4.94508 32.7593 8.76475C32.7593 12.5844 29.6412 15.6809 25.7949 15.6809Z" fill="#2F2E41"/>
<path d="M44.5544 93.918C44.5544 93.918 46.4062 95.7569 44.5544 95.7569C42.7026 95.7569 40.9313 94.5576 40.9313 94.5576L44.5544 93.918Z" fill="#2F2E41"/>
<path d="M30.2228 13.0826C30.2228 13.0826 29.0151 18.0398 29.9008 18.9993C30.7864 19.9588 32.7188 20.6784 32.7188 20.6784L32.3967 29.6333C32.3967 29.6333 28.6931 28.3541 28.532 28.1941C28.371 28.0342 25.07 22.8372 25.07 22.8372L21.8494 19.7989C21.8494 19.7989 26.7608 17.4802 25.3115 13.4824C23.8623 9.48464 30.2228 13.0826 30.2228 13.0826Z" fill="#E6A7A7"/>
<path d="M23.1115 11.4301C22.7411 9.16357 24.2911 7.02798 26.5735 6.66017C28.8559 6.29235 31.0063 7.83161 31.3767 10.0982C31.7471 12.3647 30.1971 14.5003 27.9147 14.8681C25.6323 15.2359 23.4818 13.6967 23.1115 11.4301Z" fill="#FFB9B9"/>
<path d="M24.99 36.509C24.99 36.509 23.1382 30.4324 22.2525 29.6328C21.3669 28.8333 19.193 21.3175 19.193 21.3175C19.193 21.3175 20.5617 19.4785 21.6889 19.4785C22.8161 19.4785 23.8628 19.8783 25.151 21.0776C25.7576 21.6424 26.8641 22.2638 27.8652 22.7633C28.2204 22.9436 28.6083 23.0517 29.0061 23.0815C29.4039 23.1112 29.8037 23.0619 30.1821 22.9365C30.5606 22.811 30.91 22.612 31.2101 22.3509C31.5102 22.0899 31.7549 21.772 31.9299 21.416C32.13 20.9937 32.1959 20.589 31.9946 20.2781C31.9946 20.2781 34.9736 21.0776 35.1347 22.197C35.2957 23.3164 35.1347 25.6351 35.3762 26.1148C35.6177 26.5945 36.3424 27.3141 36.0203 30.3524C35.6983 33.3907 36.3564 37.2327 36.3564 37.2327C33.3488 40.0827 29.1822 38.3234 24.99 36.509Z" fill="#5199FF"/>
<path d="M27.284 9.44477C25.3275 9.44477 23.7414 8.37085 23.7414 7.04611C23.7414 5.72137 25.3275 4.64746 27.284 4.64746C29.2406 4.64746 30.8267 5.72137 30.8267 7.04611C30.8267 8.37085 29.2406 9.44477 27.284 9.44477Z" fill="#2F2E41"/>
<path d="M21.2459 6.88615C19.3783 6.88615 17.8643 5.38267 17.8643 3.52804C17.8643 1.6734 19.3783 0.169922 21.2459 0.169922C23.1135 0.169922 24.6274 1.6734 24.6274 3.52804C24.6274 5.38267 23.1135 6.88615 21.2459 6.88615Z" fill="#2F2E41"/>
<path d="M18.8303 5.92691C19.6783 5.92679 20.4952 5.61028 21.1192 5.04012C21.7432 4.46996 22.1288 3.68778 22.1993 2.84863C22.207 2.941 22.2119 3.03414 22.2119 3.12848C22.2118 4.01877 21.8557 4.87258 21.2218 5.5022C20.588 6.13182 19.7283 6.48572 18.8318 6.4861C17.9352 6.48648 17.0753 6.1333 16.4409 5.50422C15.8065 4.87513 15.4496 4.02163 15.4487 3.13134V3.12848C15.4487 3.03415 15.4536 2.941 15.4613 2.84863C15.5319 3.68778 15.9174 4.46996 16.5414 5.04012C17.1654 5.61028 17.9824 5.92679 18.8303 5.92691Z" fill="#2F2E41"/>
<path d="M26.7615 57.2852H27.8863L30.1343 76.7571L22.72 76.5101L26.7615 57.2852Z" fill="#5199FF"/>
<path opacity="0.2" d="M26.7615 57.2852H27.8863L30.1343 76.7571L22.72 76.5101L26.7615 57.2852Z" fill="black"/>
<path d="M27.1366 57.0371L28.5103 76.6343L11.6824 77.8749L10.3088 58.7736L27.1366 57.0371Z" fill="#5199FF"/>
<path opacity="0.2" d="M21.4706 59.023C21.3323 59.023 21.2201 58.9116 21.2201 58.7742C21.2201 58.6368 21.3323 58.5254 21.4706 58.5254C21.609 58.5254 21.7212 58.6368 21.7212 58.7742C21.7212 58.9116 21.609 59.023 21.4706 59.023Z" fill="black"/>
<path opacity="0.2" d="M16.225 59.6421C16.0867 59.6421 15.9745 59.5307 15.9745 59.3933C15.9745 59.2559 16.0867 59.1445 16.225 59.1445C16.3634 59.1445 16.4756 59.2559 16.4756 59.3933C16.4756 59.5307 16.3634 59.6421 16.225 59.6421Z" fill="black"/>
<path d="M16.1629 59.3945H16.2873C16.2873 59.3413 16.1992 54.1095 19.2247 53.6273C19.8208 53.533 20.3081 53.6668 20.6727 54.0254C21.9219 55.2557 21.4053 58.7304 21.4001 58.7647L21.5228 58.7836C21.5453 58.6378 22.0533 55.2111 20.7591 53.9379C20.3651 53.5484 19.8399 53.4026 19.204 53.5038C16.0731 54.0014 16.1612 59.3413 16.1629 59.3945Z" fill="#3F3D56"/>
<path d="M18.9511 32.3516L19.3537 36.829L18.5485 50.2615C18.5485 50.2615 16.6967 57.0577 19.5147 56.8978C22.3327 56.7379 21.286 49.7818 21.286 49.7818L22.5742 34.1905L18.9511 32.3516Z" fill="#FFB9B9"/>
<path d="M21.2858 20.1992L19.1925 21.3186C19.1925 21.3186 16.3745 40.3389 17.9848 42.1779C19.595 44.0169 22.8961 44.7365 23.0571 44.0169C23.2181 43.2973 23.7817 28.6745 23.7817 28.6745L21.2858 20.1992Z" fill="#5199FF"/>
<path d="M217.47 7.21875H219.818C219.901 7.21875 219.98 7.25132 220.038 7.30929C220.097 7.36727 220.13 7.4459 220.13 7.52789V8.55135C220.13 8.63334 220.097 8.71197 220.038 8.76995C219.98 8.82792 219.901 8.86049 219.818 8.86049H219.429V10.394H217.859V8.86049H217.47C217.388 8.86049 217.309 8.82792 217.25 8.76995C217.192 8.71197 217.159 8.63334 217.159 8.55135V7.52789C217.159 7.4459 217.192 7.36727 217.25 7.3093C217.309 7.25132 217.388 7.21875 217.47 7.21875Z" fill="#E6E6E6"/>
<path d="M215.119 16.5851C216.557 14.4956 217.292 12.0076 217.219 9.47774C217.217 9.41936 217.237 9.36234 217.273 9.31635C217.309 9.27036 217.36 9.23823 217.418 9.22544V8.7832H219.897V9.21929H219.931C219.965 9.21933 219.998 9.22591 220.029 9.23865C220.06 9.25139 220.088 9.27004 220.111 9.29353C220.135 9.31703 220.154 9.34491 220.166 9.37558C220.179 9.40625 220.186 9.43912 220.186 9.47231C220.186 9.47844 220.185 9.48457 220.185 9.4907C219.99 12.1951 220.649 14.6204 222.164 16.7665C222.251 16.8898 222.296 17.0379 222.291 17.1885L222.02 25.5179C222.013 25.7037 221.935 25.8798 221.801 26.0095C221.666 26.1392 221.487 26.2124 221.3 26.2139H215.691C215.502 26.2123 215.32 26.1374 215.186 26.0052C215.051 25.8729 214.974 25.6936 214.971 25.5057L214.866 17.4185C214.863 17.1216 214.951 16.8309 215.119 16.5851Z" fill="#E6E6E6"/>
<path d="M216.006 19.3525H220.889C220.961 19.3525 221.032 19.3681 221.098 19.398C221.164 19.428 221.222 19.4717 221.269 19.5262C221.316 19.5807 221.351 19.6446 221.371 19.7136C221.39 19.7826 221.395 19.8551 221.384 19.926L220.646 24.6882H216.41L215.514 19.942C215.5 19.8701 215.503 19.7962 215.521 19.7254C215.54 19.6546 215.574 19.5887 215.621 19.5324C215.668 19.4761 215.727 19.4308 215.793 19.3997C215.86 19.3687 215.933 19.3525 216.006 19.3525V19.3525Z" fill="white"/>
<path d="M194.13 27.286H208.126C207.148 22.0322 207.373 15.688 208.126 8.86523H194.13C194.863 15.688 195.082 22.0322 194.13 27.286Z" fill="#E6E6E6"/>
<path d="M201.043 20.9231C199.181 20.9231 197.671 19.4236 197.671 17.5738C197.671 15.7241 199.181 14.2246 201.043 14.2246C202.906 14.2246 204.416 15.7241 204.416 17.5738C204.416 19.4236 202.906 20.9231 201.043 20.9231Z" fill="white"/>
<path d="M186.204 28.4589H200.2C199.222 23.205 199.447 16.8608 200.2 10.0381H186.204C186.937 16.8609 187.157 23.205 186.204 28.4589Z" fill="#E6E6E6"/>
<path d="M193.118 22.095C191.255 22.095 189.745 20.5955 189.745 18.7457C189.745 16.896 191.255 15.3965 193.118 15.3965C194.98 15.3965 196.49 16.896 196.49 18.7457C196.49 20.5955 194.98 22.095 193.118 22.095Z" fill="white"/>
<path d="M186.204 27.621H200.2C199.222 22.3671 199.447 16.0229 200.2 9.2002H186.204C186.937 16.023 187.157 22.3672 186.204 27.621Z" fill="#E6E6E6"/>
<path d="M193.118 21.258C191.255 21.258 189.745 19.7585 189.745 17.9088C189.745 16.0591 191.255 14.5596 193.118 14.5596C194.98 14.5596 196.49 16.0591 196.49 17.9088C196.49 19.7585 194.98 21.258 193.118 21.258Z" fill="white"/>
<path d="M186.204 28.4589H200.2C199.222 23.205 199.447 16.8608 200.2 10.0381H186.204C186.937 16.8609 187.157 23.205 186.204 28.4589Z" fill="#E6E6E6"/>
<path d="M193.118 22.095C191.255 22.095 189.745 20.5955 189.745 18.7457C189.745 16.896 191.255 15.3965 193.118 15.3965C194.98 15.3965 196.49 16.896 196.49 18.7457C196.49 20.5955 194.98 22.095 193.118 22.095Z" fill="white"/>
<path d="M183 26.2812H228.868V31.3051H183V26.2812Z" fill="#E6E6E6"/>
<path d="M93.0463 35H95.3943C95.4768 35 95.556 35.0326 95.6144 35.0905C95.6728 35.1485 95.7056 35.2272 95.7056 35.3091V36.3326C95.7056 36.4146 95.6728 36.4932 95.6144 36.5512C95.556 36.6092 95.4768 36.6417 95.3943 36.6417H95.0052V38.1752H93.4354V36.6417H93.0463C92.9637 36.6417 92.8845 36.6092 92.8261 36.5512C92.7678 36.4932 92.735 36.4146 92.735 36.3326V35.3091C92.735 35.2272 92.7678 35.1485 92.8261 35.0905C92.8845 35.0326 92.9637 35 93.0463 35Z" fill="#E6E6E6"/>
<path d="M90.6951 44.3664C92.1331 42.2768 92.8683 39.7889 92.7952 37.259C92.7939 37.2006 92.813 37.1436 92.8492 37.0976C92.8854 37.0516 92.9366 37.0195 92.9939 37.0067V36.5645H95.4737V37.0005H95.5079C95.5413 37.0006 95.5744 37.0072 95.6053 37.0199C95.6361 37.0326 95.6641 37.0513 95.6877 37.0748C95.7113 37.0983 95.73 37.1262 95.7428 37.1568C95.7555 37.1875 95.7621 37.2204 95.762 37.2536C95.762 37.2597 95.7618 37.2658 95.7613 37.2719C95.566 39.9764 96.2257 42.4016 97.7404 44.5478C97.8276 44.6711 97.8721 44.8192 97.8673 44.9698L97.5962 53.2992C97.5897 53.485 97.5111 53.6611 97.377 53.7908C97.2429 53.9204 97.0635 53.9936 96.8763 53.9951H91.2673C91.078 53.9936 90.8968 53.9187 90.7622 53.7864C90.6277 53.6541 90.5505 53.4749 90.547 53.2869L90.4425 45.1997C90.4394 44.9029 90.5276 44.6122 90.6951 44.3664Z" fill="#E6E6E6"/>
<path d="M86.9783 45.2207H88.0921C88.1312 45.2207 88.1688 45.2362 88.1965 45.2637C88.2242 45.2912 88.2397 45.3285 88.2397 45.3673V45.8528C88.2397 45.8917 88.2242 45.929 88.1965 45.9565C88.1688 45.984 88.1312 45.9995 88.0921 45.9995H87.9075V46.7269H87.1629V45.9995H86.9783C86.9391 45.9995 86.9016 45.984 86.8739 45.9565C86.8462 45.929 86.8306 45.8917 86.8306 45.8528V45.3673C86.8306 45.3285 86.8462 45.2912 86.8739 45.2637C86.9016 45.2362 86.9391 45.2207 86.9783 45.2207Z" fill="#E6E6E6"/>
<path d="M85.8629 49.6637C86.545 48.6725 86.8937 47.4924 86.859 46.2923C86.8584 46.2647 86.8675 46.2376 86.8846 46.2158C86.9018 46.194 86.9261 46.1787 86.9533 46.1727V45.9629H88.1296V46.1697H88.1458C88.1616 46.1698 88.1773 46.1729 88.192 46.1789C88.2066 46.185 88.2199 46.1938 88.2311 46.205C88.2423 46.2161 88.2512 46.2293 88.2572 46.2439C88.2632 46.2584 88.2664 46.274 88.2663 46.2898C88.2663 46.2927 88.2662 46.2956 88.266 46.2985C88.1574 47.523 88.4901 48.746 89.2048 49.7497C89.2461 49.8082 89.2672 49.8785 89.265 49.9499L89.1363 53.9009C89.1333 53.989 89.096 54.0726 89.0324 54.1341C88.9688 54.1956 88.8837 54.2303 88.7949 54.231H86.1343C86.0445 54.2303 85.9585 54.1948 85.8947 54.132C85.8308 54.0693 85.7942 53.9843 85.7926 53.8951L85.743 50.059C85.7416 49.9182 85.7834 49.7803 85.8629 49.6637Z" fill="#E6E6E6"/>
<path d="M86.2455 51.1162H88.7842V52.3767H86.2455V51.1162Z" fill="white"/>
<path d="M91.5829 47.1328H96.4651C96.5373 47.1328 96.6088 47.1483 96.6744 47.1783C96.7401 47.2083 96.7984 47.252 96.8455 47.3065C96.8926 47.3609 96.9272 47.4249 96.947 47.4939C96.9669 47.5629 96.9715 47.6353 96.9605 47.7063L96.2227 52.4685H91.9864L91.0903 47.7223C91.0767 47.6504 91.0792 47.5764 91.0977 47.5057C91.1162 47.4349 91.1502 47.369 91.1972 47.3127C91.2442 47.2564 91.3032 47.2111 91.3699 47.18C91.4365 47.1489 91.5093 47.1328 91.5829 47.1328V47.1328Z" fill="white"/>
<path d="M67.1297 55.0673H81.1261C80.1476 49.8134 80.3727 43.4692 81.1261 36.6465H67.1297C67.8631 43.4692 68.0822 49.8134 67.1297 55.0673Z" fill="#E6E6E6"/>
<path d="M74.0434 48.7043C72.1807 48.7043 70.6708 47.2048 70.6708 45.3551C70.6708 43.5054 72.1807 42.0059 74.0434 42.0059C75.906 42.0059 77.416 43.5054 77.416 45.3551C77.416 47.2048 75.906 48.7043 74.0434 48.7043Z" fill="white"/>
<path d="M59.204 56.2401H73.2004C72.2219 50.9863 72.447 44.6421 73.2004 37.8193H59.204C59.9374 44.6421 60.1566 50.9863 59.204 56.2401Z" fill="#E6E6E6"/>
<path d="M66.1178 49.8762C64.2552 49.8762 62.7452 48.3767 62.7452 46.527C62.7452 44.6772 64.2552 43.1777 66.1178 43.1777C67.9805 43.1777 69.4905 44.6772 69.4905 46.527C69.4905 48.3767 67.9805 49.8762 66.1178 49.8762Z" fill="white"/>
<path d="M59.204 55.4022H73.2004C72.2219 50.1484 72.447 43.8042 73.2004 36.9814H59.204C59.9374 43.8042 60.1566 50.1484 59.204 55.4022Z" fill="#E6E6E6"/>
<path d="M66.1178 49.0393C64.2552 49.0393 62.7452 47.5398 62.7452 45.6901C62.7452 43.8403 64.2552 42.3408 66.1178 42.3408C67.9805 42.3408 69.4905 43.8403 69.4905 45.6901C69.4905 47.5398 67.9805 49.0393 66.1178 49.0393Z" fill="white"/>
<path d="M59.204 56.2401H73.2004C72.2219 50.9863 72.447 44.6421 73.2004 37.8193H59.204C59.9374 44.6421 60.1566 50.9863 59.204 56.2401Z" fill="#E6E6E6"/>
<path d="M66.1178 49.8762C64.2552 49.8762 62.7452 48.3767 62.7452 46.527C62.7452 44.6772 64.2552 43.1777 66.1178 43.1777C67.9805 43.1777 69.4905 44.6772 69.4905 46.527C69.4905 48.3767 67.9805 49.8762 66.1178 49.8762Z" fill="white"/>
<path d="M56 54.0625H101.868V59.0864H56V54.0625Z" fill="#E6E6E6"/>
<path d="M148.333 29.3936H150.681C150.763 29.3936 150.842 29.4261 150.901 29.4841C150.959 29.5421 150.992 29.6207 150.992 29.7027V30.7262C150.992 30.8081 150.959 30.8868 150.901 30.9447C150.842 31.0027 150.763 31.0353 150.681 31.0353H150.291V32.5688H148.722V31.0353H148.333C148.25 31.0353 148.171 31.0027 148.112 30.9447C148.054 30.8868 148.021 30.8081 148.021 30.7262V29.7027C148.021 29.6207 148.054 29.5421 148.112 29.4841C148.171 29.4261 148.25 29.3936 148.333 29.3936Z" fill="#E6E6E6"/>
<path d="M145.981 38.7599C147.419 36.6704 148.154 34.1824 148.081 31.6525C148.08 31.5942 148.099 31.5371 148.135 31.4912C148.171 31.4452 148.222 31.413 148.28 31.4002V30.958H150.759V31.3941H150.794C150.827 31.3941 150.86 31.4007 150.891 31.4135C150.922 31.4262 150.95 31.4448 150.973 31.4683C150.997 31.4918 151.016 31.5197 151.028 31.5504C151.041 31.5811 151.048 31.6139 151.048 31.6471C151.048 31.6532 151.047 31.6594 151.047 31.6655C150.852 34.3699 151.511 36.7952 153.026 38.9413C153.113 39.0646 153.158 39.2127 153.153 39.3633L152.882 47.6927C152.875 47.8785 152.797 48.0546 152.663 48.1843C152.529 48.314 152.349 48.3872 152.162 48.3887H146.553C146.364 48.3871 146.182 48.3123 146.048 48.18C145.913 48.0477 145.836 47.8685 145.833 47.6805L145.728 39.5933C145.725 39.2965 145.813 39.0057 145.981 38.7599Z" fill="#E6E6E6"/>
<path d="M146.869 41.5273H151.751C151.823 41.5273 151.895 41.5429 151.96 41.5728C152.026 41.6028 152.084 41.6465 152.131 41.701C152.178 41.7555 152.213 41.8194 152.233 41.8884C152.253 41.9574 152.257 42.0299 152.246 42.1008L151.509 46.863H147.272L146.376 42.1168C146.363 42.045 146.365 41.971 146.384 41.9002C146.402 41.8294 146.436 41.7635 146.483 41.7072C146.53 41.6509 146.589 41.6056 146.656 41.5746C146.722 41.5435 146.795 41.5273 146.869 41.5273V41.5273Z" fill="white"/>
<path d="M163.946 48.9589H177.942C176.963 43.705 177.189 37.3608 177.942 30.5381H163.946C164.679 37.3609 164.898 43.7051 163.946 48.9589Z" fill="#E6E6E6"/>
<path d="M170.86 42.5949C168.997 42.5949 167.487 41.0954 167.487 39.2457C167.487 37.396 168.997 35.8965 170.86 35.8965C172.722 35.8965 174.232 37.396 174.232 39.2457C174.232 41.0954 172.722 42.5949 170.86 42.5949Z" fill="white"/>
<path d="M140 48.4561H185.868V53.4799H140V48.4561Z" fill="#E6E6E6"/>
<path d="M134.771 64.2207H135.885C135.924 64.2207 135.962 64.2362 135.989 64.2637C136.017 64.2912 136.033 64.3285 136.033 64.3673V64.8528C136.033 64.8917 136.017 64.929 135.989 64.9565C135.962 64.984 135.924 64.9995 135.885 64.9995H135.7V65.7269H134.956V64.9995H134.771C134.732 64.9995 134.695 64.984 134.667 64.9565C134.639 64.929 134.624 64.8917 134.624 64.8528V64.3673C134.624 64.3285 134.639 64.2912 134.667 64.2637C134.695 64.2362 134.732 64.2207 134.771 64.2207Z" fill="#E6E6E6"/>
<path d="M133.656 68.6647C134.338 67.6735 134.686 66.4934 134.652 65.2933C134.651 65.2656 134.66 65.2386 134.677 65.2168C134.695 65.1949 134.719 65.1797 134.746 65.1736V64.9639H135.922V65.1707H135.939C135.954 65.1707 135.97 65.1739 135.985 65.1799C135.999 65.186 136.013 65.1948 136.024 65.2059C136.035 65.2171 136.044 65.2303 136.05 65.2449C136.056 65.2594 136.059 65.275 136.059 65.2907C136.059 65.2936 136.059 65.2966 136.059 65.2995C135.95 66.524 136.283 67.747 136.997 68.7507C137.039 68.8092 137.06 68.8795 137.058 68.9509L136.929 72.9019C136.926 72.99 136.889 73.0736 136.825 73.1351C136.761 73.1966 136.676 73.2313 136.588 73.232H133.927C133.837 73.2313 133.751 73.1958 133.687 73.133C133.624 73.0703 133.587 72.9852 133.585 72.8961L133.536 69.06C133.534 68.9192 133.576 68.7813 133.656 68.6647Z" fill="#E6E6E6"/>
<path d="M134.039 70.1162H136.577V71.3767H134.039V70.1162Z" fill="white"/>
<path d="M129.587 64.2207H130.7C130.74 64.2207 130.777 64.2362 130.805 64.2637C130.833 64.2912 130.848 64.3285 130.848 64.3673V64.8528C130.848 64.8917 130.833 64.929 130.805 64.9565C130.777 64.984 130.74 64.9995 130.7 64.9995H130.516V65.7269H129.771V64.9995H129.587C129.548 64.9995 129.51 64.984 129.482 64.9565C129.455 64.929 129.439 64.8917 129.439 64.8528V64.3673C129.439 64.3481 129.443 64.329 129.45 64.3112C129.458 64.2934 129.469 64.2773 129.482 64.2637C129.496 64.25 129.512 64.2392 129.53 64.2319C129.548 64.2245 129.567 64.2207 129.587 64.2207Z" fill="#E6E6E6"/>
<path d="M128.471 68.6647C129.153 67.6735 129.502 66.4934 129.467 65.2933C129.467 65.2656 129.476 65.2386 129.493 65.2168C129.51 65.1949 129.534 65.1797 129.562 65.1736V64.9639H130.738V65.1707H130.754C130.77 65.1707 130.786 65.1739 130.8 65.1799C130.815 65.186 130.828 65.1948 130.839 65.2059C130.851 65.2171 130.859 65.2303 130.865 65.2449C130.872 65.2594 130.875 65.275 130.875 65.2907C130.875 65.2936 130.875 65.2966 130.874 65.2995C130.766 66.524 131.098 67.747 131.813 68.7507C131.854 68.8092 131.876 68.8795 131.873 68.9509L131.745 72.9019C131.742 72.99 131.704 73.0736 131.641 73.1351C131.577 73.1966 131.492 73.2313 131.403 73.232H128.743C128.653 73.2313 128.567 73.1958 128.503 73.133C128.439 73.0703 128.403 72.9852 128.401 72.8961L128.351 69.06C128.35 68.9192 128.392 68.7813 128.471 68.6647Z" fill="#E6E6E6"/>
<path d="M128.854 70.1162H131.393V71.3767H128.854V70.1162Z" fill="white"/>
<path d="M124.402 64.2207H125.516C125.555 64.2207 125.593 64.2362 125.62 64.2637C125.648 64.2912 125.664 64.3285 125.664 64.3673V64.8528C125.664 64.8917 125.648 64.929 125.62 64.9565C125.593 64.984 125.555 64.9995 125.516 64.9995H125.331V65.7269H124.587V64.9995H124.402C124.363 64.9995 124.325 64.984 124.298 64.9565C124.27 64.929 124.254 64.8917 124.254 64.8528V64.3673C124.254 64.3285 124.27 64.2912 124.298 64.2637C124.325 64.2362 124.363 64.2207 124.402 64.2207Z" fill="#E6E6E6"/>
<path d="M123.286 68.6647C123.969 67.6735 124.317 66.4934 124.283 65.2933C124.282 65.2656 124.291 65.2386 124.308 65.2168C124.325 65.1949 124.35 65.1797 124.377 65.1736V64.9639H125.553V65.1707H125.569C125.585 65.1707 125.601 65.1739 125.616 65.1799C125.63 65.186 125.643 65.1948 125.655 65.2059C125.666 65.2171 125.675 65.2303 125.681 65.2449C125.687 65.2594 125.69 65.275 125.69 65.2907C125.69 65.2936 125.69 65.2966 125.69 65.2995C125.581 66.524 125.914 67.747 126.628 68.7507C126.67 68.8092 126.691 68.8795 126.689 68.9509L126.56 72.9019C126.557 72.99 126.52 73.0736 126.456 73.1351C126.392 73.1966 126.307 73.2313 126.218 73.232H123.558C123.468 73.2313 123.382 73.1958 123.318 73.133C123.254 73.0703 123.218 72.9852 123.216 72.8961L123.167 69.06C123.165 68.9192 123.207 68.7813 123.286 68.6647Z" fill="#E6E6E6"/>
<path d="M123.669 70.1162H126.208V71.3767H123.669V70.1162Z" fill="white"/>
<path d="M109.411 54.5684H111.759C111.842 54.5684 111.921 54.6009 111.98 54.6589C112.038 54.7169 112.071 54.7955 112.071 54.8775V55.901C112.071 55.983 112.038 56.0616 111.98 56.1196C111.921 56.1775 111.842 56.2101 111.759 56.2101H111.37V57.7436H109.8V56.2101H109.411C109.37 56.2101 109.33 56.2021 109.292 56.1866C109.254 56.171 109.22 56.1483 109.191 56.1196C109.162 56.0908 109.139 56.0568 109.124 56.0193C109.108 55.9818 109.1 55.9416 109.1 55.901V54.8775C109.1 54.7955 109.133 54.7169 109.191 54.6589C109.25 54.6009 109.329 54.5684 109.411 54.5684Z" fill="#E6E6E6"/>
<path d="M107.06 63.9347C108.498 61.8452 109.233 59.3572 109.16 56.8273C109.158 56.769 109.177 56.712 109.214 56.666C109.25 56.62 109.301 56.5878 109.358 56.5751V56.1328H111.838V56.5689H111.872C111.906 56.5689 111.939 56.5755 111.97 56.5883C112.001 56.601 112.029 56.6197 112.052 56.6431C112.076 56.6666 112.095 56.6945 112.107 56.7252C112.12 56.7559 112.127 56.7887 112.127 56.8219C112.127 56.8281 112.126 56.8342 112.126 56.8403C111.93 59.5447 112.59 61.97 114.105 64.1161C114.192 64.2394 114.237 64.3875 114.232 64.5381L113.961 72.8675C113.954 73.0533 113.876 73.2294 113.742 73.3591C113.607 73.4888 113.428 73.562 113.241 73.5635H107.632C107.442 73.5619 107.261 73.4871 107.127 73.3548C106.992 73.2225 106.915 73.0433 106.912 72.8553L106.807 64.7681C106.804 64.4713 106.892 64.1806 107.06 63.9347Z" fill="#E6E6E6"/>
<path d="M107.948 66.7022H112.83C112.902 66.7022 112.974 66.7177 113.039 66.7477C113.105 66.7776 113.163 66.8213 113.21 66.8758C113.258 66.9303 113.292 66.9942 113.312 67.0632C113.332 67.1322 113.336 67.2047 113.325 67.2756L112.588 72.0378H108.351L107.455 67.2916C107.442 67.2198 107.444 67.1458 107.463 67.075C107.481 67.0042 107.515 66.9383 107.562 66.882C107.609 66.8258 107.668 66.7805 107.735 66.7494C107.802 66.7183 107.874 66.7022 107.948 66.7021V66.7022Z" fill="white"/>
<path d="M97 72.9609H142.868V77.9848H97V72.9609Z" fill="#E6E6E6"/>
</svg>
