<svg width="168" height="72" viewBox="0 0 168 72" fill="none" xmlns="http://www.w3.org/2000/svg">
<g clip-path="url(#clip0_560_136)">
<path d="M34.4274 20.0312C35.1861 19.9243 35.9448 20.0739 36.6819 20.2343C38.2752 20.6191 39.7167 21.5812 40.6597 22.9067C41.6027 24.1894 42.0471 25.8036 41.9387 27.375C41.8411 29.0105 41.1041 30.6032 39.9227 31.7577C38.7846 32.9015 37.213 33.6177 35.598 33.746C33.5495 33.9384 31.4251 33.1688 30.0052 31.7043C28.7154 30.4322 28.0325 28.6256 28 26.8405C28.065 25.3225 28.5745 23.8046 29.5499 22.6074C30.7205 21.1322 32.5415 20.2236 34.4274 20.0312Z" fill="#47A2DA"/>
<path d="M49.7209 21.6562C50.924 21.3997 52.2246 21.5173 53.3302 22.0624C54.8476 22.7786 55.9857 24.2431 56.2892 25.8786C56.5818 27.3324 56.235 28.8824 55.3462 30.0797C54.5333 31.2021 53.2543 31.9824 51.8669 32.2069C50.3278 32.4848 48.6695 32.0466 47.4664 31.0631C46.415 30.208 45.6997 28.9573 45.5371 27.6104C45.3203 26.0283 45.8514 24.3607 46.9787 23.2062C47.7049 22.4366 48.6803 21.8914 49.7209 21.6562Z" fill="#F16164"/>
<path d="M74.531 24.5852C75.5932 24.5852 76.6554 24.5852 77.7176 24.5852C80.4273 31.8863 83.1478 39.198 85.8684 46.499C84.4051 46.4883 82.9419 46.499 81.4787 46.499C80.9584 45.0987 80.449 43.6983 79.907 42.3087C77.3816 42.3087 74.8562 42.3087 72.3307 42.3087C71.7996 43.6983 71.2902 45.0987 70.7699 46.499C69.3067 46.5097 67.8326 46.499 66.3694 46.5097C69.1008 39.198 71.8105 31.8863 74.531 24.5852ZM76.0051 32.3673C75.1922 34.5907 74.3467 36.8035 73.5338 39.027C75.2572 39.0163 76.9914 39.0163 78.7148 39.027C77.8693 36.7073 77.0022 34.409 76.146 32.1001C76.0918 32.1856 76.0376 32.2711 76.0051 32.3673ZM103.915 24.6494C105.075 24.2645 106.462 24.7883 107.047 25.8573C107.6 26.8087 107.47 28.0807 106.722 28.8932C105.812 29.9621 104.012 30.069 102.972 29.1176C102.051 28.348 101.812 26.9476 102.376 25.9107C102.701 25.3121 103.265 24.8525 103.915 24.6494ZM112.326 27.418C113.702 27.418 115.079 27.418 116.445 27.418C116.434 28.7863 116.445 30.1652 116.445 31.5335C118.103 31.5549 119.75 31.5335 121.409 31.5442C121.409 32.6345 121.398 33.7249 121.409 34.8152C119.75 34.8259 118.092 34.8045 116.445 34.8259C116.445 36.8997 116.445 38.9842 116.445 41.0687C116.423 41.817 116.846 42.5545 117.539 42.8859C118.58 43.399 119.805 43.2601 120.899 42.9821C121.073 44.0511 121.235 45.1307 121.398 46.1997C119.61 46.8839 117.604 46.9907 115.762 46.467C114.7 46.157 113.713 45.5049 113.128 44.5535C112.564 43.6342 112.358 42.5438 112.326 41.4856C112.326 39.2621 112.326 37.0494 112.326 34.8259C111.231 34.8152 110.147 34.8259 109.053 34.8259C109.053 33.7356 109.053 32.6452 109.053 31.5442C110.147 31.5442 111.231 31.5442 112.326 31.5442C112.326 30.1652 112.326 28.7863 112.326 27.418ZM129.386 31.2876C131.034 30.9883 132.789 31.1914 134.318 31.8863C135.911 32.5918 137.255 33.8318 138.079 35.3497C138.848 36.7607 139.141 38.4176 138.935 39.9997C138.729 41.6245 137.96 43.1745 136.8 44.3504C135.532 45.6545 133.808 46.5097 131.998 46.7449C130.286 46.9801 128.508 46.6594 126.991 45.8576C125.332 44.9811 123.988 43.5166 123.306 41.7742C122.72 40.299 122.634 38.6314 123.024 37.0921C123.75 34.1418 126.373 31.8007 129.386 31.2876ZM130.275 35.0504C129.028 35.2214 127.879 35.9911 127.251 37.0707C126.611 38.1397 126.535 39.5187 127.056 40.6518C127.717 42.1376 129.332 43.1318 130.979 43.089C132.28 43.0676 133.559 42.4156 134.318 41.368C135.055 40.3738 135.293 39.0376 134.903 37.8618C134.318 35.9697 132.237 34.719 130.275 35.0504ZM84.5569 31.5442C85.9334 31.5442 87.3099 31.5442 88.6756 31.5442C90.0413 35.1573 91.3528 38.7918 92.7293 42.4049C94.1058 38.7918 95.4282 35.1573 96.7939 31.5442C98.1704 31.5442 99.5361 31.5442 100.913 31.5442C99.07 36.5256 97.1949 41.4963 95.3631 46.4883C93.6181 46.5204 91.8839 46.4883 90.1388 46.499C88.2637 41.5176 86.4211 36.5256 84.5569 31.5442ZM102.668 31.5442C104.045 31.5442 105.411 31.5442 106.787 31.5442C106.787 36.5256 106.787 41.5176 106.787 46.499C105.411 46.499 104.045 46.499 102.668 46.499C102.668 41.507 102.668 36.5256 102.668 31.5442Z" fill="black"/>
<path d="M49.8078 34.3448C51.3035 34.1631 52.8535 34.3448 54.2517 34.9328C56.1918 35.7345 57.7959 37.2738 58.6522 39.1659C59.5193 41.0472 59.6494 43.2493 58.999 45.2162C58.0669 48.1879 55.303 50.4969 52.1814 50.9031C50.0462 51.2238 47.8026 50.7107 46.0467 49.4707C44.4859 48.391 43.3153 46.7662 42.7951 44.949C42.2748 43.1317 42.3832 41.1328 43.1311 39.3797C44.2366 36.6966 46.8813 34.7083 49.8078 34.3448Z" fill="#97CA3D"/>
<path d="M34.1023 38.8457C35.8148 38.4288 37.7333 39.3053 38.5029 40.866C39.034 41.8708 39.0665 43.1108 38.6221 44.1584C38.1452 45.2808 37.1047 46.1574 35.9016 46.4246C34.2757 46.8309 32.4548 46.0826 31.6094 44.6502C30.6881 43.1857 30.9157 41.1333 32.1622 39.9253C32.6824 39.3908 33.3761 39.0167 34.1023 38.8457Z" fill="#AA75B2"/>
</g>
<defs>
<clipPath id="clip0_560_136">
<rect width="111" height="31" fill="white" transform="translate(28 20)"/>
</clipPath>
</defs>
</svg>
