<svg width="168" height="72" viewBox="0 0 168 72" fill="none" xmlns="http://www.w3.org/2000/svg">
<g clip-path="url(#clip0_560_110)">
<path fill-rule="evenodd" clip-rule="evenodd" d="M88.0714 17.5996H89.8109C91.537 17.7126 93.3093 17.9682 94.8481 18.8208C95.9076 19.397 96.8114 20.3431 97.1508 21.5311C97.5984 23.0398 97.2359 24.664 96.4866 26.0093C94.9491 28.8449 92.7157 31.1977 90.7232 33.6991C90.1685 34.4178 89.5494 35.1095 89.1832 35.9511C89.0555 36.2435 88.9655 36.6501 89.2367 36.891C89.581 37.1649 90.0505 37.1367 90.4641 37.1305C94.7471 36.843 98.9377 35.7459 102.96 34.2741C104.929 33.5725 106.843 32.7322 108.781 31.9545C108.148 32.4299 107.443 32.8022 106.765 33.1978C104.069 34.6955 101.292 36.0412 98.4487 37.2288C95.5998 38.3898 92.6853 39.4931 89.626 39.9194C88.4716 40.0251 87.2004 40.1308 86.1555 39.5226C85.3186 39.0312 85.0741 37.9254 85.304 37.0273C85.6361 35.714 86.4803 34.6181 87.299 33.5738C89.4229 31.0048 91.7572 28.6041 93.6463 25.8435C94.1791 25.0658 94.6754 24.2291 94.853 23.2868C94.9527 22.729 94.9211 22.1233 94.6231 21.6294C94.2022 20.9303 93.4541 20.5237 92.7267 20.2276C91.346 19.671 89.8863 19.3577 88.485 18.8638C87.9753 19.155 87.4681 19.4499 86.9608 19.7435C87.2868 20.0408 87.6092 20.3443 87.9339 20.6441C85.7952 20.9909 83.6763 21.4535 81.5867 22.0299C78.8376 22.8064 76.142 23.7598 73.4439 24.7009C73.6872 25.3508 73.9585 25.9909 74.1823 26.6494C73.4074 27.3571 72.6812 28.1139 71.9477 28.8609C71.5813 28.7237 71.2241 28.5624 70.8785 28.378C70.8724 29.5993 70.8992 30.8205 70.8627 32.0405C69.7168 32.5319 68.6172 33.1831 67.7122 34.0554C67.2767 34.5013 66.8704 35.026 66.739 35.6525C66.5493 36.5568 67.1477 37.5188 68.0041 37.8063C68.5688 38.0889 69.1705 38.2887 69.791 38.3997C71.55 38.708 73.3478 38.5631 75.1092 38.353C77.2277 38.0671 79.3262 37.6461 81.392 37.0924C79.8826 37.9096 78.3147 38.6115 76.7015 39.1921C74.2806 40.0391 71.7441 40.5012 69.1828 40.562C67.4798 40.5092 65.6686 40.2057 64.3171 39.0778C63.2941 38.2375 62.8112 36.8578 62.9304 35.5493C63.052 33.8084 63.8926 32.226 64.8536 30.8119C67.6039 26.5364 71.6254 23.1786 76.1566 20.9733C79.8946 19.1783 83.9198 17.8674 88.0702 17.5996H88.0714ZM105.121 37.7227C104.894 37.8183 104.697 37.9751 104.553 38.176C104.409 38.3769 104.322 38.6141 104.302 38.8616C104.228 39.5742 104.812 40.2929 105.532 40.3052C106.317 40.4084 107.056 39.6541 106.949 38.8628C106.92 37.9856 105.909 37.3689 105.124 37.7276L105.121 37.7227ZM105.329 37.9107C104.547 38.1171 104.261 39.2302 104.886 39.7683C105.437 40.3519 106.506 40.0263 106.681 39.2499C106.925 38.4722 106.099 37.6441 105.329 37.9107ZM105.032 38.2092C105.032 38.724 105.026 39.2388 105.032 39.7536C105.397 39.7253 105.183 39.2793 105.242 39.0447C105.831 38.912 105.812 39.7818 106.346 39.7364C106.211 39.5042 106.066 39.2781 105.919 39.0545C106.201 38.9243 106.329 38.5397 106.088 38.3075C105.767 38.1318 105.376 38.2338 105.027 38.2092H105.032ZM105.244 38.4156C105.244 38.5274 105.244 38.751 105.244 38.8616C105.478 38.8198 105.801 38.9427 105.973 38.7216C106.07 38.2756 105.497 38.4758 105.244 38.4156ZM98.7686 44.663C99.6019 44.1347 100.63 43.9787 101.598 44.0831C102.335 44.1667 103.089 44.4333 103.606 44.9923C103.971 45.3953 104.16 45.9199 104.324 46.4297C104.006 46.5409 103.681 46.6316 103.351 46.7013C103.156 46.2749 103.025 45.781 102.632 45.4862C101.811 44.8596 100.637 44.8547 99.7211 45.2638C98.7479 45.7036 98.2942 46.818 98.2273 47.8352C98.1604 48.8525 98.3599 50.0037 99.1664 50.6979C100.366 51.6685 102.207 51.5001 103.346 50.5197C103.378 50.0283 103.346 49.5368 103.357 49.0516H101.046C101.046 48.7333 101.046 48.4164 101.046 48.0982C102.171 48.0982 103.295 48.0982 104.42 48.0982C104.42 49.0946 104.42 50.0897 104.42 51.0861C103.522 51.7889 102.436 52.3024 101.282 52.3147C99.9996 52.3688 98.6251 51.881 97.8539 50.8011C97.1374 49.7776 96.9841 48.4446 97.197 47.2382C97.3928 46.2356 97.8867 45.2269 98.7686 44.6716V44.663ZM44.8811 44.1372C45.875 44.1372 46.8676 44.1372 47.8614 44.1372C49.1544 46.8241 50.4888 49.4926 51.7795 52.1808C50.7784 52.1808 49.7772 52.1906 48.7761 52.1746C48.5864 51.6893 48.3905 51.2065 48.1764 50.7323C46.8177 50.747 45.4589 50.7323 44.1002 50.7323C43.8861 51.2065 43.672 51.6807 43.4762 52.1623C42.5845 52.1894 41.6929 52.1734 40.8 52.1722C40.9764 51.6562 41.2684 51.1954 41.5019 50.7077C42.6295 48.5159 43.7474 46.3179 44.8799 44.1286L44.8811 44.1372ZM44.9067 48.9582C45.7582 48.9582 46.6097 48.9582 47.4612 48.9582C47.0585 48.0195 46.6413 47.0883 46.2448 46.1484C45.7375 47.0514 45.3641 48.0245 44.9067 48.9557V48.9582ZM52.1176 44.1372H54.7013V52.1832C53.8401 52.1832 52.9789 52.1832 52.1176 52.1832C52.1176 49.5008 52.1176 46.8188 52.1176 44.1372ZM56.2218 44.1372C57.0843 44.1372 57.9455 44.1372 58.808 44.1372C58.808 44.6987 58.808 45.2614 58.808 45.824C57.9492 45.8302 57.0904 45.824 56.2316 45.8326C56.2145 45.2675 56.2231 44.7011 56.2218 44.136V44.1372ZM60.2044 44.1372C61.0681 44.1372 61.9317 44.1298 62.7942 44.1372C62.782 45.1987 62.7942 46.2614 62.7844 47.3242C63.175 46.9409 63.6549 46.6632 64.1799 46.5167C64.7048 46.3703 65.2578 46.3598 65.7878 46.4863C66.8363 46.6914 67.6708 47.608 67.8642 48.6584C68.0199 49.5516 67.9688 50.5627 67.3849 51.2999C66.2841 52.6685 63.9668 52.6366 62.8063 51.3552C62.7844 51.6291 62.7565 51.9019 62.7236 52.1759C61.86 52.182 60.9963 52.1759 60.1326 52.1759C60.2397 51.5456 60.202 50.9055 60.2056 50.2691C60.2056 48.2214 60.2056 46.1738 60.2056 44.1261L60.2044 44.1372ZM63.625 47.8807C63.164 48.0134 62.8732 48.4729 62.8161 48.9348C62.7467 49.4754 62.7577 50.086 63.108 50.532C63.5946 51.134 64.6516 51.08 65.0543 50.4177C65.4095 49.8465 65.4058 49.0786 65.1346 48.4741C64.8791 47.9126 64.1845 47.6841 63.6225 47.8795L63.625 47.8807ZM77.3876 49.9079C77.3876 47.9827 77.3791 46.0575 77.3876 44.1335C78.2476 44.1433 79.1076 44.1335 79.9676 44.1396C79.9676 45.1962 79.9676 46.2528 79.9676 47.3094C81.1098 46.1717 83.1911 46.0636 84.3248 47.2652C85.0425 48.0318 85.2225 49.167 85.0547 50.1782C84.9745 50.621 84.7801 51.0346 84.4912 51.3774C84.2022 51.7201 83.8289 51.9799 83.4089 52.1304C82.2399 52.5334 80.7923 52.3159 79.9664 51.3281C79.9589 51.6161 79.9337 51.9033 79.891 52.1881C79.0273 52.1881 78.1649 52.1881 77.3012 52.1881C77.4326 51.4362 77.3778 50.6721 77.3876 49.914V49.9079ZM80.7765 47.8918C80.5811 47.9622 80.4076 48.0834 80.2735 48.2433C80.1393 48.4032 80.0494 48.5959 80.0126 48.8022C79.8812 49.3698 79.9141 50.0234 80.2559 50.5111C80.7303 51.1254 81.7971 51.091 82.2204 50.4313C82.5853 49.8477 82.5853 49.0577 82.2873 48.4459C82.0258 47.8918 81.3215 47.6878 80.7729 47.8918H80.7765ZM107.551 46.3093C108.03 46.1459 108.524 46.3364 108.954 46.5551C108.832 46.8696 108.721 47.1841 108.605 47.4974C108.326 47.3942 108.038 47.2517 107.735 47.3106C106.847 47.4777 106.801 48.5724 106.793 49.3022C106.793 50.2617 106.793 51.2212 106.793 52.1808C106.459 52.1881 106.126 52.1906 105.793 52.1931C105.778 50.2568 105.793 48.3193 105.786 46.3831H106.7C106.7 46.6521 106.7 46.9224 106.692 47.1927C106.915 46.8499 107.133 46.4469 107.544 46.3143L107.551 46.3093ZM111.331 46.3167C112.254 46.1177 113.31 46.3413 113.958 47.0698C114.628 47.7947 114.743 48.8587 114.64 49.8035C114.593 50.4558 114.364 51.1168 113.89 51.5763C112.991 52.4216 111.529 52.5469 110.484 51.9105C109.795 51.4928 109.414 50.7065 109.324 49.9202C109.233 49.1339 109.274 48.2628 109.657 47.5404C109.83 47.2247 110.07 46.9512 110.359 46.739C110.648 46.5267 110.98 46.3809 111.331 46.3118V46.3167ZM111.556 47.1472C110.833 47.3389 110.395 48.0687 110.339 48.7874C110.265 49.5823 110.312 50.5283 110.947 51.0922C111.596 51.7065 112.753 51.5616 113.239 50.8097C113.705 50.0725 113.711 49.1216 113.502 48.3021C113.293 47.4826 112.376 46.8806 111.546 47.1472H111.556ZM124.054 46.3622C124.852 46.1054 125.805 46.2835 126.398 46.9003C126.912 47.4102 127.128 48.1436 127.2 48.8488V49.7211C127.136 50.2224 126.977 50.7065 126.733 51.1475C126.475 51.5803 126.088 51.919 125.627 52.1147C125.166 52.3104 124.655 52.3529 124.169 52.2361C123.793 52.1402 123.495 51.8785 123.207 51.6316C123.226 52.5506 123.207 53.4745 123.216 54.3873L122.218 54.3959C122.208 51.7225 122.218 49.0479 122.218 46.3745C122.522 46.3745 122.826 46.3745 123.132 46.3745C123.132 46.603 123.124 46.8315 123.12 47.0625C123.401 46.7909 123.674 46.4764 124.058 46.356L124.054 46.3622ZM124.21 47.1423C123.653 47.388 123.295 47.963 123.193 48.5552C123.072 49.2297 123.085 49.9595 123.357 50.5959C123.612 51.2102 124.31 51.6193 124.959 51.4375C125.638 51.2556 126.063 50.5713 126.133 49.8944C126.199 49.2481 126.214 48.5626 125.953 47.9556C125.681 47.2984 124.896 46.8315 124.21 47.1423ZM115.918 46.3781H116.92C116.92 47.5985 116.92 48.8185 116.92 50.0381C116.927 50.4128 116.948 50.8441 117.244 51.1156C117.717 51.5751 118.517 51.4842 119.014 51.107C119.465 50.7888 119.546 50.1868 119.566 49.6732C119.566 48.5749 119.566 47.4765 119.566 46.3781H120.566C120.573 48.3144 120.566 50.2494 120.566 52.1857H119.653C119.653 51.9265 119.653 51.666 119.653 51.4068C118.975 52.3896 117.517 52.5997 116.564 51.9203C116.087 51.5837 115.91 50.9669 115.909 50.4042C115.909 49.0638 115.909 47.7234 115.909 46.3818L115.918 46.3781ZM69.6232 47.1669C70.2314 46.6239 71.0829 46.5256 71.8626 46.458C72.8528 46.415 73.8879 46.3953 74.8197 46.7836C75.3939 47.017 75.8707 47.5342 75.951 48.1694C76.0811 49.5024 75.8719 50.8564 76.0726 52.1845C75.2747 52.1845 74.4763 52.1845 73.6775 52.1845C73.6264 51.9265 73.5814 51.6697 73.5558 51.4092C73.0608 52.0309 72.2543 52.2766 71.4879 52.3024C70.7216 52.3282 69.9066 52.2754 69.2765 51.7962C68.6464 51.3171 68.6038 50.3711 69.0247 49.758C69.2911 49.3538 69.7545 49.1437 70.1949 49C71.2811 48.6695 72.427 48.6781 73.5498 48.6142C73.5267 48.2935 73.4464 47.904 73.1009 47.7886C72.5474 47.5711 71.6838 47.6202 71.5001 48.3107C70.711 48.3107 69.9212 48.3107 69.1305 48.3107C69.1621 47.8868 69.2923 47.4507 69.6256 47.1657L69.6232 47.1669ZM71.8565 49.9239C71.5706 49.9988 71.3225 50.2924 71.4137 50.602C71.4746 50.9166 71.8237 51.0198 72.0974 51.048C72.5207 51.0652 73.0231 50.9927 73.287 50.6168C73.4756 50.3711 73.4865 50.0479 73.5133 49.7568C72.9598 49.7838 72.3905 49.7568 71.8565 49.9288V49.9239ZM87.052 46.9703C88.0106 46.4248 89.1565 46.4371 90.2245 46.4469C91.0906 46.4961 92.0637 46.614 92.6999 47.275C93.3081 47.9176 93.1451 48.8722 93.1707 49.6769C93.2047 50.5123 93.0891 51.3613 93.2497 52.1869C92.4457 52.1869 91.6416 52.198 90.8388 52.1783C90.7938 51.9326 90.7548 51.6783 90.7244 51.4264C90.1247 52.1402 89.154 52.3417 88.2685 52.3122C87.5812 52.2877 86.8088 52.1894 86.3076 51.6672C85.9147 51.2851 85.8575 50.6733 85.9962 50.1647C86.1349 49.656 86.5752 49.3046 87.046 49.1204C88.2222 48.6523 89.5068 48.7149 90.7439 48.5994C90.6685 48.2935 90.6076 47.8991 90.2646 47.7861C89.7099 47.5834 88.8536 47.6313 88.6687 48.3181C87.8816 48.3181 87.0946 48.3181 86.3088 48.3181C86.3173 47.7787 86.5703 47.2345 87.052 46.9666V46.9703ZM88.9266 49.9681C88.5555 50.0909 88.4278 50.6561 88.7696 50.8871C89.1856 51.1549 89.7562 51.0873 90.1819 50.8736C90.6077 50.6598 90.6685 50.1708 90.6928 49.7543C90.1028 49.7912 89.4861 49.7482 88.9266 49.9681ZM56.2218 46.5649C57.0855 46.5649 57.9492 46.5489 58.8128 46.5772C58.7909 48.4483 58.8262 50.3207 58.7946 52.1918C57.9431 52.1759 57.0806 52.1918 56.2231 52.1832C56.2231 50.3109 56.2231 48.4381 56.2231 46.5649H56.2218Z" fill="#FF7300"/>
<path fill-rule="evenodd" clip-rule="evenodd" d="M86.9634 19.743C87.4706 19.4493 87.9779 19.1545 88.4875 18.8633C89.8889 19.3547 91.3486 19.6705 92.7292 20.227C93.459 20.5268 94.2047 20.9298 94.6256 21.6288C94.9236 22.1203 94.9552 22.7284 94.8555 23.2862C94.8575 22.8112 94.6992 22.3497 94.4066 21.9778C93.8909 21.3561 93.1452 21.001 92.4251 20.6828C91.1953 20.184 89.9144 19.8339 88.6432 19.4641C88.4 19.6099 88.1591 19.7569 87.9207 19.9051C88.4072 20.3044 88.8938 20.7172 89.3804 21.1153C84.2714 21.9212 79.2841 23.3427 74.4184 25.0935C74.6349 25.6472 74.8486 26.2029 75.0595 26.7607C74.2846 27.5273 73.5012 28.2841 72.7483 29.0667C75.7042 29.9513 79.0031 29.3125 81.487 27.4905C81.2328 27.2128 80.9542 26.9597 80.6854 26.6968C81.2231 26.7582 81.7644 26.9609 82.1244 27.386C82.5587 27.8295 82.6791 28.4746 82.6706 29.0778L82.0624 29.0913C82.048 28.7397 81.9916 28.3911 81.8945 28.0531C81.0294 28.6787 80.0894 29.191 79.0968 29.5778C76.6746 30.4978 74.0103 30.5339 71.5647 29.6798C71.5647 30.6246 71.5586 31.5706 71.5647 32.5154C70.3611 32.979 69.2532 33.6643 68.2974 34.5364C67.8108 35.0131 67.3327 35.5795 67.2208 36.2786C67.1284 36.9027 67.5152 37.4801 68.0176 37.8057C67.1661 37.5182 66.5579 36.5562 66.7525 35.652C66.8815 35.0254 67.2877 34.5008 67.7257 34.0548C68.6307 33.1825 69.7303 32.5338 70.8762 32.0399C70.9127 30.8199 70.8859 29.5987 70.892 28.3775C71.2376 28.5618 71.5948 28.7231 71.9612 28.8603C72.6911 28.1097 73.4209 27.3528 74.1958 26.6489C73.972 25.9903 73.7019 25.3502 73.4574 24.7003C76.1555 23.7592 78.851 22.8058 81.6002 22.0294C83.6907 21.4541 85.8103 20.9928 87.9499 20.6472C87.6117 20.3437 87.2845 20.0403 86.9634 19.743Z" fill="#010001"/>
</g>
<defs>
<clipPath id="clip0_560_110">
<rect width="168" height="72" fill="white"/>
</clipPath>
</defs>
</svg>
