<svg width="40" height="40" viewBox="0 0 40 40" fill="none" xmlns="http://www.w3.org/2000/svg">
<g clip-path="url(#clip0_549_617)">
<path d="M22.5 31.875C16.6413 31.875 11.875 27.1087 11.875 21.25C11.875 15.3913 16.6413 10.625 22.5 10.625C28.3587 10.625 33.125 15.3913 33.125 21.25C33.125 27.1087 28.3587 31.875 22.5 31.875ZM22.5 13.75C18.3644 13.75 15 17.1144 15 21.25C15 25.3856 18.3644 28.75 22.5 28.75C26.6356 28.75 30 25.3856 30 21.25C30 17.1144 26.6356 13.75 22.5 13.75Z" fill="#5199FF"/>
<path d="M5.625 17.5H10.625V27.5H5.625V17.5Z" fill="#5199FF"/>
<path d="M31.7945 26.3867C31.587 26.7611 31.352 27.1167 31.102 27.4617L37.6301 33.9898C37.9445 34.3048 38.1251 34.7398 38.1251 35.1848C38.1251 36.1167 37.367 36.8748 36.4357 36.8748C35.9907 36.8748 35.5557 36.6942 35.2407 36.3798L28.712 29.8517C28.367 30.1017 28.0113 30.3367 27.637 30.5442L34.3563 37.2636C34.912 37.8192 35.6501 38.1248 36.4357 38.1248C38.057 38.1248 39.3751 36.8067 39.3751 35.1855C39.3751 34.3998 39.0695 33.6617 38.5138 33.1067L31.7945 26.3867Z" fill="#333333"/>
<path d="M10.625 33.125C9.93562 33.125 9.375 33.6856 9.375 34.375V35.625C9.375 36.3144 9.93562 36.875 10.625 36.875H14.375C15.0644 36.875 15.625 36.3144 15.625 35.625V34.375C15.625 33.6856 15.0644 33.125 14.375 33.125H10.625ZM10.625 35.625V34.375H14.375L14.3763 35.625H10.625Z" fill="#333333"/>
<path d="M4.375 33.125C3.68562 33.125 3.125 33.6856 3.125 34.375V35.625C3.125 36.3144 3.68562 36.875 4.375 36.875H5.625C6.31437 36.875 6.875 36.3144 6.875 35.625V34.375C6.875 33.6856 6.31437 33.125 5.625 33.125H4.375ZM4.375 35.625V34.375H5.625L5.62625 35.625H4.375Z" fill="#333333"/>
<path d="M19.375 33.125C18.6856 33.125 18.125 33.6856 18.125 34.375V35.625C18.125 36.3144 18.6856 36.875 19.375 36.875H20.625C21.3144 36.875 21.875 36.3144 21.875 35.625V34.375C21.875 33.6856 21.3144 33.125 20.625 33.125H19.375ZM19.375 35.625V34.375H20.625L20.6262 35.625H19.375Z" fill="#333333"/>
<path d="M12.5 4.375C12.8452 4.375 13.125 4.09518 13.125 3.75C13.125 3.40482 12.8452 3.125 12.5 3.125C12.1548 3.125 11.875 3.40482 11.875 3.75C11.875 4.09518 12.1548 4.375 12.5 4.375Z" fill="#333333"/>
<path d="M23.125 31.8431V36.25C23.125 37.2837 22.2838 38.125 21.25 38.125H3.75C2.71625 38.125 1.875 37.2837 1.875 36.25V3.75C1.875 2.71625 2.71625 1.875 3.75 1.875H9.375V3.75C9.375 4.45625 9.61937 5.10125 10.0162 5.625H4.375C3.68563 5.625 3.125 6.18563 3.125 6.875V30.625C3.125 31.3144 3.68563 31.875 4.375 31.875H22.5C20.6969 31.875 18.9994 31.4206 17.5106 30.625H4.375V6.875H20.625V10.8006C21.0338 10.7275 21.4513 10.6812 21.875 10.6562V6.875C21.875 6.18563 21.3144 5.625 20.625 5.625H14.9838C15.3806 5.10125 15.625 4.45625 15.625 3.75V1.875H21.25C22.2838 1.875 23.125 2.71625 23.125 3.75V10.6569C23.5481 10.6819 23.965 10.7275 24.3731 10.8006H24.3744V3.75C24.3744 2.02688 22.9725 0.625 21.2494 0.625H3.75C2.02688 0.625 0.625 2.02688 0.625 3.75V36.25C0.625 37.9731 2.02688 39.375 3.75 39.375H21.25C22.9731 39.375 24.375 37.9731 24.375 36.25V31.6994C24.3744 31.6994 24.3738 31.6994 24.3738 31.6994C23.965 31.7725 23.5481 31.8188 23.125 31.8431ZM14.375 3.75C14.375 4.78375 13.5337 5.625 12.5 5.625C11.4663 5.625 10.625 4.78375 10.625 3.75V1.875H14.375V3.75Z" fill="#333333"/>
<path d="M35.625 5.625H34.375V4.375H33.125V5.625H31.875V3.125H30.625V5.625H29.375V6.875H36.875V3.125H35.625V5.625Z" fill="#333333"/>
<path d="M37.5 0.625H28.75C27.7162 0.625 26.875 1.46625 26.875 2.5V9.74125C26.875 10.5731 27.5519 11.25 28.3838 11.25C28.7813 11.25 29.17 11.0887 29.4506 10.8081L30.8838 9.375H37.5C38.5337 9.375 39.375 8.53375 39.375 7.5V2.5C39.375 1.46625 38.5337 0.625 37.5 0.625ZM38.125 7.5C38.125 7.845 37.845 8.125 37.5 8.125H30.3662L28.5669 9.92437C28.4181 10.0737 28.125 9.9525 28.125 9.74125V2.5C28.125 2.155 28.405 1.875 28.75 1.875H37.5C37.845 1.875 38.125 2.155 38.125 2.5V7.5Z" fill="#333333"/>
<path d="M21.875 20.625H23.125V21.875H21.875V20.625Z" fill="#333333"/>
<path d="M26.875 20.625H28.125V21.875H26.875V20.625Z" fill="#333333"/>
<path d="M24.375 20.625H25.625V21.875H24.375V20.625Z" fill="#333333"/>
<path d="M16.875 20.625H18.125V21.875H16.875V20.625Z" fill="#333333"/>
<path d="M19.375 20.625H20.625V21.875H19.375V20.625Z" fill="#333333"/>
<path d="M14.375 21.25C14.375 25.73 18.02 29.375 22.5 29.375C26.98 29.375 30.625 25.73 30.625 21.25C30.625 16.77 26.98 13.125 22.5 13.125C18.02 13.125 14.375 16.77 14.375 21.25ZM29.375 21.25C29.375 25.0406 26.2906 28.125 22.5 28.125C18.7094 28.125 15.625 25.0406 15.625 21.25C15.625 17.4594 18.7094 14.375 22.5 14.375C26.2906 14.375 29.375 17.4594 29.375 21.25Z" fill="#333333"/>
<path d="M13.125 8.125H5.625V15.625H13.125V8.125ZM11.875 14.375H6.875V9.375H11.875V14.375Z" fill="#333333"/>
<path d="M5.625 16.875H10.625V18.125H5.625V16.875Z" fill="#333333"/>
<path d="M5.625 19.375H10.625V20.625H5.625V19.375Z" fill="#333333"/>
<path d="M5.625 21.875H10.625V23.125H5.625V21.875Z" fill="#333333"/>
<path d="M5.625 24.375H10.625V25.625H5.625V24.375Z" fill="#333333"/>
<path d="M5.625 26.875H10.625V28.125H5.625V26.875Z" fill="#333333"/>
</g>
<defs>
<clipPath id="clip0_549_617">
<rect width="40" height="40" fill="white"/>
</clipPath>
</defs>
</svg>
