<svg width="227" height="42" viewBox="0 0 227 42" fill="none" xmlns="http://www.w3.org/2000/svg">
<g clip-path="url(#clip0_12126_515)">
<path fill-rule="evenodd" clip-rule="evenodd" d="M122.89 11.9869C122.389 10.7186 121.893 9.51035 121.403 8.36226C120.912 7.21417 120.408 6.09342 119.891 5H117.197C116.674 6.09342 116.167 7.2251 115.677 8.39506C115.186 9.56502 114.691 10.7732 114.189 12.0197C113.688 13.2881 113.176 14.6303 112.653 16.0462C112.129 17.4622 111.578 19.0094 111 20.6878H113.933L114.569 18.8673C114.784 18.2549 114.999 17.6317 115.214 16.9975H121.775C121.984 17.6317 122.201 18.2495 122.427 18.8509C122.653 19.4522 122.871 20.0646 123.08 20.6878H126.129C125.545 19.0149 124.994 17.4677 124.476 16.0462C123.959 14.6248 123.43 13.2717 122.89 11.9869ZM115.916 14.6603C116.396 13.3154 116.856 12.0689 117.296 10.9209C117.737 9.77276 118.128 8.79962 118.469 8.00143C118.8 8.77229 119.188 9.73723 119.635 10.8963C120.081 12.0553 120.543 13.3072 121.023 14.6521L115.916 14.6603ZM135.284 13.4384H130.872V8.82149H128.162V20.6632H130.872V15.7428H135.284V20.6632H137.994V8.82149H135.284V13.4384ZM149.843 17.2271C149.358 16.6476 148.865 16.1009 148.364 15.587C147.905 15.1067 147.423 14.6496 146.918 14.2175L148.116 12.9874L149.463 11.5605L150.785 10.1254C151.209 9.65522 151.586 9.22606 151.917 8.83789H148.736C148.499 9.12218 148.201 9.46661 147.843 9.87117L146.711 11.1259L145.513 12.3806C145.111 12.8125 144.737 13.2006 144.39 13.5451V8.78869H141.679V20.6632H144.373V15.341C144.815 15.6773 145.234 16.0416 145.629 16.4317C146.064 16.8526 146.491 17.3009 146.91 17.7766C147.328 18.2522 147.728 18.7388 148.108 19.2363C148.488 19.7338 148.821 20.2094 149.108 20.6632H152.247C151.926 20.0989 151.576 19.5515 151.198 19.0231C150.785 18.4217 150.333 17.8258 149.843 17.2353V17.2271ZM158.734 8.52627C158.042 8.52665 157.358 8.66034 156.718 8.9199C156.056 9.1862 155.459 9.58868 154.966 10.1008C154.429 10.6653 154.013 11.3321 153.743 12.0607C153.42 12.9376 153.263 13.8662 153.28 14.7998C153.27 15.6331 153.39 16.463 153.636 17.2599C153.859 17.9777 154.234 18.6402 154.734 19.2035C155.254 19.7714 155.899 20.2121 156.618 20.491C157.477 20.819 158.392 20.9778 159.312 20.9584C159.71 20.9596 160.107 20.9377 160.502 20.8928C160.893 20.8491 161.256 20.7917 161.592 20.7206C161.894 20.66 162.192 20.5834 162.485 20.491C162.697 20.4279 162.905 20.3483 163.105 20.2532L162.749 18.0144C162.332 18.1818 161.901 18.3109 161.46 18.3998C160.868 18.5253 160.264 18.5858 159.659 18.5802C158.729 18.6336 157.813 18.3412 157.089 17.7602C156.784 17.4763 156.538 17.1352 156.367 16.7565C156.195 16.3779 156.101 15.9692 156.09 15.5542H163.823C163.823 15.4011 163.823 15.2316 163.823 15.0458C163.823 14.8599 163.823 14.6904 163.823 14.5373C163.946 12.9146 163.463 11.3038 162.468 10.0106C161.992 9.50887 161.411 9.11619 160.766 8.85986C160.121 8.60353 159.427 8.4897 158.734 8.52627ZM156.114 13.5779C156.16 13.231 156.243 12.8901 156.362 12.561C156.476 12.2383 156.646 11.9383 156.866 11.6753C157.094 11.412 157.376 11.1996 157.693 11.0521C158.035 10.8871 158.411 10.8055 158.791 10.8142C159.15 10.8045 159.507 10.8774 159.833 11.0275C160.121 11.1675 160.375 11.3691 160.576 11.6179C160.786 11.8808 160.944 12.1815 161.039 12.5036C161.145 12.852 161.198 13.214 161.196 13.5779H156.114ZM165.526 11.1177H169.293V20.6632H172.003V11.1095H175.771V8.82149H165.526V11.1177ZM187.066 10.232C186.572 9.68855 185.962 9.26014 185.282 8.9773C184.562 8.67787 183.789 8.52719 183.009 8.53447C182.232 8.52598 181.461 8.67673 180.745 8.9773C180.067 9.26383 179.458 9.69171 178.961 10.232C178.444 10.8016 178.048 11.468 177.796 12.192C177.51 13.0119 177.37 13.8749 177.383 14.7423C177.371 15.6124 177.511 16.478 177.796 17.3009C178.047 18.0262 178.44 18.6951 178.952 19.2691C179.448 19.808 180.054 20.2358 180.729 20.5238C181.451 20.8324 182.231 20.9861 183.018 20.9748C183.807 20.9848 184.589 20.8312 185.315 20.5238C185.995 20.2327 186.604 19.7991 187.099 19.2527C187.609 18.6794 187.997 18.01 188.24 17.2845C188.518 16.4602 188.655 15.5953 188.645 14.7259C188.657 13.8585 188.517 12.9955 188.231 12.1755C187.973 11.4552 187.574 10.7921 187.058 10.2238L187.066 10.232ZM185.108 17.5716C184.864 17.8941 184.548 18.1559 184.184 18.3362C183.821 18.5165 183.42 18.6103 183.014 18.6103C182.607 18.6103 182.206 18.5165 181.843 18.3362C181.479 18.1559 181.163 17.8941 180.919 17.5716C180.376 16.7299 180.113 15.7403 180.167 14.7423C180.114 13.7548 180.377 12.7759 180.919 11.9459C181.165 11.6263 181.482 11.3673 181.845 11.189C182.208 11.0107 182.608 10.9179 183.014 10.9179C183.419 10.9179 183.819 11.0107 184.182 11.189C184.545 11.3673 184.862 11.6263 185.108 11.9459C185.65 12.7759 185.913 13.7548 185.86 14.7423C185.909 15.7384 185.643 16.7247 185.1 17.5634L185.108 17.5716ZM193.66 10.3058C193.66 10.8525 193.66 11.3992 193.66 11.9459C193.66 12.4926 193.627 13.0558 193.561 13.6353C193.506 14.182 193.431 14.7068 193.338 15.2098C193.253 15.6698 193.114 16.1185 192.925 16.5465C192.717 17.0545 192.385 17.5027 191.958 17.8504C191.437 18.2348 190.831 18.4881 190.19 18.5884L190.57 20.8764C191.379 20.8145 192.168 20.5944 192.892 20.2286C193.487 19.9013 194.014 19.4643 194.445 18.9411C194.867 18.4528 195.205 17.8986 195.445 17.3009C195.687 16.6558 195.865 15.9882 195.974 15.3082C196.087 14.6077 196.159 13.9012 196.188 13.1924C196.216 12.4762 196.238 11.7847 196.255 11.1177H199.237V20.6632H201.947V8.82149H193.685L193.66 10.3058ZM214.664 10.2402C214.169 9.69675 213.56 9.26834 212.879 8.98551C212.16 8.68607 211.387 8.53539 210.607 8.54267C209.829 8.53418 209.059 8.68494 208.343 8.98551C207.664 9.27203 207.056 9.69992 206.558 10.2402C206.042 10.8098 205.646 11.4762 205.393 12.2002C205.107 13.02 204.967 13.8831 204.98 14.7505C204.968 15.6206 205.108 16.4862 205.393 17.3091C205.644 18.0344 206.037 18.7033 206.55 19.2773C207.041 19.8212 207.644 20.2546 208.318 20.5484C209.04 20.857 209.82 21.0107 210.607 20.9994C211.396 21.0094 212.178 20.8558 212.904 20.5484C213.584 20.2573 214.193 19.8237 214.689 19.2773C215.198 18.704 215.586 18.0346 215.829 17.3091C216.107 16.4848 216.244 15.6199 216.234 14.7505C216.246 13.8831 216.106 13.0201 215.821 12.2002C215.565 11.471 215.166 10.7994 214.647 10.2238L214.664 10.2402ZM212.706 17.5798C212.462 17.9023 212.145 18.1641 211.782 18.3444C211.418 18.5247 211.017 18.6185 210.611 18.6185C210.205 18.6185 209.804 18.5247 209.44 18.3444C209.077 18.1641 208.76 17.9023 208.516 17.5798C207.973 16.7381 207.71 15.7485 207.764 14.7505C207.711 13.763 207.974 12.7841 208.516 11.9541C208.762 11.6345 209.079 11.3755 209.443 11.1972C209.806 11.0189 210.206 10.9262 210.611 10.9262C211.016 10.9262 211.416 11.0189 211.779 11.1972C212.143 11.3755 212.46 11.6345 212.706 11.9541C213.247 12.7841 213.511 13.763 213.457 14.7505C213.502 15.7447 213.234 16.728 212.689 17.5634L212.706 17.5798ZM219.258 8.83789V20.6632H221.968V11.0849H227V8.82149L219.258 8.83789Z" fill="#34495E"/>
<path d="M116.8 35L114.26 31.55L115.07 31.05L117.94 35H116.8ZM112.09 35V28H113.07V35H112.09ZM112.77 31.92V31.04H115.04V31.92H112.77ZM115.16 31.61L114.24 31.47L116.75 28H117.82L115.16 31.61ZM121.007 35.06C120.473 35.06 120 34.9433 119.587 34.71C119.173 34.4767 118.847 34.1567 118.607 33.75C118.367 33.3367 118.247 32.87 118.247 32.35C118.247 31.8233 118.367 31.3567 118.607 30.95C118.847 30.5433 119.173 30.2267 119.587 30C120 29.7667 120.473 29.65 121.007 29.65C121.533 29.65 122.003 29.7667 122.417 30C122.837 30.2267 123.163 30.5433 123.397 30.95C123.637 31.35 123.757 31.8167 123.757 32.35C123.757 32.8767 123.637 33.3433 123.397 33.75C123.163 34.1567 122.837 34.4767 122.417 34.71C122.003 34.9433 121.533 35.06 121.007 35.06ZM121.007 34.22C121.347 34.22 121.65 34.1433 121.917 33.99C122.19 33.8367 122.403 33.62 122.557 33.34C122.71 33.0533 122.787 32.7233 122.787 32.35C122.787 31.97 122.71 31.6433 122.557 31.37C122.403 31.09 122.19 30.8733 121.917 30.72C121.65 30.5667 121.347 30.49 121.007 30.49C120.667 30.49 120.363 30.5667 120.097 30.72C119.83 30.8733 119.617 31.09 119.457 31.37C119.297 31.6433 119.217 31.97 119.217 32.35C119.217 32.7233 119.297 33.0533 119.457 33.34C119.617 33.62 119.83 33.8367 120.097 33.99C120.363 34.1433 120.667 34.22 121.007 34.22ZM125.143 35V29.7H126.103V31.95H129.123V29.7H130.083V35H129.123V32.78H126.103V35H125.143ZM134.26 35.06C133.72 35.06 133.236 34.9433 132.81 34.71C132.39 34.4767 132.06 34.1567 131.82 33.75C131.58 33.3433 131.46 32.8767 131.46 32.35C131.46 31.8233 131.58 31.3567 131.82 30.95C132.06 30.5433 132.39 30.2267 132.81 30C133.236 29.7667 133.72 29.65 134.26 29.65C134.74 29.65 135.166 29.7467 135.54 29.94C135.92 30.1267 136.213 30.4067 136.42 30.78L135.69 31.25C135.516 30.99 135.303 30.8 135.05 30.68C134.803 30.5533 134.536 30.49 134.25 30.49C133.903 30.49 133.593 30.5667 133.32 30.72C133.046 30.8733 132.83 31.09 132.67 31.37C132.51 31.6433 132.43 31.97 132.43 32.35C132.43 32.73 132.51 33.06 132.67 33.34C132.83 33.62 133.046 33.8367 133.32 33.99C133.593 34.1433 133.903 34.22 134.25 34.22C134.536 34.22 134.803 34.16 135.05 34.04C135.303 33.9133 135.516 33.72 135.69 33.46L136.42 33.92C136.213 34.2867 135.92 34.57 135.54 34.77C135.166 34.9633 134.74 35.06 134.26 35.06ZM138.644 35V30.29L138.884 30.54H136.704V29.7H141.544V30.54H139.374L139.604 30.29V35H138.644ZM145.336 35.06C144.896 35.06 144.492 34.96 144.126 34.76C143.766 34.5533 143.476 34.25 143.256 33.85C143.042 33.45 142.936 32.95 142.936 32.35C142.936 31.75 143.039 31.25 143.246 30.85C143.459 30.45 143.746 30.15 144.106 29.95C144.472 29.75 144.882 29.65 145.336 29.65C145.856 29.65 146.316 29.7633 146.716 29.99C147.116 30.2167 147.432 30.5333 147.666 30.94C147.899 31.34 148.016 31.81 148.016 32.35C148.016 32.89 147.899 33.3633 147.666 33.77C147.432 34.1767 147.116 34.4933 146.716 34.72C146.316 34.9467 145.856 35.06 145.336 35.06ZM142.526 36.94V29.7H143.446V31.13L143.386 32.36L143.486 33.59V36.94H142.526ZM145.256 34.22C145.596 34.22 145.899 34.1433 146.166 33.99C146.439 33.8367 146.652 33.62 146.806 33.34C146.966 33.0533 147.046 32.7233 147.046 32.35C147.046 31.97 146.966 31.6433 146.806 31.37C146.652 31.09 146.439 30.8733 146.166 30.72C145.899 30.5667 145.596 30.49 145.256 30.49C144.922 30.49 144.619 30.5667 144.346 30.72C144.079 30.8733 143.866 31.09 143.706 31.37C143.552 31.6433 143.476 31.97 143.476 32.35C143.476 32.7233 143.552 33.0533 143.706 33.34C143.866 33.62 144.079 33.8367 144.346 33.99C144.619 34.1433 144.922 34.22 145.256 34.22ZM149.534 37C149.281 37 149.034 36.9567 148.794 36.87C148.554 36.79 148.347 36.67 148.174 36.51L148.584 35.79C148.717 35.9167 148.864 36.0133 149.024 36.08C149.184 36.1467 149.354 36.18 149.534 36.18C149.767 36.18 149.961 36.12 150.114 36C150.267 35.88 150.411 35.6667 150.544 35.36L150.874 34.63L150.974 34.51L153.054 29.7H153.994L151.424 35.53C151.271 35.9033 151.097 36.1967 150.904 36.41C150.717 36.6233 150.511 36.7733 150.284 36.86C150.057 36.9533 149.807 37 149.534 37ZM150.794 35.17L148.374 29.7H149.374L151.434 34.42L150.794 35.17ZM158.817 35L156.767 32.42L157.557 31.94L159.947 35H158.817ZM154.977 35V29.7H155.937V35H154.977ZM155.647 32.76V31.94H157.397V32.76H155.647ZM157.637 32.46L156.747 32.34L158.777 29.7H159.807L157.637 32.46ZM161.916 35V30.29L162.156 30.54H159.976V29.7H164.816V30.54H162.646L162.876 30.29V35H161.916ZM167.833 35.06C167.299 35.06 166.826 34.9433 166.413 34.71C165.999 34.4767 165.673 34.1567 165.433 33.75C165.193 33.3367 165.073 32.87 165.073 32.35C165.073 31.8233 165.193 31.3567 165.433 30.95C165.673 30.5433 165.999 30.2267 166.413 30C166.826 29.7667 167.299 29.65 167.833 29.65C168.359 29.65 168.829 29.7667 169.243 30C169.663 30.2267 169.989 30.5433 170.223 30.95C170.463 31.35 170.583 31.8167 170.583 32.35C170.583 32.8767 170.463 33.3433 170.223 33.75C169.989 34.1567 169.663 34.4767 169.243 34.71C168.829 34.9433 168.359 35.06 167.833 35.06ZM167.833 34.22C168.173 34.22 168.476 34.1433 168.743 33.99C169.016 33.8367 169.229 33.62 169.383 33.34C169.536 33.0533 169.613 32.7233 169.613 32.35C169.613 31.97 169.536 31.6433 169.383 31.37C169.229 31.09 169.016 30.8733 168.743 30.72C168.476 30.5667 168.173 30.49 167.833 30.49C167.493 30.49 167.189 30.5667 166.923 30.72C166.656 30.8733 166.443 31.09 166.283 31.37C166.123 31.6433 166.043 31.97 166.043 32.35C166.043 32.7233 166.123 33.0533 166.283 33.34C166.443 33.62 166.656 33.8367 166.923 33.99C167.189 34.1433 167.493 34.22 167.833 34.22ZM174.779 35.06C174.339 35.06 173.936 34.96 173.569 34.76C173.209 34.5533 172.919 34.25 172.699 33.85C172.486 33.45 172.379 32.95 172.379 32.35C172.379 31.75 172.482 31.25 172.689 30.85C172.902 30.45 173.189 30.15 173.549 29.95C173.916 29.75 174.326 29.65 174.779 29.65C175.299 29.65 175.759 29.7633 176.159 29.99C176.559 30.2167 176.876 30.5333 177.109 30.94C177.342 31.34 177.459 31.81 177.459 32.35C177.459 32.89 177.342 33.3633 177.109 33.77C176.876 34.1767 176.559 34.4933 176.159 34.72C175.759 34.9467 175.299 35.06 174.779 35.06ZM171.969 36.94V29.7H172.889V31.13L172.829 32.36L172.929 33.59V36.94H171.969ZM174.699 34.22C175.039 34.22 175.342 34.1433 175.609 33.99C175.882 33.8367 176.096 33.62 176.249 33.34C176.409 33.0533 176.489 32.7233 176.489 32.35C176.489 31.97 176.409 31.6433 176.249 31.37C176.096 31.09 175.882 30.8733 175.609 30.72C175.342 30.5667 175.039 30.49 174.699 30.49C174.366 30.49 174.062 30.5667 173.789 30.72C173.522 30.8733 173.309 31.09 173.149 31.37C172.996 31.6433 172.919 31.97 172.919 32.35C172.919 32.7233 172.996 33.0533 173.149 33.34C173.309 33.62 173.522 33.8367 173.789 33.99C174.062 34.1433 174.366 34.22 174.699 34.22ZM184.789 35V33.88L184.739 33.67V31.76C184.739 31.3533 184.619 31.04 184.379 30.82C184.146 30.5933 183.793 30.48 183.319 30.48C183.006 30.48 182.699 30.5333 182.399 30.64C182.099 30.74 181.846 30.8767 181.639 31.05L181.239 30.33C181.513 30.11 181.839 29.9433 182.219 29.83C182.606 29.71 183.009 29.65 183.429 29.65C184.156 29.65 184.716 29.8267 185.109 30.18C185.503 30.5333 185.699 31.0733 185.699 31.8V35H184.789ZM183.049 35.06C182.656 35.06 182.309 34.9933 182.009 34.86C181.716 34.7267 181.489 34.5433 181.329 34.31C181.169 34.07 181.089 33.8 181.089 33.5C181.089 33.2133 181.156 32.9533 181.289 32.72C181.429 32.4867 181.653 32.3 181.959 32.16C182.273 32.02 182.693 31.95 183.219 31.95H184.899V32.64H183.259C182.779 32.64 182.456 32.72 182.289 32.88C182.123 33.04 182.039 33.2333 182.039 33.46C182.039 33.72 182.143 33.93 182.349 34.09C182.556 34.2433 182.843 34.32 183.209 34.32C183.569 34.32 183.883 34.24 184.149 34.08C184.423 33.92 184.619 33.6867 184.739 33.38L184.929 34.04C184.803 34.3533 184.579 34.6033 184.259 34.79C183.939 34.97 183.536 35.06 183.049 35.06ZM187.428 35V29.7H188.388V31.95H191.408V29.7H192.368V35H191.408V32.78H188.388V35H187.428ZM198.075 35L196.025 32.42L196.815 31.94L199.205 35H198.075ZM194.235 35V29.7H195.195V35H194.235ZM194.905 32.76V31.94H196.655V32.76H194.905ZM196.895 32.46L196.005 32.34L198.035 29.7H199.065L196.895 32.46ZM202.395 35.06C201.829 35.06 201.329 34.9433 200.895 34.71C200.469 34.4767 200.135 34.1567 199.895 33.75C199.662 33.3433 199.545 32.8767 199.545 32.35C199.545 31.8233 199.659 31.3567 199.885 30.95C200.119 30.5433 200.435 30.2267 200.835 30C201.242 29.7667 201.699 29.65 202.205 29.65C202.719 29.65 203.172 29.7633 203.565 29.99C203.959 30.2167 204.265 30.5367 204.485 30.95C204.712 31.3567 204.825 31.8333 204.825 32.38C204.825 32.42 204.822 32.4667 204.815 32.52C204.815 32.5733 204.812 32.6233 204.805 32.67H200.295V31.98H204.305L203.915 32.22C203.922 31.88 203.852 31.5767 203.705 31.31C203.559 31.0433 203.355 30.8367 203.095 30.69C202.842 30.5367 202.545 30.46 202.205 30.46C201.872 30.46 201.575 30.5367 201.315 30.69C201.055 30.8367 200.852 31.0467 200.705 31.32C200.559 31.5867 200.485 31.8933 200.485 32.24V32.4C200.485 32.7533 200.565 33.07 200.725 33.35C200.892 33.6233 201.122 33.8367 201.415 33.99C201.709 34.1433 202.045 34.22 202.425 34.22C202.739 34.22 203.022 34.1667 203.275 34.06C203.535 33.9533 203.762 33.7933 203.955 33.58L204.485 34.2C204.245 34.48 203.945 34.6933 203.585 34.84C203.232 34.9867 202.835 35.06 202.395 35.06ZM207.14 35V30.29L207.38 30.54H205.2V29.7H210.04V30.54H207.87L208.1 30.29V35H207.14Z" fill="#333333"/>
<path fill-rule="evenodd" clip-rule="evenodd" d="M67 6H91C92.6569 6 94 7.34315 94 9V33C94 34.6569 92.6569 36 91 36H67C65.3431 36 64 34.6569 64 33V26H63V33C63 35.2091 64.7909 37 67 37H91C93.2091 37 95 35.2091 95 33V9C95 6.79086 93.2091 5 91 5H67C64.7909 5 63 6.79086 63 9V16H64V9C64 7.34315 65.3431 6 67 6Z" fill="#2D9CDB"/>
<path d="M88 22H64C63.4477 22 63 21.5523 63 21C63 20.4477 63.4477 20 64 20H88C88.5523 20 89 20.4477 89 21C89 21.5523 88.5523 22 88 22Z" fill="#333333"/>
<path d="M88 16H70C69.4477 16 69 15.5523 69 15C69 14.4477 69.4477 14 70 14H88C88.5523 14 89 14.4477 89 15C89 15.5523 88.5523 16 88 16Z" fill="#333333"/>
<path d="M88 28H70C69.4477 28 69 27.5523 69 27C69 26.4477 69.4477 26 70 26H88C88.5523 26 89 26.4477 89 27C89 27.5523 88.5523 28 88 28Z" fill="#333333"/>
<path fill-rule="evenodd" clip-rule="evenodd" d="M16.7699 36.8552L17.4336 34.1684C15.1175 33.6523 12.9901 32.507 11.2876 30.8597C9.58507 29.2123 8.37392 27.1273 7.78852 24.8359L5.15039 25.5223C5.8541 28.2929 7.31099 30.8167 9.36093 32.816C11.4109 34.8154 13.9745 36.213 16.7699 36.8552Z" fill="#B0D7E6"/>
<path fill-rule="evenodd" clip-rule="evenodd" d="M32.0947 25.9668C31.0473 28.9178 28.9565 31.3875 26.2135 32.9139L27.835 36.1865C31.3891 34.2414 34.1057 31.0676 35.4721 27.2641L32.0947 25.9668Z" fill="#60A9C5"/>
<path fill-rule="evenodd" clip-rule="evenodd" d="M29.5153 38.7652L26.3815 32.7891C23.6052 34.3211 20.3577 34.7744 17.2657 34.0613L15.5853 40.3722C20.2634 41.6399 25.2519 41.0644 29.5153 38.7652Z" fill="#8FC4D9"/>
<path fill-rule="evenodd" clip-rule="evenodd" d="M32.876 21.5642C32.8774 23.2516 32.5493 24.9232 31.9098 26.4857L37.9926 29.139C39.3491 25.6411 39.6155 21.8171 38.7572 18.166L32.6996 19.2876C32.8247 20.0399 32.8838 20.8017 32.876 21.5642Z" fill="#318EB4"/>
<path fill-rule="evenodd" clip-rule="evenodd" d="M7.36003 21.5639C7.36157 19.688 7.77147 17.8347 8.56147 16.1318L2.7223 13.5371C0.749576 17.9141 0.450773 22.8585 1.88213 27.4396L7.96495 25.5061C7.56174 24.2307 7.35771 22.9011 7.36003 21.5639Z" fill="#8FC4D9"/>
<path fill-rule="evenodd" clip-rule="evenodd" d="M4.35229 14.3238L8.55314 16.182C9.30777 14.5115 10.414 13.0222 11.7969 11.815C13.1798 10.6077 14.807 9.71068 16.5683 9.18468L15.1569 4.79883C12.7771 5.52479 10.5813 6.75065 8.71746 8.39376C6.85362 10.0369 5.36511 12.059 4.35229 14.3238Z" fill="#60A9C5"/>
<path fill-rule="evenodd" clip-rule="evenodd" d="M13.6614 3.493L15.9214 9.42729C17.4756 8.87259 19.125 8.63133 20.7736 8.71754C22.4223 8.80376 24.0372 9.21573 25.5245 9.92949L28.1711 3.72735C23.5487 1.7743 18.3448 1.69025 13.6614 3.493Z" fill="#318EB4"/>
<path fill-rule="evenodd" clip-rule="evenodd" d="M28.7675 0.982422L25.2556 9.77087C27.1933 10.6423 28.885 11.9767 30.1806 13.6559C31.4762 15.335 32.3357 17.3068 32.6827 19.3963L42.4454 17.6721C41.7476 13.9729 40.13 10.5071 37.7405 7.59152C35.3511 4.67593 32.266 2.40364 28.7675 0.982422V0.982422Z" fill="#0C74A4"/>
<path fill-rule="evenodd" clip-rule="evenodd" d="M25.6841 26.2438C25.2389 25.0051 24.9868 24.5196 24.5919 23.4483C24.197 22.3769 23.8022 21.3391 23.4241 20.3681C23.046 19.3972 22.6595 18.4682 22.2899 17.5809C21.9202 16.6937 21.5169 15.8233 21.1136 14.9528C21.0506 14.7999 20.9436 14.6691 20.806 14.5767C20.6685 14.4844 20.5065 14.4347 20.3407 14.4338C20.1465 14.4291 19.9566 14.4916 19.8034 14.6106C19.6502 14.7296 19.5432 14.8979 19.5005 15.0867C19.114 15.9125 18.7416 16.7495 18.3831 17.5977C18.0246 18.4458 17.6465 19.3749 17.2489 20.3849C16.8792 21.3446 16.4871 22.3658 16.0726 23.4483C15.6777 24.528 15.4929 25.1223 15.0476 26.3527C14.9889 26.4667 14.9573 26.5927 14.9552 26.7209C14.9552 26.9429 15.0437 27.1558 15.2013 27.3128C15.3588 27.4697 15.5725 27.5579 15.7954 27.5579C15.9527 27.5529 16.1054 27.5039 16.2361 27.4166C16.3668 27.3293 16.4703 27.2071 16.5347 27.0641L17.6017 23.8919H22.9704L23.4997 25.432C23.6677 25.9342 23.8526 26.4698 24.0458 26.9888C24.1123 27.1561 24.2282 27.2993 24.3783 27.3995C24.5283 27.4997 24.7054 27.552 24.886 27.5496C25.1252 27.5452 25.3529 27.4468 25.5197 27.276C25.6865 27.1051 25.7788 26.8756 25.7766 26.6372C25.7754 26.5009 25.7438 26.3665 25.6841 26.2438ZM18.1226 22.5192C18.4755 21.5148 18.8312 20.5411 19.1896 19.5981C19.5481 18.6551 19.9094 17.7511 20.2735 16.8862C20.6599 17.7567 21.0324 18.6635 21.3909 19.6065C21.7494 20.5495 22.1106 21.5232 22.4747 22.5276L18.1226 22.5192Z" fill="#EF4744"/>
</g>
<defs>
<clipPath id="clip0_12126_515">
<rect width="227" height="42" fill="white"/>
</clipPath>
</defs>
</svg>
