<svg width="168" height="72" viewBox="0 0 168 72" fill="none" xmlns="http://www.w3.org/2000/svg">
<g clip-path="url(#clip0_560_153)">
<path d="M149.59 26.0699H152.88C152.25 26.4208 151.48 27.0524 150.5 27.9646L147.21 31.3331L149.03 33.9296C150.92 36.6664 152.6 38.7015 154 40.1752H149.24C148.68 38.7717 147.84 37.3681 146.93 35.9646L144.76 32.7366L146.65 30.3506C148.33 28.2453 149.31 26.7717 149.59 26.0699ZM144.55 27.6839V38.6313L144.69 39.4734C144.76 39.6138 144.97 39.7541 145.32 39.8243V40.2453H140.7V39.8243L141.33 39.4734C141.4 39.3331 141.47 39.0524 141.47 38.6313V27.6839L141.4 26.8418C141.33 26.7015 141.12 26.5611 140.77 26.491V26.0699H145.39V26.5611C145.04 26.6313 144.83 26.7015 144.76 26.912L144.55 27.6839ZM137.69 27.6839V38.6313L137.83 39.4734L138.46 39.8243V40.2453H133.84V39.8243C134.19 39.7541 134.4 39.6138 134.54 39.4734L134.68 38.6313V32.9471H129.29V38.6313L129.43 39.4734C129.5 39.6138 129.71 39.7541 130.06 39.8243V40.2453H125.37V39.8243C125.72 39.7541 126 39.6138 126.07 39.4734L126.21 38.6313V27.6839L126.07 26.912C126 26.7717 125.72 26.6313 125.37 26.5611V26.0699H130.06V26.5611C129.71 26.6313 129.5 26.7015 129.43 26.912L129.29 27.6839V32.0348H134.68V27.6839L134.54 26.912C134.4 26.7717 134.19 26.6313 133.84 26.5611V26.0699H138.46V26.5611C138.11 26.6313 137.9 26.7015 137.83 26.912L137.69 27.6839ZM154 45.1576H50.7499V43.7541H154V45.1576ZM115.22 26.5611V26.0699H119.28C119.35 26.7015 119.49 27.4032 119.77 28.1752L122.78 36.5962C123.27 38.0699 123.76 39.2629 124.25 40.1752H120.68L119.14 35.1225H114.59L113.61 38.491L113.33 40.1752H110.74L115.29 29.5787C115.71 28.4559 115.99 27.6839 115.99 27.2629C116.06 26.8418 115.78 26.6313 115.22 26.5611ZM116.9 28.4559L114.94 34.1401H118.79L116.9 28.4559ZM109.69 29.1576H108.92L108.71 28.526C108.5 27.8243 108.22 27.4032 107.87 27.1927L105.91 26.912H104.02C103.6 26.912 103.32 26.9822 103.18 27.1225C103.04 27.2629 102.97 27.4734 102.97 27.7541V31.1225H103.74C106.05 31.1225 107.59 31.3331 108.5 31.8243C109.76 32.4559 110.39 33.6488 110.39 35.4734C110.39 37.2278 109.9 38.491 108.92 39.2629C108.01 39.8945 106.68 40.1752 104.79 40.1752H99.1199V39.7541L99.8199 39.4032L99.9599 38.5611V27.6839L99.8199 26.912C99.7499 26.7717 99.4699 26.6313 99.1199 26.5611V26.0699H109.62V29.1576H109.69ZM103.04 32.0348V38.0699C103.04 38.5611 103.11 38.8418 103.32 38.9822C103.53 39.1927 103.81 39.2629 104.3 39.2629H104.72C105.63 39.2629 106.26 38.9822 106.75 38.3506C107.1 37.7892 107.31 36.8769 107.31 35.6138C107.31 34.3506 107.1 33.5085 106.68 32.9471C106.26 32.3155 105.42 32.0348 104.3 32.0348H103.04ZM97.9299 30.1401C97.9299 31.7541 97.4399 32.9471 96.4599 33.6488C95.6199 34.2804 94.2899 34.5611 92.4699 34.5611H91.0699V38.5611L91.2099 39.4032C91.2799 39.5436 91.4899 39.6839 91.9099 39.7541V40.1752H87.2899V39.7541L87.9199 39.4032L88.0599 38.5611V27.6839L87.9199 26.912C87.8499 26.7717 87.6399 26.6313 87.2899 26.5611V26.0699H93.1699C94.7799 26.0699 95.8999 26.2804 96.6699 26.7717C97.5099 27.4032 97.9299 28.526 97.9299 30.1401ZM91.2099 27.0524C91.0699 27.1225 90.9999 27.3331 90.9999 27.6839V33.6488H92.3999C93.3099 33.6488 93.8699 33.298 94.2899 32.6664C94.5699 32.105 94.7799 31.1927 94.7799 29.9296C94.7799 27.8945 93.9399 26.912 92.2599 26.912H91.9099L91.2099 27.0524ZM85.0499 29.1576H84.2799L84.0699 28.526C83.8599 27.8243 83.5099 27.4032 83.1599 27.1927L81.3399 26.912H79.7999L79.2399 27.0524L79.0299 27.6138V31.9646H80.9199C82.1799 31.9646 83.0199 31.8243 83.4399 31.5436V33.298C83.0199 33.0173 82.1799 32.8769 80.9199 32.8769H79.0299V38.1401C79.0299 38.5611 79.1699 38.8418 79.4499 39.0524L81.1999 39.2629H81.6199L83.5799 38.9822C83.9299 38.7717 84.2099 38.2103 84.3499 37.4383L84.4899 36.8769H85.3999V40.1752H75.2499V39.7541C75.5999 39.6839 75.8099 39.5436 75.9499 39.4032L76.0899 38.5611V27.6839L75.9499 26.912C75.8799 26.7717 75.5999 26.6313 75.2499 26.5611V26.0699H85.1199V29.1576H85.0499ZM72.8699 29.1576H72.0999L71.8899 28.526C71.6799 27.8243 71.3999 27.4032 70.9799 27.1927L69.1599 26.912H67.1999C66.7799 26.912 66.4999 26.9822 66.3599 27.1225C66.2899 27.2629 66.2199 27.4734 66.2199 27.7541V31.1225H66.9899C69.2299 31.1225 70.8399 31.3331 71.7499 31.8243C73.0099 32.4559 73.6399 33.6488 73.6399 35.4734C73.6399 37.2278 73.1499 38.491 72.1699 39.2629C71.3299 39.8945 69.9299 40.1752 68.0399 40.1752H62.3699V39.7541C62.7199 39.6839 62.9999 39.5436 63.0699 39.4032L63.2099 38.5611V27.6839L63.0699 26.912C62.9999 26.7717 62.7199 26.6313 62.3699 26.5611V26.0699H72.8699V29.1576ZM58.7299 27.1927C58.3099 26.912 57.6099 26.7717 56.6999 26.7717C55.2999 26.7717 54.2499 27.2629 53.6899 28.3155C53.1999 29.2278 52.9199 30.7015 52.9199 32.7366C52.9199 34.7717 53.1999 36.3155 53.7599 37.298C54.4599 38.491 55.5799 39.1225 57.1899 39.1225C58.3799 39.1225 59.5699 38.8418 60.6899 38.2804L61.1099 39.1927C59.7799 40.0348 58.1699 40.4559 56.3499 40.4559C51.8699 40.4559 49.6299 38.0699 49.6299 33.3681C49.6299 28.3857 51.9399 25.8594 56.5599 25.8594C58.3099 25.8594 59.7099 26.0699 60.6899 26.491V29.4383H59.7799L59.4999 28.5962C59.3599 27.9646 59.0799 27.4734 58.7299 27.1927ZM66.2899 32.0348V38.0699C66.2899 38.5611 66.3599 38.8418 66.4999 38.9822C66.7099 39.1927 67.0599 39.2629 67.5499 39.2629H67.8999C69.5799 39.2629 70.4899 37.9997 70.4899 35.6138C70.4899 34.3506 70.2799 33.5085 69.8599 32.9471C69.4399 32.3155 68.5999 32.0348 67.4099 32.0348H66.2899Z" fill="#006236"/>
<path d="M37.38 23.8246L38.64 24.9474L22.82 34.0702L15.19 29.6491L15.89 28.2456L22.82 32.2456L37.38 23.8246ZM34.16 22L35.84 22.8421L22.82 30.3509L16.8 26.9123L17.85 25.6491L22.89 28.5263L34.16 22ZM39.69 26.1404L40.6 27.4035L22.82 37.6491L14.21 32.7368L14.63 31.1228L22.82 35.8246L39.69 26.1404Z" fill="url(#paint0_radial_560_153)"/>
<path d="M42.28 30.7714C42.77 32.2451 43.05 33.789 43.05 35.403C43.05 37.017 42.77 38.6311 42.28 40.1047L41.93 41.0872C41.16 42.8416 40.18 44.3855 38.85 45.7188C37.52 47.0521 35.98 48.1047 34.23 48.8065C32.41 49.5784 30.52 49.9995 28.56 49.9995C26.6 49.9995 24.71 49.5784 22.89 48.8065C21.21 48.1047 19.67 47.0521 18.27 45.7188C16.94 44.3855 15.89 42.8416 15.19 41.0872C14.35 39.2626 14 37.3679 14 35.403V34.4205L22.82 39.4732L41.51 28.7363L42.28 30.7714Z" fill="url(#paint1_radial_560_153)"/>
</g>
<defs>
<radialGradient id="paint0_radial_560_153" cx="0" cy="0" r="1" gradientUnits="userSpaceOnUse" gradientTransform="translate(29.4842 35.7353) scale(16.7059 16.7478)">
<stop stop-color="#52A347"/>
<stop offset="0.502" stop-color="#83B03E"/>
<stop offset="0.7059" stop-color="#2EA64C"/>
<stop offset="0.9294" stop-color="#264122"/>
<stop offset="0.9333" stop-color="#264122"/>
</radialGradient>
<radialGradient id="paint1_radial_560_153" cx="0" cy="0" r="1" gradientUnits="userSpaceOnUse" gradientTransform="translate(29.4843 35.7339) scale(16.7061 16.748)">
<stop stop-color="#52A347"/>
<stop offset="0.502" stop-color="#83B03E"/>
<stop offset="0.7059" stop-color="#2B9940"/>
<stop offset="0.9294" stop-color="#264122"/>
<stop offset="0.9333" stop-color="#264122"/>
</radialGradient>
<clipPath id="clip0_560_153">
<rect width="140" height="28" fill="white" transform="translate(14 22)"/>
</clipPath>
</defs>
</svg>
