<svg width="10" height="12" viewBox="0 0 10 12" fill="none" xmlns="http://www.w3.org/2000/svg">
<path d="M3.90374 7.61826C3.90374 7.06501 4.03446 6.61134 4.2959 6.25726C4.55734 5.89212 4.93761 5.49378 5.43672 5.06224C5.78134 4.76349 6.03684 4.51452 6.20321 4.31535C6.36958 4.10512 6.45276 3.88382 6.45276 3.65145C6.45276 3.33057 6.30422 3.07607 6.00713 2.88797C5.72193 2.6888 5.34759 2.58921 4.88414 2.58921C4.40879 2.58921 3.97504 2.69433 3.58289 2.90456C3.20261 3.1148 2.89364 3.40802 2.65597 3.78423L0 2.45643C0.487225 1.68188 1.17647 1.07884 2.06774 0.647303C2.959 0.215768 4.03446 0 5.29412 0C6.70826 0 7.84314 0.276625 8.69875 0.829876C9.56625 1.37206 10 2.13555 10 3.12033C10 3.574 9.91681 3.97787 9.75045 4.33195C9.58408 4.67497 9.38206 4.96819 9.14439 5.21162C8.9186 5.44398 8.62151 5.70954 8.25312 6.0083C7.84908 6.32918 7.55199 6.60581 7.36185 6.83817C7.17172 7.05947 7.07665 7.3195 7.07665 7.61826H3.90374ZM5.4902 12C4.9079 12 4.42662 11.834 4.04635 11.5021C3.66607 11.1591 3.47594 10.7441 3.47594 10.2573C3.47594 9.75934 3.66013 9.34993 4.02852 9.02905C4.40879 8.70816 4.89602 8.54772 5.4902 8.54772C6.08437 8.54772 6.5716 8.70816 6.95187 9.02905C7.33215 9.34993 7.52228 9.75934 7.52228 10.2573C7.52228 10.7441 7.33215 11.1591 6.95187 11.5021C6.5716 11.834 6.08437 12 5.4902 12Z" fill="white"/>
</svg>
