<svg width="204" height="143" viewBox="0 0 204 143" fill="none" xmlns="http://www.w3.org/2000/svg">
<g clip-path="url(#clip0_549_684)">
<g opacity="0.1">
<path fill-rule="evenodd" clip-rule="evenodd" d="M83.3081 158.187L124.144 176.179C131.48 160.004 142.234 145.583 155.677 133.894C169.12 122.204 184.938 113.518 202.059 108.425L188.338 65.957C165.205 72.9864 143.86 84.8564 125.742 100.766C107.623 116.676 93.1536 136.257 83.3081 158.187Z" fill="#2D9CDB"/>
<path fill-rule="evenodd" clip-rule="evenodd" d="M173.801 53.3136L195.771 110.775C210.879 105.404 226.912 103.068 242.939 103.902C258.965 104.737 274.664 108.726 289.122 115.637L314.849 55.5829C269.915 36.6717 219.329 35.8578 173.801 53.3136Z" fill="#2D9CDB"/>
</g>
</g>
<defs>
<clipPath id="clip0_549_684">
<rect x="204" y="143" width="204" height="143" rx="4" transform="rotate(180 204 143)" fill="white"/>
</clipPath>
</defs>
</svg>
