<svg width="302" height="96" viewBox="0 0 302 96" fill="none" xmlns="http://www.w3.org/2000/svg">
<g clip-path="url(#clip0_3799_20270)">
<path d="M159.932 5.72754H254V64.5249H159.932V5.72754Z" fill="#F2F2F2"/>
<path d="M154 0H248.067V58.7973H154V0Z" stroke="#3F3D56" stroke-width="2" stroke-miterlimit="10"/>
<path d="M186.584 43.6576C183.748 40.8158 181.816 37.1952 181.034 33.2536C180.251 29.3119 180.653 25.2263 182.188 21.5134C183.723 17.8005 186.322 14.627 189.657 12.3942C192.992 10.1615 196.913 8.96973 200.925 8.96973V29.2894L186.584 43.6576Z" fill="#3F3D56"/>
<path d="M200.926 8.96973C205.433 8.97026 209.812 10.4753 213.371 13.2471C216.93 16.0189 219.466 19.8995 220.579 24.2762C221.691 28.6529 221.317 33.2762 219.515 37.416C217.713 41.5558 214.586 44.9762 210.627 47.137L200.926 29.2894V8.96973Z" fill="#5199FF"/>
<path d="M186.585 43.6572L200.925 29.2891L210.627 47.1367C206.781 49.2331 202.362 50.027 198.029 49.3999C193.696 48.7728 189.681 46.7583 186.585 43.6572Z" fill="#575A89"/>
<path d="M240.624 46.583H244.507V50.474H240.624V46.583Z" fill="#5199FF"/>
<path d="M235.013 46.583H238.897V50.474H235.013V46.583Z" fill="#3F3D56"/>
<path d="M229.404 46.583H233.287V50.474H229.404V46.583Z" fill="#575A89"/>
<path d="M161.443 47.4473H177.408V48.0958H161.443V47.4473Z" fill="#3F3D56"/>
<path d="M161.443 49.3936H177.408V50.0421H161.443V49.3936Z" fill="#3F3D56"/>
<path d="M161.443 51.3379H177.408V51.9864H161.443V51.3379Z" fill="#3F3D56"/>
<path d="M90.8867 38.0918H139.357V91.3554H90.8867V38.0918Z" fill="#F2F2F2"/>
<path d="M86.0001 33H134.47V86.2636H86.0001V33Z" stroke="#3F3D56" stroke-width="2" stroke-miterlimit="10"/>
<path d="M129.316 80.2539H131.929V82.8723H129.316V80.2539Z" fill="#5199FF"/>
<path d="M125.541 80.2539H128.155V82.8723H125.541V80.2539Z" fill="#3F3D56"/>
<path d="M121.767 80.2539H124.38V82.8723H121.767V80.2539Z" fill="#575A89"/>
<path d="M92.4501 81.3916H102.613V81.8044H92.4501V81.3916Z" fill="#3F3D56"/>
<path d="M92.4501 82.6299H102.613V83.0427H92.4501V82.6299Z" fill="#3F3D56"/>
<path d="M92.4501 83.8691H102.613V84.282H92.4501V83.8691Z" fill="#3F3D56"/>
<path d="M110.235 42.3994V46.7075C107.684 46.7075 105.19 47.4655 103.069 48.8856C100.947 50.3058 99.294 52.3243 98.3177 54.6859C97.3413 57.0475 97.0859 59.6461 97.5836 62.1532C98.0813 64.6602 99.3099 66.9631 101.114 68.7706L98.0735 71.8169C95.6681 69.4069 94.0301 66.3364 93.3664 62.9936C92.7028 59.6509 93.0434 56.186 94.3452 53.0372C95.6469 49.8884 97.8514 47.1971 100.68 45.3036C103.508 43.4101 106.833 42.3994 110.235 42.3994Z" fill="#3F3D56"/>
<path d="M98.0737 71.8168L101.114 68.7705C103.319 70.9806 106.25 72.315 109.362 72.5264C112.474 72.7378 115.557 71.8119 118.04 69.9203L120.642 73.3513C117.331 75.8727 113.22 77.1067 109.071 76.8245C104.921 76.5424 101.014 74.7633 98.0737 71.8168Z" fill="#575A89"/>
<path d="M123.134 59.6318C123.134 56.204 121.775 52.9167 119.356 50.4929C116.937 48.0692 113.656 46.7075 110.235 46.7075V42.3994C113.835 42.3994 117.345 43.5314 120.269 45.6361C123.193 47.7407 125.385 50.7117 126.534 54.1303C127.684 57.5489 127.733 61.2428 126.676 64.6912C125.619 68.1395 123.508 71.1686 120.642 73.3513L118.039 69.9204C119.624 68.7161 120.908 67.1605 121.792 65.3755C122.676 63.5904 123.136 61.6245 123.134 59.6318Z" fill="#5199FF"/>
<path d="M17.79 95.9994C7.71125 95.9994 -0.459152 94.9371 -0.459152 93.6267C-0.459152 92.3162 7.71125 91.2539 17.79 91.2539C27.8687 91.2539 36.0391 92.3162 36.0391 93.6267C36.0391 94.9371 27.8687 95.9994 17.79 95.9994Z" fill="#3F3D56"/>
<path d="M23.3442 8.79459C23.3442 8.79459 23.8598 12.6321 22.534 13.0748C21.2082 13.5176 21.5765 16.9123 21.5765 16.9123L25.5538 19.938L29.0893 20.2332L29.9731 15.6577L29.4576 14.477C29.4576 14.477 27.4689 12.1155 28.8683 9.68016C30.2678 7.24485 23.3442 8.79459 23.3442 8.79459Z" fill="#FFB9B9"/>
<path opacity="0.1" d="M23.3442 8.79459C23.3442 8.79459 23.8598 12.6321 22.534 13.0748C21.2082 13.5176 21.5765 16.9123 21.5765 16.9123L25.5538 19.938L29.0893 20.2332L29.9731 15.6577L29.4576 14.477C29.4576 14.477 27.4689 12.1155 28.8683 9.68016C30.2678 7.24485 23.3442 8.79459 23.3442 8.79459Z" fill="black"/>
<path d="M27.0268 38.682L31.667 49.604C31.667 49.604 35.2761 47.5377 37.4121 47.7591C39.5481 47.9805 42.1997 45.3976 42.1997 45.3976L39.5481 32.5568L34.6132 18.9043L27.7633 23.2583L27.0268 38.682Z" fill="#575A89"/>
<path opacity="0.1" d="M27.0268 38.682L31.667 49.604C31.667 49.604 35.2761 47.5377 37.4121 47.7591C39.5481 47.9805 42.1997 45.3976 42.1997 45.3976L39.5481 32.5568L34.6132 18.9043L27.7633 23.2583L27.0268 38.682Z" fill="black"/>
<path d="M19.7348 85.1001V88.6424H23.0493L22.5338 84.5098L19.7348 85.1001Z" fill="#575A89"/>
<path d="M11.1173 78.9746L8.68661 80.4506L10.4544 84.5094L12.2957 84.288L14.0635 81.7789L11.1173 78.9746Z" fill="#575A89"/>
<path d="M19.0719 37.6484L14.7262 47.9063C14.7262 47.9063 16.273 59.2711 16.1993 60.2304C16.1257 61.1898 16.052 61.5588 16.4203 62.3706C16.7886 63.1823 16.9359 63.6989 16.7149 64.6583C16.4939 65.6176 16.4203 65.9866 16.5676 66.3556C16.7149 66.7246 17.7461 81.9269 18.2617 82.96C18.7772 83.9932 17.967 85.6905 18.4826 85.8381C18.9982 85.9857 22.8283 85.6167 23.0493 84.7312C23.2702 83.8456 22.3127 81.7055 22.8283 81.0413C23.3439 80.3771 22.7546 56.4668 23.4912 54.8432C24.2277 53.2197 32.3298 51.7437 32.3298 51.7437C32.3298 51.7437 33.0663 47.0207 32.6244 46.2827C32.1825 45.5448 31.5932 40.8955 31.5932 40.8955L19.0719 37.6484Z" fill="#2F2E41"/>
<path d="M23.3444 88.0521C23.3444 88.0521 21.2821 85.6168 19.5144 88.0521C19.5144 88.0521 19.3671 90.9302 18.1149 91.5206C16.8628 92.1109 17.452 94.4724 19.2197 94.5462C20.9875 94.62 23.2708 94.9152 23.3444 93.9559C23.4181 92.9965 23.0498 92.4061 23.7127 92.1109C24.3756 91.8157 23.7127 90.1184 23.7127 90.1184L23.3444 88.0521Z" fill="#2F2E41"/>
<path d="M23.1237 52.7771C23.1237 52.7771 23.1973 58.0905 23.7129 58.8285C24.2285 59.5665 24.5231 60.0092 24.2285 60.821C23.9339 61.6328 23.4919 63.1087 23.7129 63.4039C23.9339 63.6991 23.4919 65.2488 23.4919 65.2488C23.4919 65.2488 17.8205 67.9793 15.1689 73.6617C15.1689 73.6617 12.4437 78.1634 11.6335 78.2372C10.8233 78.311 9.86574 77.7206 10.3077 79.4179C10.7496 81.1153 12.4437 83.3292 13.6958 83.1078C14.9479 82.8864 15.9055 80.7463 15.9055 80.7463C15.9055 80.7463 25.7016 70.7837 26.7328 70.4885C27.7639 70.1933 30.7101 67.8318 31.2257 66.3558C31.7413 64.8799 32.8461 52.5557 32.3305 51.7439C31.815 50.9322 29.8999 49.8252 29.8999 49.8252L23.1237 52.7771Z" fill="#2F2E41"/>
<path d="M10.381 78.6797C10.381 78.6797 5.81435 78.8273 5.74069 79.9342C5.66704 81.0412 7.65573 87.6092 7.36111 89.1589C7.06649 90.7087 9.64441 94.2509 11.3385 93.5129C13.0326 92.775 11.7068 88.9375 11.7068 88.9375C11.7068 88.9375 13.4008 83.6979 13.1062 83.6241C12.8116 83.5503 9.86539 82.6647 10.0127 81.7792C10.16 80.8936 10.381 78.6797 10.381 78.6797Z" fill="#2F2E41"/>
<path d="M26.7693 12.7417C24.2473 12.7417 22.2027 10.6932 22.2027 8.16626C22.2027 5.63931 24.2473 3.59082 26.7693 3.59082C29.2914 3.59082 31.3359 5.63931 31.3359 8.16626C31.3359 10.6932 29.2914 12.7417 26.7693 12.7417Z" fill="#FFB9B9"/>
<path d="M22.1655 15.2144C22.1655 15.2144 24.6698 17.8711 26.5111 17.4283C28.3525 16.9856 29.31 13.8123 29.31 13.8123L32.6245 13.2219C32.6245 13.2219 34.9814 23.7011 34.9814 24.7343C34.9814 25.7674 32.6245 36.9108 32.6245 38.9034C32.6245 40.8959 34.5395 42.0766 31.5933 42.0028C28.6471 41.929 30.0466 40.9697 25.7746 40.8959C21.5026 40.8221 20.8397 41.7815 19.9558 40.2317C19.353 39.2206 18.6089 38.3011 17.7462 37.5012L19.2929 32.0402L19.5139 16.6166C19.5139 16.6166 21.4023 12.9267 22.2626 13.2219C22.2626 13.2219 21.7972 14.8454 22.1655 15.2144Z" fill="#5199FF"/>
<path d="M23.0729 12.5684C23.0729 12.5684 19.1458 12.9997 18.041 13.8114C16.9362 14.6232 13.8426 15.2136 13.9163 15.804C13.99 16.3943 17.5254 24.8072 17.5254 24.8072C17.5254 24.8072 19.1458 31.449 17.7464 32.9988C16.3469 34.5485 11.1174 51.4481 12.0013 52.8502C12.8851 54.2524 15.684 48.57 15.684 48.57C15.684 48.57 19.4404 36.3934 21.5028 34.3271C23.5651 32.2608 23.7124 21.1174 23.7124 20.6008C23.7124 20.0842 23.0729 12.5684 23.0729 12.5684Z" fill="#575A89"/>
<path d="M28.8175 13.4246C28.8175 13.4246 33.6563 11.5978 35.3504 12.3358C37.0445 13.0737 38.0756 13.2213 38.0756 13.2213L38.6649 20.4535C38.6649 20.4535 38.8858 30.8589 40.8009 33.368C42.7159 35.8771 43.968 46.3563 43.6734 47.3895C43.3788 48.4227 44.189 50.1938 42.9369 49.751C41.6847 49.3082 38.2229 39.1242 38.2229 39.1242C38.2229 39.1242 38.2229 33.2942 36.1606 31.6707C34.0983 30.0471 30.7101 23.3316 30.5628 21.708C30.4155 20.0845 29.0161 15.5828 29.0161 15.5828L28.8175 13.4246Z" fill="#575A89"/>
<path d="M12.2222 36.6897C12.2222 36.6897 14.4318 40.8224 14.7265 41.5604C15.0211 42.2983 17.0834 47.3166 20.0296 46.2096C22.9758 45.1026 17.1571 39.7154 17.1571 39.7154L15.8313 35.2138C15.8313 35.2138 12.3695 34.4758 12.2222 36.6897Z" fill="#FFB9B9"/>
<path d="M37.3389 13.2214H38.0754C38.0754 13.2214 38.812 12.631 39.6958 13C40.5797 13.369 42.642 12.8524 42.642 13.0738C42.642 13.2952 44.9253 12.4096 45.8829 12.8524C46.8404 13.2952 50.3022 13.4428 50.3022 13.4428C50.3022 13.4428 51.7016 16.985 50.7441 17.6492C49.7866 18.3134 48.3871 17.7968 47.7242 18.3134C47.0613 18.83 45.8092 18.2396 45.3673 18.9038C44.9253 19.5679 43.3049 20.7487 42.9366 20.0107C42.5684 19.2728 43.3049 18.6086 41.7582 19.4203C40.2114 20.2321 37.7808 20.2321 37.7808 20.2321L37.3389 13.2214Z" fill="#575A89"/>
<path d="M26.3575 4.78597C26.9754 4.6429 27.6169 4.80144 28.2428 4.90421C28.8687 5.00698 29.5584 5.04086 30.0879 4.69097C30.4789 4.43257 30.7193 4.00508 30.945 3.59388C31.0392 3.44703 31.102 3.2822 31.1294 3.10981C31.156 2.8057 30.9629 2.52824 30.7578 2.30243C29.8055 1.25353 28.4137 0.679446 27.0102 0.497087C25.8565 0.347187 24.6536 0.447572 23.5882 0.915768C22.5228 1.38396 21.6069 2.24136 21.188 3.32882C20.9951 3.8854 20.8746 4.46457 20.8296 5.05202C20.7663 5.48425 20.7582 5.92278 20.8054 6.35706C20.8618 6.679 20.9463 6.99537 21.0578 7.30253L21.7517 9.40174C21.8016 9.60011 21.8948 9.78492 22.0245 9.94286C22.0912 10.0202 22.1811 10.0738 22.2808 10.0957C22.3804 10.1176 22.4844 10.1065 22.5773 10.0642C22.5218 9.83618 22.5133 9.59921 22.5524 9.36781C22.5741 9.25248 22.6298 9.14631 22.7123 9.06298C22.7948 8.97964 22.9003 8.92296 23.0152 8.90024C23.2709 8.87304 23.4894 9.07168 23.732 9.15723C23.8487 9.19188 23.9713 9.20197 24.092 9.18684C24.2128 9.17172 24.3291 9.13171 24.4337 9.06934C24.5383 9.00696 24.6289 8.92358 24.6997 8.82443C24.7705 8.72528 24.8201 8.61251 24.8454 8.49322C24.8837 8.25322 24.8194 7.9963 24.9102 7.77093C25.0165 7.50687 25.2986 7.36851 25.5105 7.17877C25.7039 6.99997 25.8423 6.76958 25.9095 6.51468C25.9767 6.25978 25.9698 5.99096 25.8897 5.73983C25.833 5.56513 25.6727 5.48571 25.7048 5.28501C25.7469 5.02171 26.1343 4.83763 26.3575 4.78597Z" fill="#2F2E41"/>
<path d="M45.6626 20.8848H77V55.3212H45.6626V20.8848Z" fill="#F2F2F2"/>
<path d="M42.5034 17.5938H73.8408V52.0302H42.5034V17.5938Z" stroke="#3F3D56" stroke-width="2" stroke-miterlimit="10"/>
<path d="M70.8081 19.7461V46.0799H45.4096" stroke="#3F3D56" stroke-width="2" stroke-miterlimit="10"/>
<path d="M63.7318 36.8379H69.418V45.9534H63.7318V36.8379Z" fill="#575A89"/>
<path d="M55.5184 30.6338H61.2046V45.9529H55.5184V30.6338Z" fill="#3F3D56"/>
<path d="M47.305 23.418H52.9912V45.9536H47.305V23.418Z" fill="#5199FF"/>
<path d="M69.4979 48.1445H71.1875V49.8374H69.4979V48.1445Z" fill="#5199FF"/>
<path d="M67.057 48.1445H68.7466V49.8374H67.057V48.1445Z" fill="#3F3D56"/>
<path d="M64.6165 48.1445H66.3062V49.8374H64.6165V48.1445Z" fill="#575A89"/>
<path d="M45.6626 48.8809H52.2334V49.1478H45.6626V48.8809Z" fill="#3F3D56"/>
<path d="M45.6626 49.6816H52.2334V49.9485H45.6626V49.6816Z" fill="#3F3D56"/>
<path d="M45.6626 50.4824H52.2334V50.7493H45.6626V50.4824Z" fill="#3F3D56"/>
<path d="M49.5411 13.4397C48.1981 13.4982 47.2002 14.7185 47.3455 16.0575C47.4771 17.2706 47.9626 18.7801 49.492 19.3599C52.2173 20.393 52.07 14.563 51.5544 14.3416C51.2106 14.194 50.6705 13.3905 49.5411 13.4397Z" fill="#FFB9B9"/>
<path d="M14.7261 15.4102L13.9159 15.8044C13.9159 15.8044 12.1482 19.4205 12.0745 19.9371C12.0008 20.4537 10.8224 22.3724 11.2643 22.889C11.7062 23.4055 12.3691 24.7339 11.9272 25.2505C11.4853 25.7671 10.4541 27.8334 10.4541 28.5714C10.4541 29.3093 11.5589 31.3019 10.8224 31.5233C10.0858 31.7446 10.3068 34.6227 10.4541 34.8441C10.6014 35.0655 12.5164 38.6816 12.5164 38.6816C12.5164 38.6816 12.8847 34.5489 16.4938 36.2463C16.4938 36.2463 16.7884 34.18 16.4938 34.0324C16.1992 33.8848 15.4626 32.9992 16.0519 32.8516C16.6411 32.704 17.4513 30.9329 17.304 30.7115C17.1567 30.4901 16.7884 30.1949 17.1567 29.9735C17.525 29.7521 17.8196 28.4976 17.7459 28.2762C17.6723 28.0548 18.5562 27.0216 18.5562 27.0216L14.7261 15.4102Z" fill="#575A89"/>
</g>
<defs>
<clipPath id="clip0_3799_20270">
<rect width="302" height="96" fill="white" transform="matrix(-1 0 0 1 302 0)"/>
</clipPath>
</defs>
</svg>
