<svg width="168" height="72" viewBox="0 0 168 72" fill="none" xmlns="http://www.w3.org/2000/svg">
<g clip-path="url(#clip0_560_115)">
<path fill-rule="evenodd" clip-rule="evenodd" d="M47.7698 50.0629L47.8198 50.0831C47.8376 50.0892 47.8558 50.0942 47.8742 50.0981C48.073 50.1606 48.2799 50.1931 48.4882 50.1946H59.3131L52.2119 43.0566C50.8988 44.3647 50.0311 45.2255 49.3917 45.868C48.824 46.4356 48.436 46.8253 48.0764 47.191L47.3206 47.9471C47.0908 48.1986 46.9635 48.5275 46.964 48.8685C46.9627 49.1258 47.0389 49.3775 47.1827 49.5906C47.3265 49.8037 47.5311 49.9683 47.7698 50.0629Z" fill="#FF4F12"/>
<path fill-rule="evenodd" clip-rule="evenodd" d="M46.9612 48.8756C46.9608 48.5345 47.088 48.2057 47.3179 47.9542L48.0736 47.198C48.4333 46.8323 48.8197 46.4427 49.389 45.875C50.0284 45.2363 50.8961 44.3718 52.2092 43.0637L53.4887 41.7923L53.514 41.7668C55.6433 39.6413 58.6694 36.6251 63.1041 32.1923L53.3574 22.415L47.8364 27.954C46.1868 29.6075 46.4099 30.6898 46.4099 32.9103V48.1075C46.4096 48.5335 46.5395 48.9494 46.7822 49.2992C47.0248 49.649 47.3685 49.9159 47.767 50.064C47.5293 49.9698 47.3253 49.8061 47.1816 49.5941C47.0379 49.3822 46.9611 49.1318 46.9612 48.8756Z" fill="#7700FF"/>
<path fill-rule="evenodd" clip-rule="evenodd" d="M108.596 40.1846H106.972L105.032 42.1515V40.1846H103.659V45.6038H105.032V43.3639L107.004 45.6038H108.662L106.111 42.6975L108.596 40.1846Z" fill="black"/>
<path fill-rule="evenodd" clip-rule="evenodd" d="M65.017 41.6484H63.0332V39.2424H65.017C66.0197 39.2424 66.4771 39.7233 66.4771 40.4443C66.4771 41.1653 66.019 41.6462 65.017 41.6462V41.6484ZM65.0603 37.9561H61.5947V45.6033H63.0332V42.9378H65.0603C66.7822 42.9378 67.9155 42.053 67.9155 40.4465C67.9155 38.8401 66.7829 37.9561 65.0603 37.9561Z" fill="black"/>
<path fill-rule="evenodd" clip-rule="evenodd" d="M71.1623 44.467C70.3558 44.467 69.6038 43.8881 69.6038 42.8964C69.6038 41.9047 70.3558 41.3259 71.1623 41.3259C71.9688 41.3259 72.7209 41.9047 72.7209 42.8964C72.7209 43.8881 71.9688 44.467 71.1623 44.467ZM71.1623 40.0312C69.6799 40.0312 68.2086 40.993 68.2086 42.8934C68.2086 44.7938 69.6821 45.7564 71.1623 45.7564C72.6426 45.7564 74.1161 44.7953 74.1161 42.8942C74.1161 40.993 72.6463 40.0312 71.1623 40.0312Z" fill="black"/>
<path fill-rule="evenodd" clip-rule="evenodd" d="M77.6238 44.4676C76.7956 44.4676 76.1853 43.8693 76.1853 42.8971C76.1853 41.9248 76.8173 41.3265 77.6238 41.3265C78.1139 41.3265 78.5392 41.5561 78.8772 42.0691L80.0545 41.3915C79.6621 40.5502 78.8123 40.0371 77.635 40.0371C76.098 40.0371 74.7902 41.1732 74.7902 42.8993C74.7902 44.6254 76.0324 45.7615 77.635 45.7615C78.7899 45.7615 79.5643 45.238 80.109 44.3083L78.9757 43.6853C78.6481 44.1401 78.2997 44.4676 77.6238 44.4676Z" fill="black"/>
<path fill-rule="evenodd" clip-rule="evenodd" d="M92.2455 43.2547C92.1799 44.0849 92.0165 44.2703 91.733 44.2703C91.5919 44.2731 91.4513 44.2542 91.3159 44.2142L91.3226 45.6165C91.4817 45.6557 91.6453 45.6733 91.8091 45.6689C92.9752 45.6689 93.4109 44.915 93.5206 43.3093L93.6511 41.4193H95.1985V45.5926H96.572V40.1846H92.4746L92.2455 43.2547Z" fill="black"/>
<path fill-rule="evenodd" clip-rule="evenodd" d="M86.8461 42.1732C87.0423 41.5614 87.5869 41.0805 88.3061 41.0805C89.0694 41.0805 89.5812 41.4956 89.7117 42.1732H86.8461ZM88.3502 40.032C86.7834 40.032 85.5054 41.1793 85.5054 42.8942C85.5054 44.6091 86.7804 45.7564 88.2845 45.7564C89.4723 45.7564 90.2243 45.3077 90.7697 44.3795L89.6797 43.8336C89.3417 44.2599 89.0365 44.5762 88.3061 44.5762C87.4996 44.5762 86.911 44.0527 86.8237 43.2218H90.9868V42.7409C90.9875 41.1568 89.8975 40.0312 88.3494 40.0312L88.3502 40.032Z" fill="black"/>
<path fill-rule="evenodd" clip-rule="evenodd" d="M98.6814 42.1732C98.8776 41.5614 99.4223 41.0805 100.141 41.0805C100.904 41.0805 101.417 41.4956 101.548 42.1732H98.6814ZM100.185 40.0312C98.618 40.0312 97.34 41.1785 97.34 42.8934C97.34 44.6084 98.618 45.7564 100.12 45.7564C101.308 45.7564 102.06 45.3077 102.605 44.3795L101.515 43.8336C101.177 44.2599 100.872 44.5762 100.141 44.5762C99.335 44.5762 98.7463 44.0527 98.659 43.2218H102.822V42.7409C102.823 41.1568 101.733 40.0312 100.185 40.0312Z" fill="black"/>
<path fill-rule="evenodd" clip-rule="evenodd" d="M80.5361 41.3864H82.1492V45.6038H83.5219V41.3864H85.135V40.1846H80.5361V41.3864Z" fill="black"/>
<path fill-rule="evenodd" clip-rule="evenodd" d="M111.387 44.467C110.581 44.467 109.829 43.8881 109.829 42.8964C109.829 41.9047 110.581 41.3259 111.387 41.3259C112.194 41.3259 112.946 41.9047 112.946 42.8964C112.946 43.8881 112.194 44.467 111.387 44.467ZM111.387 40.0312C109.905 40.0312 108.434 40.993 108.434 42.8934C108.434 44.7938 109.905 45.7556 111.387 45.7556C112.87 45.7556 114.341 44.7938 114.341 42.8934C114.341 40.993 112.868 40.0312 111.387 40.0312Z" fill="black"/>
<path fill-rule="evenodd" clip-rule="evenodd" d="M119.805 40.1836L118.315 43.9784L116.824 40.1836H115.03V45.5931H116.335V42.1685L117.782 45.5931H118.848L120.295 42.1685V45.5931H121.6V40.1836H119.805Z" fill="black"/>
</g>
<defs>
<clipPath id="clip0_560_115">
<rect width="168" height="72" fill="white"/>
</clipPath>
</defs>
</svg>
