<svg width="40" height="40" viewBox="0 0 40 40" fill="none" xmlns="http://www.w3.org/2000/svg">
<g clip-path="url(#clip0_549_907)">
<path d="M10.6881 5.89389C11.2539 7.0268 12.412 7.74228 13.6784 7.74228C14.3888 7.74228 15.0384 8.14357 15.3559 8.77906C15.792 9.65131 16.8242 10.0442 17.73 9.68164C18.7455 9.27518 19.4952 8.39325 19.7326 7.32551L20.3752 4.4326C20.5184 3.7868 21.1894 3.40744 21.8165 3.61648C22.2726 3.76873 22.5797 4.19518 22.5797 4.67518V6.56293C22.5797 7.57067 23.3965 8.38744 24.4042 8.38744C24.8881 8.38744 25.3526 8.5797 25.6946 8.92164L25.9404 9.16744C26.5978 9.82486 27.6449 9.88293 28.3707 9.30228L30.1126 7.90873C28.3907 3.65325 24.2275 0.645508 19.3539 0.645508C15.6204 0.645508 12.3075 2.41454 10.1836 5.15196C10.23 5.15518 10.2746 5.15777 10.3217 5.16164L10.6881 5.89389Z" fill="#5199FF"/>
<path d="M16.8921 15.484H15.1301C14.134 15.484 13.1966 15.0149 12.5992 14.2182L12.5618 14.1685C11.9643 13.3724 11.0269 12.9033 10.0308 12.9033H7.77466C8.11079 19.0149 13.1585 23.8711 19.3547 23.8711C20.7089 23.8711 22.0082 23.6375 23.2172 23.2111L19.6256 17.0536C19.0579 16.0814 18.0172 15.484 16.8921 15.484Z" fill="#5199FF"/>
<path d="M38.7097 16.8839V14.8652C38.7097 11.649 36.0929 9.03226 32.8768 9.03226C32.3084 9.03226 31.7606 9.11806 31.2406 9.27032C29.8916 3.84516 25.0413 0 19.3548 0C12.5955 0 7.09677 5.49871 7.09677 12.2581C7.09677 13.8535 7.41226 15.3748 7.96968 16.7742H1.93548C0.868387 16.7742 0 17.6426 0 18.7097V34.1935C0 35.2606 0.868387 36.129 1.93548 36.129H7.06581V38.7097H4.51613V40H7.06581H21.2903H23.871V38.7097H21.2903V36.129H26.4516C27.5187 36.129 28.3871 35.2606 28.3871 34.1935V28.3871H38.0645C39.1316 28.3871 40 27.5187 40 26.4516V18.7C40 17.86 39.4587 17.151 38.7097 16.8839ZM37.4194 14.8652V16.7652H36.129V14.8652C36.129 13.0716 34.6703 11.6129 32.8768 11.6129C31.0832 11.6129 29.6245 13.0716 29.6245 14.8652V16.7652H28.3342V14.8652C28.3342 12.3606 30.3716 10.3226 32.8768 10.3226C35.3819 10.3226 37.4194 12.36 37.4194 14.8652ZM34.8387 16.7645H30.9155V14.8645C30.9155 13.7826 31.7955 12.9026 32.8774 12.9026C33.9594 12.9026 34.8387 13.7832 34.8387 14.8652V16.7645ZM19.3548 1.29032C24.5103 1.29032 28.8929 4.82387 30.0316 9.77806C28.2516 10.7781 27.0445 12.6819 27.0445 14.8645V16.8832C26.2955 17.1503 25.7542 17.86 25.7542 18.7V21.1555C23.8826 22.5058 21.6806 23.2258 19.3548 23.2258C13.3071 23.2258 8.3871 18.3058 8.3871 12.2581C8.3871 6.21032 13.3071 1.29032 19.3548 1.29032ZM1.93548 18.0645H8.56323C10.6361 21.9019 14.6955 24.5161 19.3548 24.5161C21.6484 24.5161 23.8335 23.889 25.7542 22.7065V26.4516C25.7542 27.311 26.3206 28.0323 27.0968 28.2845V30.9677H1.29032V18.7097C1.29032 18.3542 1.58 18.0645 1.93548 18.0645ZM20 38.7097H8.35613V36.129H20V38.7097ZM26.4516 34.8387H21.2903H7.06581H1.93548C1.58 34.8387 1.29032 34.549 1.29032 34.1935V32.2581H27.0968V34.1935C27.0968 34.549 26.8071 34.8387 26.4516 34.8387ZM38.7097 26.4516C38.7097 26.8071 38.42 27.0968 38.0645 27.0968H27.6897C27.3342 27.0968 27.0445 26.8071 27.0445 26.4516V18.7C27.0445 18.3445 27.3342 18.0548 27.6897 18.0548H29.6252H36.129H38.0645C38.42 18.0548 38.7097 18.3445 38.7097 18.7V26.4516Z" fill="#333333"/>
<path d="M32.9033 19.3545C31.8362 19.3545 30.9678 20.2229 30.9678 21.29C30.9678 22.13 31.5091 22.8397 32.2581 23.1068V25.8061H33.5484V23.1068C34.2975 22.8397 34.8387 22.13 34.8387 21.29C34.8387 20.2229 33.9704 19.3545 32.9033 19.3545ZM32.9033 21.9351C32.5478 21.9351 32.2581 21.6455 32.2581 21.29C32.2581 20.9345 32.5478 20.6448 32.9033 20.6448C33.2587 20.6448 33.5484 20.9345 33.5484 21.29C33.5484 21.6455 33.2587 21.9351 32.9033 21.9351Z" fill="#333333"/>
<path d="M3.87101 28.3867H2.58069V29.677H3.87101V28.3867Z" fill="#333333"/>
<path d="M10.9677 28.3867H5.16125V29.677H10.9677V28.3867Z" fill="#333333"/>
</g>
<defs>
<clipPath id="clip0_549_907">
<rect width="40" height="40" fill="white"/>
</clipPath>
</defs>
</svg>
