<svg width="40" height="40" viewBox="0 0 40 40" fill="none" xmlns="http://www.w3.org/2000/svg">
<g clip-path="url(#clip0_549_916)">
<path d="M17.0975 32.1564C16.5136 31.2009 16.0723 30.1512 15.802 29.0325H13.5484V23.8712H15.802C16.0723 22.7525 16.5129 21.7028 17.0975 20.7473L15.5033 19.1532L19.1529 15.5035L20.7471 17.0977C21.7026 16.5138 22.7523 16.0725 23.871 15.8022V13.5486H29.0323V15.8022C30.151 16.0725 31.2007 16.5132 32.1562 17.0977L32.2581 16.9957V7.74219H2.58069V32.2583H16.9955L17.0975 32.1564Z" fill="#5199FF"/>
<path d="M3.87101 2.58105H2.58069V3.87138H3.87101V2.58105Z" fill="#333333"/>
<path d="M6.45158 2.58105H5.16125V3.87138H6.45158V2.58105Z" fill="#333333"/>
<path d="M9.03227 2.58105H7.74194V3.87138H9.03227V2.58105Z" fill="#333333"/>
<path d="M26.4516 19.3545C22.5387 19.3545 19.3549 22.5384 19.3549 26.4513C19.3549 30.3642 22.5387 33.548 26.4516 33.548C28.0703 33.548 29.5955 33.0171 30.8613 32.0119L30.0594 31.0016C29.0239 31.8229 27.7761 32.2577 26.4516 32.2577C23.2503 32.2577 20.6452 29.6532 20.6452 26.4513C20.6452 23.2493 23.2503 20.6448 26.4516 20.6448C29.6529 20.6448 32.2581 23.2493 32.2581 26.4513C32.2581 27.8874 31.7303 29.2642 30.7716 30.3306L31.731 31.1938C32.9032 29.89 33.5484 28.2061 33.5484 26.4513C33.5484 22.5384 30.3645 19.3545 26.4516 19.3545Z" fill="#333333"/>
<path d="M23.2258 26.4514C23.2258 28.2301 24.6729 29.6772 26.4516 29.6772C28.2303 29.6772 29.6774 28.2301 29.6774 26.4514C29.6774 24.6727 28.2303 23.2256 26.4516 23.2256C24.6729 23.2256 23.2258 24.6727 23.2258 26.4514ZM28.3871 26.4514C28.3871 27.5185 27.5187 28.3869 26.4516 28.3869C25.3845 28.3869 24.5162 27.5185 24.5162 26.4514C24.5162 25.3843 25.3845 24.5159 26.4516 24.5159C27.5187 24.5159 28.3871 25.3843 28.3871 26.4514Z" fill="#333333"/>
<path d="M7.74198 11.6133H6.45166V12.9036H7.74198V11.6133Z" fill="#333333"/>
<path d="M21.9355 11.6133H9.03223V12.9036H21.9355V11.6133Z" fill="#333333"/>
<path d="M16.1291 14.1934H6.45166V15.4837H16.1291V14.1934Z" fill="#333333"/>
<path d="M11.613 16.7744H6.45166V18.0647H11.613V16.7744Z" fill="#333333"/>
<path d="M11.613 19.3545H6.45166V20.6448H11.613V19.3545Z" fill="#333333"/>
<path d="M11.613 27.0967H10.3226V28.387H11.613V27.0967Z" fill="#333333"/>
<path d="M9.03231 27.0967H6.45166V28.387H9.03231V27.0967Z" fill="#333333"/>
<path d="M11.613 24.5166H6.45166V25.8069H11.613V24.5166Z" fill="#333333"/>
<path d="M11.613 21.9355H6.45166V23.2259H11.613V21.9355Z" fill="#333333"/>
<path d="M40 29.6774V23.2258H37.5974C37.3587 22.4 37.0297 21.6045 36.6135 20.8516L38.3135 19.1523L34.8387 15.6787V0H0V34.8387H15.6781L19.1523 38.3129L20.8516 36.6129C21.6052 37.0297 22.4 37.3587 23.2252 37.5974V40H29.6768V37.5974C30.5019 37.3587 31.2968 37.029 32.0503 36.6129L33.7497 38.3129L38.3123 33.751L36.6129 32.0516C37.029 31.2987 37.3587 30.5039 37.5968 29.6774H40ZM33.5484 1.29032V5.16129H1.29032V1.29032H33.5484ZM14.7923 33.5484H1.29032V6.45161H33.5484V14.7929L32.051 16.2903C31.2981 15.8742 30.5032 15.5445 29.6774 15.3065V12.9032H23.2258V15.3058C22.4 15.5445 21.6052 15.8735 20.8523 16.2897L19.1529 14.5903L14.5903 19.1523L16.2903 20.8516C15.8742 21.6045 15.5445 22.3994 15.3065 23.2258H12.9032V29.6774H15.3058C15.5445 30.5032 15.8735 31.2987 16.2897 32.0516L14.7923 33.5484ZM36.5935 28.3871L36.4742 28.8813C36.2232 29.9187 35.8135 30.9077 35.2555 31.8206L34.9903 32.2542L36.4877 33.751L33.7503 36.4884L32.2529 34.991L31.8194 35.2555C30.9058 35.8135 29.9174 36.2239 28.88 36.4748L28.3871 36.5935V38.7097H24.5161V36.5935L24.0226 36.4742C22.9858 36.2232 21.9968 35.8135 21.0832 35.2548L20.6497 34.9903L19.1523 36.4877L16.4148 33.7503L17.9123 32.2535L17.6471 31.82C17.089 30.9071 16.6794 29.9187 16.4284 28.8806L16.3097 28.3871H14.1935V24.5161H16.3097L16.429 24.0219C16.68 22.9845 17.0897 21.9955 17.6477 21.0826L17.9129 20.649L16.4155 19.1523L19.1529 16.4148L20.6503 17.9129L21.0839 17.6477C21.9961 17.0897 22.9845 16.68 24.0226 16.429L24.5161 16.3097V14.1935H28.3871V16.3097L28.8806 16.429C29.9187 16.68 30.9077 17.0897 31.8194 17.6477L32.2529 17.9129L33.7503 16.4148L36.4877 19.1523L34.9903 20.649L35.2555 21.0826C35.8135 21.9955 36.2232 22.9839 36.4742 24.0219L36.5935 24.5161H38.7097V28.3871H36.5935Z" fill="#333333"/>
</g>
<defs>
<clipPath id="clip0_549_916">
<rect width="40" height="40" fill="white"/>
</clipPath>
</defs>
</svg>
